because-we-mentor.ufo
<glyph name="exclam" format="1">
  <advance width="186"/>
  <unicode hex="0021"/>
  <outline>
    <contour>
      <point x="128" y="552" type="curve"/>
      <point x="124" y="603"/>
      <point x="134" y="738"/>
      <point x="78" y="738" type="curve" smooth="yes"/>
      <point x="50" y="738"/>
      <point x="47" y="709"/>
      <point x="47" y="684" type="curve" smooth="yes"/>
      <point x="47" y="587" type="line" smooth="yes"/>
      <point x="47" y="553"/>
      <point x="47" y="520"/>
      <point x="51" y="487" type="curve" smooth="yes"/>
      <point x="56" y="436"/>
      <point x="49" y="333"/>
      <point x="95" y="333" type="curve" smooth="yes"/>
      <point x="125" y="333"/>
      <point x="125" y="364"/>
      <point x="125" y="396" type="curve" smooth="yes"/>
      <point x="125" y="410"/>
      <point x="124" y="425"/>
      <point x="124" y="439" type="curve" smooth="yes"/>
      <point x="124" y="476"/>
      <point x="128" y="510"/>
    </contour>
    <contour>
      <point x="92" y="187" type="curve" smooth="yes"/>
      <point x="69" y="187"/>
      <point x="48" y="170"/>
      <point x="48" y="144" type="curve" smooth="yes"/>
      <point x="48" y="116"/>
      <point x="72" y="100"/>
      <point x="93" y="100" type="curve" smooth="yes"/>
      <point x="117" y="100"/>
      <point x="139" y="117"/>
      <point x="139" y="143" type="curve" smooth="yes"/>
      <point x="139" y="167"/>
      <point x="121" y="187"/>
    </contour>
  </outline>
</glyph>
<glyph name="quotedbl" format="1">
  <advance width="248"/>
  <unicode hex="0022"/>
  <outline>
    <contour>
      <point x="64" y="634" type="curve" smooth="yes"/>
      <point x="25" y="634"/>
      <point x="17" y="591"/>
      <point x="17" y="557" type="curve" smooth="yes"/>
      <point x="17" y="460"/>
      <point x="41" y="390"/>
      <point x="74" y="390" type="curve" smooth="yes"/>
      <point x="112" y="390"/>
      <point x="106" y="447"/>
      <point x="107" y="476" type="curve" smooth="yes"/>
      <point x="108" y="496"/>
      <point x="110" y="516"/>
      <point x="110" y="537" type="curve" smooth="yes"/>
      <point x="110" y="563"/>
      <point x="103" y="634"/>
    </contour>
    <contour>
      <point x="184" y="413" type="curve" smooth="yes"/>
      <point x="224" y="413"/>
      <point x="226" y="522"/>
      <point x="226" y="548" type="curve" smooth="yes"/>
      <point x="226" y="597"/>
      <point x="215" y="646"/>
      <point x="178" y="646" type="curve" smooth="yes"/>
      <point x="152" y="646"/>
      <point x="140" y="614"/>
      <point x="140" y="584" type="curve" smooth="yes"/>
      <point x="140" y="555"/>
      <point x="148" y="521"/>
      <point x="152" y="495" type="curve" smooth="yes"/>
      <point x="156" y="467"/>
      <point x="158" y="413"/>
    </contour>
  </outline>
</glyph>
<glyph name="numbersign" format="1">
  <advance width="668"/>
  <unicode hex="0023"/>
  <outline>
    <contour>
      <point x="274" y="652" type="curve" smooth="yes"/>
      <point x="270" y="654"/>
      <point x="265" y="655"/>
      <point x="261" y="655" type="curve" smooth="yes"/>
      <point x="229" y="655"/>
      <point x="224" y="612"/>
      <point x="224" y="565" type="curve" smooth="yes"/>
      <point x="224" y="538"/>
      <point x="225" y="510"/>
      <point x="225" y="487" type="curve"/>
      <point x="160" y="480"/>
      <point x="9" y="489"/>
      <point x="9" y="429" type="curve" smooth="yes"/>
      <point x="9" y="404"/>
      <point x="30" y="399"/>
      <point x="48" y="399" type="curve" smooth="yes"/>
      <point x="107" y="399"/>
      <point x="165" y="412"/>
      <point x="225" y="412" type="curve"/>
      <point x="226" y="389"/>
      <point x="226" y="365"/>
      <point x="226" y="342" type="curve" smooth="yes"/>
      <point x="226" y="313" type="line"/>
      <point x="177" y="307"/>
      <point x="75" y="309"/>
      <point x="75" y="261" type="curve" smooth="yes"/>
      <point x="75" y="240"/>
      <point x="92" y="232"/>
      <point x="107" y="232" type="curve" smooth="yes"/>
      <point x="138" y="232"/>
      <point x="163" y="240"/>
      <point x="194" y="240" type="curve" smooth="yes"/>
      <point x="205" y="240"/>
      <point x="222" y="239"/>
      <point x="233" y="238" type="curve"/>
      <point x="245" y="181"/>
      <point x="230" y="101"/>
      <point x="257" y="79" type="curve"/>
      <point x="261" y="76"/>
      <point x="265" y="75"/>
      <point x="269" y="75" type="curve" smooth="yes"/>
      <point x="280" y="75"/>
      <point x="290" y="86"/>
      <point x="290" y="120" type="curve" smooth="yes"/>
      <point x="290" y="144"/>
      <point x="289" y="169"/>
      <point x="289" y="193" type="curve" smooth="yes"/>
      <point x="289" y="207"/>
      <point x="290" y="222"/>
      <point x="291" y="236" type="curve"/>
      <point x="335" y="235"/>
      <point x="361" y="234"/>
      <point x="381" y="234" type="curve" smooth="yes"/>
      <point x="401" y="234"/>
      <point x="413" y="235"/>
      <point x="429" y="236" type="curve"/>
      <point x="442" y="164"/>
      <point x="438" y="93"/>
      <point x="459" y="30" type="curve" smooth="yes"/>
      <point x="463" y="18"/>
      <point x="469" y="9"/>
      <point x="478" y="9" type="curve" smooth="yes"/>
      <point x="499" y="9"/>
      <point x="506" y="25"/>
      <point x="506" y="51" type="curve" smooth="yes"/>
      <point x="506" y="98"/>
      <point x="504" y="145"/>
      <point x="504" y="193" type="curve" smooth="yes"/>
      <point x="504" y="208"/>
      <point x="504" y="223"/>
      <point x="505" y="238" type="curve"/>
      <point x="538" y="239"/>
      <point x="560" y="240"/>
      <point x="584" y="240" type="curve" smooth="yes"/>
      <point x="591" y="240"/>
      <point x="601" y="239"/>
      <point x="611" y="239" type="curve" smooth="yes"/>
      <point x="633" y="239"/>
      <point x="657" y="243"/>
      <point x="657" y="263" type="curve" smooth="yes"/>
      <point x="657" y="298"/>
      <point x="551" y="291"/>
      <point x="507" y="297" type="curve"/>
      <point x="505" y="332"/>
      <point x="501" y="368"/>
      <point x="501" y="404" type="curve" smooth="yes"/>
      <point x="501" y="411"/>
      <point x="502" y="418"/>
      <point x="502" y="425" type="curve"/>
      <point x="531" y="425"/>
      <point x="560" y="422"/>
      <point x="589" y="422" type="curve" smooth="yes"/>
      <point x="607" y="422"/>
      <point x="627" y="422"/>
      <point x="627" y="440" type="curve" smooth="yes"/>
      <point x="627" y="468"/>
      <point x="530" y="467"/>
      <point x="497" y="476" type="curve"/>
      <point x="489" y="535"/>
      <point x="488" y="649"/>
      <point x="440" y="649" type="curve" smooth="yes"/>
      <point x="410" y="649"/>
      <point x="410" y="610"/>
      <point x="410" y="585" type="curve" smooth="yes"/>
      <point x="410" y="557"/>
      <point x="412" y="534"/>
      <point x="412" y="511" type="curve" smooth="yes"/>
      <point x="412" y="501"/>
      <point x="412" y="491"/>
      <point x="411" y="481" type="curve"/>
      <point x="297" y="487" type="line"/>
      <point x="293" y="538"/>
      <point x="303" y="637"/>
    </contour>
    <contour>
      <point x="416" y="424" type="line"/>
      <point x="417" y="383"/>
      <point x="421" y="343"/>
      <point x="422" y="303" type="curve"/>
      <point x="381" y="303"/>
      <point x="341" y="307"/>
      <point x="300" y="309" type="curve"/>
      <point x="298" y="323"/>
      <point x="297" y="337"/>
      <point x="297" y="352" type="curve" smooth="yes"/>
      <point x="297" y="374"/>
      <point x="299" y="397"/>
      <point x="300" y="418" type="curve"/>
      <point x="332" y="422"/>
      <point x="365" y="424"/>
      <point x="397" y="424" type="curve" smooth="yes"/>
    </contour>
  </outline>
</glyph>
<glyph name="dollar" format="1">
  <advance width="334"/>
  <unicode hex="0024"/>
  <outline>
    <contour>
      <point x="231" y="594" type="curve"/>
      <point x="224" y="596"/>
      <point x="209" y="598"/>
      <point x="193" y="599" type="curve"/>
      <point x="194" y="610"/>
      <point x="197" y="629"/>
      <point x="197" y="651" type="curve" smooth="yes"/>
      <point x="197" y="668"/>
      <point x="190" y="695"/>
      <point x="160" y="695" type="curve" smooth="yes"/>
      <point x="121" y="695"/>
      <point x="117" y="629"/>
      <point x="117" y="608" type="curve" smooth="yes"/>
      <point x="117" y="601" type="line"/>
      <point x="99" y="599"/>
      <point x="4" y="588"/>
      <point x="4" y="515" type="curve" smooth="yes"/>
      <point x="4" y="493"/>
      <point x="14" y="472"/>
      <point x="27" y="454" type="curve" smooth="yes"/>
      <point x="83" y="376"/>
      <point x="161" y="343"/>
      <point x="161" y="268" type="curve" smooth="yes"/>
      <point x="161" y="249"/>
      <point x="149" y="240"/>
      <point x="133" y="240" type="curve" smooth="yes"/>
      <point x="106" y="240"/>
      <point x="74" y="244"/>
      <point x="47" y="253" type="curve" smooth="yes"/>
      <point x="27" y="260"/>
      <point x="1" y="281"/>
      <point x="-17" y="281" type="curve" smooth="yes"/>
      <point x="-29" y="281"/>
      <point x="-33" y="266"/>
      <point x="-33" y="257" type="curve" smooth="yes"/>
      <point x="-33" y="223"/>
      <point x="12" y="190"/>
      <point x="62" y="169" type="curve"/>
      <point x="58" y="139"/>
      <point x="56" y="143"/>
      <point x="56" y="124" type="curve" smooth="yes"/>
      <point x="56" y="106"/>
      <point x="60" y="71"/>
      <point x="92" y="71" type="curve" smooth="yes"/>
      <point x="128" y="71"/>
      <point x="132" y="112"/>
      <point x="132" y="112" type="curve"/>
      <point x="135" y="149" type="line"/>
      <point x="141" y="148"/>
      <point x="146" y="148"/>
      <point x="151" y="148" type="curve" smooth="yes"/>
      <point x="220" y="148"/>
      <point x="261" y="200"/>
      <point x="261" y="260" type="curve" smooth="yes"/>
      <point x="261" y="386"/>
      <point x="95" y="439"/>
      <point x="95" y="506" type="curve" smooth="yes"/>
      <point x="95" y="519"/>
      <point x="126" y="530"/>
      <point x="142" y="530" type="curve" smooth="yes"/>
      <point x="178" y="530"/>
      <point x="243" y="488"/>
      <point x="274" y="488" type="curve" smooth="yes"/>
      <point x="292" y="488"/>
      <point x="297" y="505"/>
      <point x="297" y="519" type="curve" smooth="yes"/>
      <point x="297" y="558"/>
      <point x="264" y="583"/>
    </contour>
  </outline>
</glyph>
<glyph name="percent" format="1">
  <advance width="512"/>
  <unicode hex="0025"/>
  <outline>
    <contour>
      <point x="380" y="536" type="curve" smooth="yes"/>
      <point x="380" y="557"/>
      <point x="369" y="579"/>
      <point x="343" y="579" type="curve" smooth="yes"/>
      <point x="314" y="579"/>
      <point x="301" y="548"/>
      <point x="291" y="525" type="curve" smooth="yes"/>
      <point x="249" y="433"/>
      <point x="211" y="339"/>
      <point x="175" y="245" type="curve" smooth="yes"/>
      <point x="155" y="194"/>
      <point x="127" y="117"/>
      <point x="127" y="79" type="curve" smooth="yes"/>
      <point x="127" y="56"/>
      <point x="140" y="48"/>
      <point x="154" y="48" type="curve" smooth="yes"/>
      <point x="184" y="48"/>
      <point x="200" y="91"/>
      <point x="215" y="115" type="curve" smooth="yes"/>
      <point x="284" y="228"/>
      <point x="332" y="357"/>
      <point x="370" y="483" type="curve" smooth="yes"/>
      <point x="374" y="498"/>
      <point x="380" y="518"/>
    </contour>
    <contour>
      <point x="65" y="538" type="curve" smooth="yes"/>
      <point x="32" y="538"/>
      <point x="9" y="513"/>
      <point x="9" y="478" type="curve" smooth="yes"/>
      <point x="9" y="442"/>
      <point x="40" y="417"/>
      <point x="73" y="417" type="curve" smooth="yes"/>
      <point x="103" y="417"/>
      <point x="128" y="440"/>
      <point x="128" y="470" type="curve" smooth="yes"/>
      <point x="128" y="507"/>
      <point x="102" y="538"/>
    </contour>
    <contour>
      <point x="442" y="240" type="curve" smooth="yes"/>
      <point x="414" y="240"/>
      <point x="392" y="219"/>
      <point x="392" y="189" type="curve" smooth="yes"/>
      <point x="392" y="162"/>
      <point x="408" y="139"/>
      <point x="440" y="139" type="curve" smooth="yes"/>
      <point x="471" y="139"/>
      <point x="495" y="160"/>
      <point x="495" y="189" type="curve" smooth="yes"/>
      <point x="495" y="220"/>
      <point x="469" y="240"/>
    </contour>
  </outline>
</glyph>
<glyph name="ampersand" format="1">
  <advance width="510"/>
  <unicode hex="0026"/>
  <outline>
    <contour>
      <point x="391" y="179" type="curve"/>
      <point x="398" y="187"/>
      <point x="416" y="242"/>
      <point x="416" y="244" type="curve" smooth="yes"/>
      <point x="416" y="257"/>
      <point x="401" y="268"/>
      <point x="388" y="268" type="curve" smooth="yes"/>
      <point x="378" y="268"/>
      <point x="375" y="255"/>
      <point x="352" y="223" type="curve"/>
      <point x="315" y="272"/>
      <point x="278" y="325"/>
      <point x="258" y="356" type="curve"/>
      <point x="283" y="394"/>
      <point x="318" y="428"/>
      <point x="318" y="483" type="curve" smooth="yes"/>
      <point x="318" y="556"/>
      <point x="245" y="605"/>
      <point x="179" y="605" type="curve" smooth="yes"/>
      <point x="136" y="605"/>
      <point x="94" y="577"/>
      <point x="94" y="524" type="curve" smooth="yes"/>
      <point x="94" y="467"/>
      <point x="131" y="418"/>
      <point x="159" y="370" type="curve"/>
      <point x="104" y="310"/>
      <point x="26" y="259"/>
      <point x="26" y="176" type="curve" smooth="yes"/>
      <point x="26" y="89"/>
      <point x="137" y="34"/>
      <point x="222" y="34" type="curve" smooth="yes"/>
      <point x="290" y="34"/>
      <point x="333" y="59"/>
      <point x="362" y="109" type="curve"/>
      <point x="373" y="109"/>
      <point x="429" y="27"/>
      <point x="436" y="21" type="curve" smooth="yes"/>
      <point x="443" y="15"/>
      <point x="449" y="13"/>
      <point x="454" y="13" type="curve" smooth="yes"/>
      <point x="465" y="13"/>
      <point x="477" y="22"/>
      <point x="477" y="34" type="curve" smooth="yes"/>
      <point x="477" y="67"/>
      <point x="434" y="120"/>
    </contour>
    <contour>
      <point x="214" y="119" type="curve" smooth="yes"/>
      <point x="177" y="119"/>
      <point x="104" y="140"/>
      <point x="104" y="179" type="curve" smooth="yes"/>
      <point x="104" y="221"/>
      <point x="183" y="284"/>
      <point x="208" y="303" type="curve"/>
      <point x="241" y="262"/>
      <point x="276" y="220"/>
      <point x="306" y="177" type="curve"/>
      <point x="286" y="140"/>
      <point x="259" y="119"/>
    </contour>
    <contour>
      <point x="205" y="426" type="curve"/>
      <point x="184" y="455"/>
      <point x="162" y="474"/>
      <point x="162" y="530" type="curve"/>
      <point x="189" y="529"/>
      <point x="231" y="518"/>
      <point x="231" y="482" type="curve" smooth="yes"/>
      <point x="231" y="461"/>
      <point x="218" y="441"/>
    </contour>
  </outline>
</glyph>
<glyph name="quotesingle" format="1">
  <advance width="129"/>
  <unicode hex="0027"/>
  <outline>
    <contour>
      <point x="64" y="634" type="curve" smooth="yes"/>
      <point x="25" y="634"/>
      <point x="17" y="591"/>
      <point x="17" y="557" type="curve" smooth="yes"/>
      <point x="17" y="460"/>
      <point x="41" y="390"/>
      <point x="74" y="390" type="curve" smooth="yes"/>
      <point x="112" y="390"/>
      <point x="106" y="447"/>
      <point x="107" y="476" type="curve" smooth="yes"/>
      <point x="108" y="496"/>
      <point x="110" y="516"/>
      <point x="110" y="537" type="curve" smooth="yes"/>
      <point x="110" y="563"/>
      <point x="103" y="634"/>
    </contour>
  </outline>
</glyph>
<glyph name="parenleft" format="1">
  <advance width="220"/>
  <unicode hex="0028"/>
  <outline>
    <contour>
      <point x="151" y="653" type="curve" smooth="yes"/>
      <point x="151" y="667"/>
      <point x="140" y="680"/>
      <point x="124" y="680" type="curve" smooth="yes"/>
      <point x="88" y="680"/>
      <point x="69" y="616"/>
      <point x="59" y="582" type="curve" smooth="yes"/>
      <point x="33" y="494"/>
      <point x="19" y="401"/>
      <point x="19" y="309" type="curve" smooth="yes"/>
      <point x="19" y="192"/>
      <point x="44" y="76"/>
      <point x="113" y="-20" type="curve" smooth="yes"/>
      <point x="129" y="-42"/>
      <point x="152" y="-82"/>
      <point x="180" y="-82" type="curve" smooth="yes"/>
      <point x="193" y="-82"/>
      <point x="208" y="-74"/>
      <point x="208" y="-61" type="curve" smooth="yes"/>
      <point x="208" y="-46"/>
      <point x="199" y="-31"/>
      <point x="193" y="-18" type="curve" smooth="yes"/>
      <point x="142" y="88"/>
      <point x="114" y="228"/>
      <point x="113" y="353" type="curve"/>
      <point x="113" y="441"/>
      <point x="119" y="538"/>
      <point x="145" y="623" type="curve"/>
      <point x="147" y="632"/>
      <point x="151" y="643"/>
    </contour>
  </outline>
</glyph>
<glyph name="parenright" format="1">
  <advance width="249"/>
  <unicode hex="0029"/>
  <outline>
    <contour>
      <point x="48" y="684" type="curve"/>
      <point x="33" y="684"/>
      <point x="20" y="672"/>
      <point x="20" y="658" type="curve" smooth="yes"/>
      <point x="20" y="634"/>
      <point x="36" y="605"/>
      <point x="45" y="583" type="curve" smooth="yes"/>
      <point x="95" y="459"/>
      <point x="121" y="316"/>
      <point x="121" y="185" type="curve" smooth="yes"/>
      <point x="121" y="132"/>
      <point x="115" y="79"/>
      <point x="111" y="29" type="curve" smooth="yes"/>
      <point x="108" y="-8"/>
      <point x="92" y="-33"/>
      <point x="92" y="-69" type="curve" smooth="yes"/>
      <point x="92" y="-79"/>
      <point x="104" y="-83"/>
      <point x="110" y="-83" type="curve" smooth="yes"/>
      <point x="125" y="-83"/>
      <point x="142" y="-64"/>
      <point x="151" y="-51" type="curve" smooth="yes"/>
      <point x="210" y="35"/>
      <point x="229" y="129"/>
      <point x="229" y="232" type="curve" smooth="yes"/>
      <point x="229" y="328"/>
      <point x="208" y="427"/>
      <point x="172" y="518" type="curve" smooth="yes"/>
      <point x="148" y="578"/>
      <point x="100" y="674"/>
    </contour>
  </outline>
</glyph>
<glyph name="asterisk" format="1">
  <advance width="407"/>
  <unicode hex="002A"/>
  <outline>
    <contour>
      <point x="295" y="642" type="curve"/>
      <point x="291" y="643"/>
      <point x="288" y="643"/>
      <point x="285" y="643" type="curve" smooth="yes"/>
      <point x="250" y="643"/>
      <point x="231" y="585"/>
      <point x="211" y="555" type="curve"/>
      <point x="181" y="585"/>
      <point x="155" y="638"/>
      <point x="124" y="638" type="curve" smooth="yes"/>
      <point x="104" y="638"/>
      <point x="95" y="624"/>
      <point x="95" y="606" type="curve" smooth="yes"/>
      <point x="95" y="564"/>
      <point x="128" y="519"/>
      <point x="144" y="479" type="curve"/>
      <point x="101" y="472"/>
      <point x="20" y="483"/>
      <point x="20" y="434" type="curve" smooth="yes"/>
      <point x="20" y="393"/>
      <point x="101" y="389"/>
      <point x="138" y="384" type="curve"/>
      <point x="131" y="347"/>
      <point x="106" y="309"/>
      <point x="106" y="271" type="curve" smooth="yes"/>
      <point x="106" y="256"/>
      <point x="111" y="245"/>
      <point x="132" y="245" type="curve" smooth="yes"/>
      <point x="166" y="245"/>
      <point x="196" y="338"/>
      <point x="226" y="376" type="curve"/>
      <point x="255" y="348"/>
      <point x="283" y="298"/>
      <point x="322" y="298" type="curve" smooth="yes"/>
      <point x="340" y="298"/>
      <point x="361" y="310"/>
      <point x="361" y="334" type="curve" smooth="yes"/>
      <point x="361" y="360"/>
      <point x="328" y="393"/>
      <point x="310" y="423" type="curve"/>
      <point x="338" y="434"/>
      <point x="387" y="438"/>
      <point x="387" y="467" type="curve" smooth="yes"/>
      <point x="387" y="494"/>
      <point x="361" y="497"/>
      <point x="335" y="497" type="curve" smooth="yes"/>
      <point x="318" y="497"/>
      <point x="301" y="496"/>
      <point x="285" y="496" type="curve"/>
      <point x="294" y="531"/>
      <point x="312" y="570"/>
      <point x="312" y="606" type="curve" smooth="yes"/>
      <point x="312" y="620"/>
      <point x="308" y="633"/>
    </contour>
  </outline>
</glyph>
<glyph name="plus" format="1">
  <advance width="443"/>
  <unicode hex="002B"/>
  <outline>
    <contour>
      <point x="184" y="486" type="curve" smooth="yes"/>
      <point x="182" y="466"/>
      <point x="181" y="446"/>
      <point x="180" y="420" type="curve"/>
      <point x="163" y="420" type="line" smooth="yes"/>
      <point x="69" y="420"/>
      <point x="24" y="417"/>
      <point x="24" y="376" type="curve" smooth="yes"/>
      <point x="24" y="344"/>
      <point x="58" y="336"/>
      <point x="87" y="334" type="curve"/>
      <point x="154" y="334"/>
      <point x="142" y="331"/>
      <point x="172" y="330" type="curve"/>
      <point x="169" y="300" type="line" smooth="yes"/>
      <point x="165" y="267"/>
      <point x="163" y="240"/>
      <point x="163" y="218" type="curve" smooth="yes"/>
      <point x="163" y="177"/>
      <point x="172" y="157"/>
      <point x="203" y="157" type="curve" smooth="yes"/>
      <point x="230" y="157"/>
      <point x="241" y="187"/>
      <point x="246" y="215" type="curve"/>
      <point x="255" y="297"/>
      <point x="254" y="260"/>
      <point x="263" y="329" type="curve"/>
      <point x="329" y="329"/>
      <point x="426" y="335"/>
      <point x="426" y="382" type="curve" smooth="yes"/>
      <point x="426" y="418"/>
      <point x="380" y="425"/>
      <point x="350" y="425" type="curve" smooth="yes"/>
      <point x="327" y="425"/>
      <point x="304" y="423"/>
      <point x="273" y="421" type="curve"/>
      <point x="274" y="433"/>
      <point x="274" y="446"/>
      <point x="274" y="459" type="curve" smooth="yes"/>
      <point x="274" y="511"/>
      <point x="265" y="557"/>
      <point x="230" y="557" type="curve" smooth="yes"/>
      <point x="198" y="557"/>
      <point x="187" y="515"/>
    </contour>
  </outline>
</glyph>
<glyph name="comma" format="1">
  <advance width="152"/>
  <unicode hex="002C"/>
  <outline>
    <contour>
      <point x="132" y="40" type="curve" smooth="yes"/>
      <point x="132" y="60"/>
      <point x="122" y="96"/>
      <point x="93" y="96" type="curve" smooth="yes"/>
      <point x="76" y="96"/>
      <point x="65" y="85"/>
      <point x="65" y="65" type="curve" smooth="yes"/>
      <point x="65" y="50"/>
      <point x="68" y="34"/>
      <point x="68" y="19" type="curve" smooth="yes"/>
      <point x="68" y="-4"/>
      <point x="50" y="-37"/>
      <point x="50" y="-51" type="curve" smooth="yes"/>
      <point x="50" y="-61"/>
      <point x="64" y="-61"/>
      <point x="75" y="-61" type="curve" smooth="yes"/>
      <point x="114" y="-61"/>
      <point x="132" y="3"/>
    </contour>
  </outline>
</glyph>
<glyph name="hyphen" format="1">
  <advance width="339"/>
  <unicode hex="002D"/>
  <outline>
    <contour>
      <point x="191" y="345" type="curve" smooth="yes"/>
      <point x="133" y="339"/>
      <point x="125" y="342"/>
      <point x="66" y="336" type="curve" smooth="yes"/>
      <point x="46" y="334"/>
      <point x="18" y="326"/>
      <point x="18" y="297" type="curve" smooth="yes"/>
      <point x="18" y="265"/>
      <point x="52" y="257"/>
      <point x="81" y="255" type="curve"/>
      <point x="127" y="255"/>
      <point x="138" y="249"/>
      <point x="176" y="254" type="curve" smooth="yes"/>
      <point x="227" y="260"/>
      <point x="317" y="254"/>
      <point x="317" y="305" type="curve" smooth="yes"/>
      <point x="317" y="341"/>
      <point x="271" y="348"/>
      <point x="241" y="348" type="curve" smooth="yes"/>
      <point x="226" y="348"/>
      <point x="219" y="347"/>
    </contour>
  </outline>
</glyph>
<glyph name="period" format="1">
  <advance width="132"/>
  <unicode hex="002E"/>
  <outline>
    <contour>
      <point x="68" y="106" type="curve" smooth="yes"/>
      <point x="44" y="106"/>
      <point x="21" y="88"/>
      <point x="21" y="61" type="curve" smooth="yes"/>
      <point x="21" y="33"/>
      <point x="43" y="16"/>
      <point x="66" y="16" type="curve" smooth="yes"/>
      <point x="94" y="16"/>
      <point x="113" y="39"/>
      <point x="113" y="64" type="curve" smooth="yes"/>
      <point x="113" y="91"/>
      <point x="90" y="106"/>
    </contour>
  </outline>
</glyph>
<glyph name="slash" format="1">
  <advance width="367"/>
  <unicode hex="002F"/>
  <outline>
    <contour>
      <point x="269" y="686" type="curve" smooth="yes"/>
      <point x="256" y="653"/>
      <point x="246" y="618"/>
      <point x="222" y="554" type="curve" smooth="yes"/>
      <point x="49" y="96" type="line"/>
      <point x="45" y="83"/>
      <point x="43" y="80"/>
      <point x="42" y="76" type="curve"/>
      <point x="27" y="36"/>
      <point x="16" y="6"/>
      <point x="16" y="-15" type="curve" smooth="yes"/>
      <point x="16" y="-35"/>
      <point x="28" y="-53"/>
      <point x="53" y="-53" type="curve" smooth="yes"/>
      <point x="74" y="-53"/>
      <point x="92" y="-29"/>
      <point x="101" y="-7" type="curve" smooth="yes"/>
      <point x="139" y="84"/>
      <point x="271" y="432"/>
      <point x="324" y="564" type="curve" smooth="yes"/>
      <point x="340" y="603"/>
      <point x="358" y="658"/>
      <point x="358" y="697" type="curve" smooth="yes"/>
      <point x="358" y="723"/>
      <point x="349" y="744"/>
      <point x="323" y="744" type="curve" smooth="yes"/>
      <point x="297" y="744"/>
      <point x="278" y="710"/>
    </contour>
  </outline>
</glyph>
<glyph name="zero" format="1">
  <advance width="394"/>
  <unicode hex="0030"/>
  <outline>
    <contour>
      <point x="374" y="388" type="curve" smooth="yes"/>
      <point x="374" y="539"/>
      <point x="290" y="653"/>
      <point x="127" y="653" type="curve" smooth="yes"/>
      <point x="96" y="653"/>
      <point x="50" y="646"/>
      <point x="50" y="607" type="curve" smooth="yes"/>
      <point x="50" y="592"/>
      <point x="70" y="584"/>
      <point x="80" y="574" type="curve"/>
      <point x="44" y="488"/>
      <point x="20" y="405"/>
      <point x="20" y="310" type="curve" smooth="yes"/>
      <point x="20" y="224"/>
      <point x="64" y="85"/>
      <point x="179" y="85" type="curve" smooth="yes"/>
      <point x="307" y="85"/>
      <point x="374" y="268"/>
    </contour>
    <contour>
      <point x="182" y="575" type="curve"/>
      <point x="254" y="562"/>
      <point x="286" y="489"/>
      <point x="286" y="421" type="curve" smooth="yes"/>
      <point x="286" y="355"/>
      <point x="250" y="211"/>
      <point x="187" y="211" type="curve" smooth="yes"/>
      <point x="154" y="211"/>
      <point x="143" y="291"/>
      <point x="143" y="329" type="curve" smooth="yes"/>
      <point x="143" y="408"/>
      <point x="153" y="514"/>
    </contour>
  </outline>
</glyph>
<glyph name="one" format="1">
  <advance width="193"/>
  <unicode hex="0031"/>
  <outline>
    <contour>
      <point x="136" y="557" type="curve" smooth="yes"/>
      <point x="134" y="588"/>
      <point x="128" y="647"/>
      <point x="84" y="647" type="curve" smooth="yes"/>
      <point x="42" y="647"/>
      <point x="40" y="604"/>
      <point x="40" y="566" type="curve" smooth="yes"/>
      <point x="40" y="522"/>
      <point x="43" y="488"/>
      <point x="44" y="456" type="curve" smooth="yes"/>
      <point x="46" y="348"/>
      <point x="56" y="50"/>
      <point x="109" y="50" type="curve" smooth="yes"/>
      <point x="142" y="50"/>
      <point x="140" y="114"/>
      <point x="145" y="149" type="curve" smooth="yes"/>
      <point x="151" y="197"/>
      <point x="153" y="245"/>
      <point x="153" y="292" type="curve" smooth="yes"/>
      <point x="153" y="380"/>
      <point x="144" y="468"/>
    </contour>
  </outline>
</glyph>
<glyph name="two" format="1">
  <advance width="456"/>
  <unicode hex="0032"/>
  <outline>
    <contour>
      <point x="261" y="554" type="curve" smooth="yes"/>
      <point x="261" y="597"/>
      <point x="238" y="648"/>
      <point x="182" y="648" type="curve" smooth="yes"/>
      <point x="132" y="648"/>
      <point x="10" y="599"/>
      <point x="10" y="526" type="curve" smooth="yes"/>
      <point x="10" y="505"/>
      <point x="25" y="490"/>
      <point x="43" y="490" type="curve" smooth="yes"/>
      <point x="49" y="490"/>
      <point x="56" y="492"/>
      <point x="61" y="497" type="curve"/>
      <point x="96" y="527"/>
      <point x="115" y="561"/>
      <point x="177" y="567" type="curve"/>
      <point x="177" y="523"/>
      <point x="164" y="485"/>
      <point x="150" y="445" type="curve" smooth="yes"/>
      <point x="120" y="361"/>
      <point x="80" y="280"/>
      <point x="51" y="196" type="curve" smooth="yes"/>
      <point x="45" y="180"/>
      <point x="39" y="162"/>
      <point x="39" y="146" type="curve" smooth="yes"/>
      <point x="39" y="101"/>
      <point x="79" y="84"/>
      <point x="118" y="84" type="curve" smooth="yes"/>
      <point x="155" y="84"/>
      <point x="193" y="90"/>
      <point x="238" y="99" type="curve" smooth="yes"/>
      <point x="312" y="113"/>
      <point x="446" y="123"/>
      <point x="446" y="188" type="curve" smooth="yes"/>
      <point x="446" y="222"/>
      <point x="409" y="228"/>
      <point x="377" y="228" type="curve" smooth="yes"/>
      <point x="297" y="228"/>
      <point x="217" y="197"/>
      <point x="138" y="183" type="curve"/>
      <point x="174" y="283"/>
      <point x="224" y="381"/>
      <point x="252" y="487" type="curve" smooth="yes"/>
      <point x="258" y="508"/>
      <point x="261" y="531"/>
    </contour>
  </outline>
</glyph>
<glyph name="three" format="1">
  <advance width="407"/>
  <unicode hex="0033"/>
  <outline>
    <contour>
      <point x="281" y="652" type="curve" smooth="yes"/>
      <point x="240" y="652"/>
      <point x="76" y="628"/>
      <point x="76" y="563" type="curve" smooth="yes"/>
      <point x="76" y="542"/>
      <point x="89" y="525"/>
      <point x="109" y="525" type="curve" smooth="yes"/>
      <point x="122" y="525"/>
      <point x="136" y="532"/>
      <point x="148" y="538" type="curve" smooth="yes"/>
      <point x="188" y="557"/>
      <point x="232" y="568"/>
      <point x="277" y="572" type="curve"/>
      <point x="247" y="507"/>
      <point x="200" y="450"/>
      <point x="147" y="397" type="curve" smooth="yes"/>
      <point x="137" y="387"/>
      <point x="126" y="376"/>
      <point x="126" y="362" type="curve" smooth="yes"/>
      <point x="126" y="346"/>
      <point x="135" y="333"/>
      <point x="150" y="333" type="curve" smooth="yes"/>
      <point x="185" y="333"/>
      <point x="208" y="355"/>
      <point x="248" y="355" type="curve" smooth="yes"/>
      <point x="273" y="355"/>
      <point x="307" y="349"/>
      <point x="309" y="320" type="curve"/>
      <point x="309" y="260"/>
      <point x="208" y="148"/>
      <point x="122" y="148" type="curve" smooth="yes"/>
      <point x="83" y="148"/>
      <point x="55" y="184"/>
      <point x="36" y="184" type="curve" smooth="yes"/>
      <point x="24" y="184"/>
      <point x="10" y="173"/>
      <point x="10" y="163" type="curve" smooth="yes"/>
      <point x="10" y="108"/>
      <point x="94" y="65"/>
      <point x="154" y="65" type="curve" smooth="yes"/>
      <point x="257" y="65"/>
      <point x="387" y="198"/>
      <point x="387" y="308" type="curve" smooth="yes"/>
      <point x="387" y="390"/>
      <point x="329" y="415"/>
      <point x="261" y="424" type="curve"/>
      <point x="299" y="472"/>
      <point x="356" y="535"/>
      <point x="356" y="590" type="curve" smooth="yes"/>
      <point x="356" y="630"/>
      <point x="323" y="652"/>
    </contour>
  </outline>
</glyph>
<glyph name="four" format="1">
  <advance width="444"/>
  <unicode hex="0034"/>
  <outline>
    <contour>
      <point x="266" y="602" type="curve"/>
      <point x="261" y="611"/>
      <point x="251" y="615"/>
      <point x="242" y="615" type="curve" smooth="yes"/>
      <point x="216" y="615"/>
      <point x="197" y="580"/>
      <point x="180" y="562" type="curve" smooth="yes"/>
      <point x="120" y="498"/>
      <point x="5" y="407"/>
      <point x="5" y="347" type="curve" smooth="yes"/>
      <point x="5" y="320"/>
      <point x="24" y="302"/>
      <point x="56" y="302" type="curve" smooth="yes"/>
      <point x="106" y="302"/>
      <point x="155" y="319"/>
      <point x="206" y="325" type="curve"/>
      <point x="207" y="276"/>
      <point x="209" y="227"/>
      <point x="215" y="179" type="curve" smooth="yes"/>
      <point x="221" y="135"/>
      <point x="214" y="43"/>
      <point x="268" y="43" type="curve" smooth="yes"/>
      <point x="286" y="43"/>
      <point x="306" y="56"/>
      <point x="307" y="77" type="curve" smooth="yes"/>
      <point x="310" y="140"/>
      <point x="314" y="203"/>
      <point x="314" y="266" type="curve" smooth="yes"/>
      <point x="314" y="320"/>
      <point x="314" y="334"/>
      <point x="315" y="348" type="curve"/>
      <point x="359" y="360"/>
      <point x="430" y="362"/>
      <point x="439" y="395" type="curve"/>
      <point x="433" y="418"/>
      <point x="416" y="418"/>
      <point x="393" y="418" type="curve" smooth="yes"/>
      <point x="365" y="418"/>
      <point x="337" y="414"/>
      <point x="309" y="414" type="curve"/>
      <point x="302" y="480"/>
      <point x="295" y="541"/>
    </contour>
    <contour>
      <point x="213" y="461" type="line" smooth="yes"/>
      <point x="213" y="440"/>
      <point x="213" y="420"/>
      <point x="211" y="399" type="curve"/>
      <point x="175" y="390"/>
      <point x="139" y="385"/>
      <point x="103" y="378" type="curve"/>
      <point x="138" y="419"/>
      <point x="174" y="460"/>
      <point x="213" y="497" type="curve"/>
    </contour>
  </outline>
</glyph>
<glyph name="five" format="1">
  <advance width="445"/>
  <unicode hex="0035"/>
  <outline>
    <contour>
      <point x="318" y="645" type="curve" smooth="yes"/>
      <point x="285" y="644"/>
      <point x="252" y="630"/>
      <point x="219" y="625" type="curve"/>
      <point x="183" y="617"/>
      <point x="141" y="616"/>
      <point x="108" y="599" type="curve" smooth="yes"/>
      <point x="81" y="584"/>
      <point x="70" y="557"/>
      <point x="63" y="529" type="curve" smooth="yes"/>
      <point x="50" y="477"/>
      <point x="29" y="417"/>
      <point x="29" y="365" type="curve" smooth="yes"/>
      <point x="29" y="332"/>
      <point x="46" y="309"/>
      <point x="74" y="309" type="curve" smooth="yes"/>
      <point x="93" y="309"/>
      <point x="119" y="328"/>
      <point x="124" y="331" type="curve"/>
      <point x="157" y="353"/>
      <point x="208" y="368"/>
      <point x="255" y="368" type="curve" smooth="yes"/>
      <point x="287" y="368"/>
      <point x="329" y="359"/>
      <point x="329" y="316" type="curve" smooth="yes"/>
      <point x="329" y="260"/>
      <point x="278" y="214"/>
      <point x="232" y="187" type="curve" smooth="yes"/>
      <point x="199" y="168"/>
      <point x="150" y="141"/>
      <point x="113" y="141" type="curve" smooth="yes"/>
      <point x="96" y="141"/>
      <point x="79" y="159"/>
      <point x="62" y="159" type="curve" smooth="yes"/>
      <point x="36" y="159"/>
      <point x="20" y="130"/>
      <point x="20" y="109" type="curve" smooth="yes"/>
      <point x="20" y="62"/>
      <point x="73" y="50"/>
      <point x="109" y="50" type="curve" smooth="yes"/>
      <point x="183" y="50"/>
      <point x="256" y="62"/>
      <point x="317" y="108" type="curve" smooth="yes"/>
      <point x="377" y="154"/>
      <point x="425" y="226"/>
      <point x="425" y="303" type="curve" smooth="yes"/>
      <point x="425" y="392"/>
      <point x="359" y="450"/>
      <point x="266" y="450" type="curve" smooth="yes"/>
      <point x="215" y="450"/>
      <point x="173" y="440"/>
      <point x="127" y="423" type="curve"/>
      <point x="130" y="458"/>
      <point x="133" y="494"/>
      <point x="145" y="527" type="curve" smooth="yes"/>
      <point x="148" y="536"/>
      <point x="159" y="537"/>
      <point x="167" y="540" type="curve"/>
      <point x="227" y="553"/>
      <point x="346" y="560"/>
      <point x="346" y="618" type="curve" smooth="yes"/>
      <point x="346" y="630"/>
      <point x="330" y="645"/>
    </contour>
  </outline>
</glyph>
<glyph name="six" format="1">
  <advance width="428"/>
  <unicode hex="0036"/>
  <outline>
    <contour>
      <point x="57" y="643" type="curve" smooth="yes"/>
      <point x="25" y="643"/>
      <point x="20" y="593"/>
      <point x="20" y="541" type="curve" smooth="yes"/>
      <point x="20" y="409"/>
      <point x="21" y="60"/>
      <point x="221" y="60" type="curve" smooth="yes"/>
      <point x="342" y="60"/>
      <point x="408" y="208"/>
      <point x="408" y="318" type="curve" smooth="yes"/>
      <point x="408" y="374"/>
      <point x="390" y="452"/>
      <point x="334" y="452" type="curve" smooth="yes"/>
      <point x="245" y="452"/>
      <point x="209" y="289"/>
      <point x="186" y="178" type="curve"/>
      <point x="117" y="250"/>
      <point x="105" y="414"/>
      <point x="96" y="532" type="curve" smooth="yes"/>
      <point x="93" y="569"/>
      <point x="95" y="643"/>
    </contour>
    <contour>
      <point x="331" y="389" type="curve"/>
      <point x="339" y="373"/>
      <point x="343" y="355"/>
      <point x="343" y="337" type="curve" smooth="yes"/>
      <point x="343" y="269"/>
      <point x="306" y="182"/>
      <point x="237" y="155" type="curve"/>
      <point x="248" y="209"/>
      <point x="285" y="358"/>
    </contour>
  </outline>
</glyph>
<glyph name="seven" format="1">
  <advance width="417"/>
  <unicode hex="0037"/>
  <outline>
    <contour>
      <point x="328" y="558" type="curve" smooth="yes"/>
      <point x="328" y="585"/>
      <point x="327" y="647"/>
      <point x="282" y="647" type="curve" smooth="yes"/>
      <point x="262" y="647"/>
      <point x="239" y="634"/>
      <point x="220" y="628" type="curve" smooth="yes"/>
      <point x="171" y="612"/>
      <point x="112" y="601"/>
      <point x="58" y="601" type="curve"/>
      <point x="39" y="599"/>
      <point x="10" y="596"/>
      <point x="10" y="570" type="curve" smooth="yes"/>
      <point x="10" y="547"/>
      <point x="33" y="544"/>
      <point x="51" y="544" type="curve" smooth="yes"/>
      <point x="127" y="544"/>
      <point x="184" y="558"/>
      <point x="244" y="569" type="curve"/>
      <point x="233" y="504"/>
      <point x="221" y="440"/>
      <point x="214" y="375" type="curve"/>
      <point x="154" y="365"/>
      <point x="34" y="365"/>
      <point x="34" y="317" type="curve" smooth="yes"/>
      <point x="34" y="300"/>
      <point x="43" y="290"/>
      <point x="66" y="290" type="curve" smooth="yes"/>
      <point x="111" y="290"/>
      <point x="158" y="303"/>
      <point x="204" y="304" type="curve"/>
      <point x="204" y="231" type="line" smooth="yes"/>
      <point x="204" y="182"/>
      <point x="217" y="134"/>
      <point x="221" y="85" type="curve" smooth="yes"/>
      <point x="223" y="66"/>
      <point x="227" y="44"/>
      <point x="254" y="44" type="curve" smooth="yes"/>
      <point x="283" y="44"/>
      <point x="284" y="81"/>
      <point x="288" y="103" type="curve" smooth="yes"/>
      <point x="294" y="139"/>
      <point x="301" y="174"/>
      <point x="306" y="210" type="curve" smooth="yes"/>
      <point x="310" y="246"/>
      <point x="310" y="281"/>
      <point x="316" y="317" type="curve"/>
      <point x="344" y="324"/>
      <point x="407" y="319"/>
      <point x="407" y="348" type="curve" smooth="yes"/>
      <point x="407" y="382"/>
      <point x="350" y="372"/>
      <point x="323" y="376" type="curve"/>
      <point x="322" y="384"/>
      <point x="322" y="393"/>
      <point x="322" y="401" type="curve" smooth="yes"/>
      <point x="322" y="449"/>
      <point x="328" y="496"/>
    </contour>
  </outline>
</glyph>
<glyph name="eight" format="1">
  <advance width="410"/>
  <unicode hex="0038"/>
  <outline>
    <contour>
      <point x="346" y="572" type="curve"/>
      <point x="317" y="622"/>
      <point x="274" y="647"/>
      <point x="206" y="647" type="curve" smooth="yes"/>
      <point x="121" y="647"/>
      <point x="10" y="592"/>
      <point x="10" y="505" type="curve" smooth="yes"/>
      <point x="10" y="422"/>
      <point x="88" y="371"/>
      <point x="143" y="311" type="curve"/>
      <point x="115" y="263"/>
      <point x="78" y="214"/>
      <point x="78" y="157" type="curve" smooth="yes"/>
      <point x="78" y="104"/>
      <point x="120" y="76"/>
      <point x="163" y="76" type="curve" smooth="yes"/>
      <point x="229" y="76"/>
      <point x="302" y="125"/>
      <point x="302" y="198" type="curve" smooth="yes"/>
      <point x="302" y="253"/>
      <point x="267" y="287"/>
      <point x="242" y="325" type="curve"/>
      <point x="288" y="394"/>
      <point x="354" y="457"/>
      <point x="395" y="531" type="curve"/>
      <point x="398" y="538"/>
      <point x="400" y="545"/>
      <point x="400" y="552" type="curve" smooth="yes"/>
      <point x="400" y="564"/>
      <point x="395" y="574"/>
      <point x="375" y="574" type="curve" smooth="yes"/>
      <point x="366" y="574"/>
      <point x="357" y="572"/>
    </contour>
    <contour>
      <point x="198" y="562" type="curve" smooth="yes"/>
      <point x="243" y="562"/>
      <point x="270" y="541"/>
      <point x="290" y="504" type="curve"/>
      <point x="260" y="461"/>
      <point x="225" y="419"/>
      <point x="192" y="378" type="curve"/>
      <point x="167" y="397"/>
      <point x="88" y="460"/>
      <point x="88" y="502" type="curve" smooth="yes"/>
      <point x="88" y="541"/>
      <point x="161" y="562"/>
    </contour>
    <contour>
      <point x="189" y="255" type="curve"/>
      <point x="202" y="240"/>
      <point x="215" y="220"/>
      <point x="215" y="199" type="curve" smooth="yes"/>
      <point x="215" y="163"/>
      <point x="173" y="152"/>
      <point x="146" y="151" type="curve"/>
      <point x="146" y="207"/>
      <point x="168" y="226"/>
    </contour>
  </outline>
</glyph>
<glyph name="nine" format="1">
  <advance width="395"/>
  <unicode hex="0039"/>
  <outline>
    <contour>
      <point x="325" y="654" type="curve"/>
      <point x="304" y="682"/>
      <point x="270" y="694"/>
      <point x="236" y="694" type="curve" smooth="yes"/>
      <point x="139" y="694"/>
      <point x="10" y="571"/>
      <point x="10" y="469" type="curve" smooth="yes"/>
      <point x="10" y="427"/>
      <point x="44" y="391"/>
      <point x="93" y="391" type="curve" smooth="yes"/>
      <point x="158" y="391"/>
      <point x="215" y="429"/>
      <point x="268" y="467" type="curve"/>
      <point x="268" y="431"/>
      <point x="263" y="396"/>
      <point x="260" y="360" type="curve" smooth="yes"/>
      <point x="255" y="307"/>
      <point x="253" y="253"/>
      <point x="253" y="199" type="curve" smooth="yes"/>
      <point x="253" y="148"/>
      <point x="253" y="97"/>
      <point x="261" y="44" type="curve" smooth="yes"/>
      <point x="264" y="22"/>
      <point x="273" y="-8"/>
      <point x="302" y="-8" type="curve" smooth="yes"/>
      <point x="335" y="-8"/>
      <point x="344" y="24"/>
      <point x="346" y="53" type="curve" smooth="yes"/>
      <point x="351" y="104"/>
      <point x="363" y="153"/>
      <point x="366" y="203" type="curve" smooth="yes"/>
      <point x="370" y="259"/>
      <point x="375" y="315"/>
      <point x="375" y="370" type="curve"/>
      <point x="374" y="433"/>
      <point x="377" y="487"/>
      <point x="366" y="535" type="curve"/>
      <point x="362" y="558"/>
      <point x="344" y="570"/>
      <point x="336" y="591" type="curve" smooth="yes"/>
      <point x="334" y="596"/>
      <point x="334" y="602"/>
      <point x="334" y="608" type="curve" smooth="yes"/>
      <point x="334" y="619" type="line" smooth="yes"/>
      <point x="334" y="631"/>
      <point x="334" y="644"/>
    </contour>
    <contour>
      <point x="233" y="610" type="curve" smooth="yes"/>
      <point x="257" y="610"/>
      <point x="270" y="596"/>
      <point x="276" y="588" type="curve"/>
      <point x="233" y="532"/>
      <point x="168" y="471"/>
      <point x="93" y="467" type="curve"/>
      <point x="96" y="505"/>
      <point x="122" y="539"/>
      <point x="148" y="565" type="curve" smooth="yes"/>
      <point x="170" y="587"/>
      <point x="201" y="610"/>
    </contour>
  </outline>
</glyph>
<glyph name="colon" format="1">
  <advance width="205"/>
  <unicode hex="003A"/>
  <outline>
    <contour>
      <point x="124" y="452" type="curve" smooth="yes"/>
      <point x="91" y="452"/>
      <point x="60" y="428"/>
      <point x="60" y="391" type="curve" smooth="yes"/>
      <point x="60" y="353"/>
      <point x="90" y="330"/>
      <point x="121" y="330" type="curve" smooth="yes"/>
      <point x="159" y="330"/>
      <point x="185" y="361"/>
      <point x="185" y="395" type="curve" smooth="yes"/>
      <point x="185" y="432"/>
      <point x="154" y="452"/>
    </contour>
    <contour>
      <point x="132" y="116" type="curve" smooth="yes"/>
      <point x="101" y="116"/>
      <point x="71" y="96"/>
      <point x="71" y="61" type="curve" smooth="yes"/>
      <point x="71" y="29"/>
      <point x="93" y="8"/>
      <point x="121" y="8" type="curve" smooth="yes"/>
      <point x="156" y="8"/>
      <point x="185" y="31"/>
      <point x="185" y="66" type="curve" smooth="yes"/>
      <point x="185" y="97"/>
      <point x="159" y="116"/>
    </contour>
  </outline>
</glyph>
<glyph name="semicolon" format="1">
  <advance width="175"/>
  <unicode hex="003B"/>
  <outline>
    <contour>
      <point x="101" y="491" type="curve" smooth="yes"/>
      <point x="75" y="491"/>
      <point x="50" y="477"/>
      <point x="50" y="446" type="curve" smooth="yes"/>
      <point x="50" y="414"/>
      <point x="76" y="397"/>
      <point x="103" y="397" type="curve" smooth="yes"/>
      <point x="125" y="397"/>
      <point x="151" y="412"/>
      <point x="151" y="442" type="curve" smooth="yes"/>
      <point x="151" y="469"/>
      <point x="132" y="491"/>
    </contour>
    <contour>
      <point x="163" y="90" type="curve" smooth="yes"/>
      <point x="163" y="116"/>
      <point x="150" y="162"/>
      <point x="112" y="162" type="curve" smooth="yes"/>
      <point x="90" y="162"/>
      <point x="76" y="148"/>
      <point x="76" y="122" type="curve" smooth="yes"/>
      <point x="76" y="103"/>
      <point x="80" y="82"/>
      <point x="80" y="63" type="curve" smooth="yes"/>
      <point x="80" y="34"/>
      <point x="60" y="-6"/>
      <point x="60" y="-24" type="curve" smooth="yes"/>
      <point x="60" y="-36"/>
      <point x="73" y="-41"/>
      <point x="89" y="-41" type="curve" smooth="yes"/>
      <point x="139" y="-41"/>
      <point x="163" y="42"/>
    </contour>
  </outline>
</glyph>
<glyph name="equal" format="1">
  <advance width="453"/>
  <unicode hex="003D"/>
  <outline>
    <contour>
      <point x="350" y="330" type="curve" smooth="yes"/>
      <point x="314" y="330"/>
      <point x="278" y="325"/>
      <point x="210" y="325" type="curve" smooth="yes"/>
      <point x="163" y="325" type="line" smooth="yes"/>
      <point x="69" y="325"/>
      <point x="24" y="322"/>
      <point x="24" y="281" type="curve" smooth="yes"/>
      <point x="24" y="249"/>
      <point x="58" y="241"/>
      <point x="87" y="239" type="curve"/>
      <point x="186" y="239"/>
      <point x="114" y="234"/>
      <point x="256" y="234" type="curve" smooth="yes"/>
      <point x="322" y="234"/>
      <point x="426" y="239"/>
      <point x="426" y="287" type="curve" smooth="yes"/>
      <point x="426" y="323"/>
      <point x="380" y="330"/>
    </contour>
    <contour>
      <point x="315" y="526" type="curve" smooth="yes"/>
      <point x="279" y="526"/>
      <point x="278" y="530"/>
      <point x="210" y="530" type="curve" smooth="yes"/>
      <point x="163" y="530" type="line" smooth="yes"/>
      <point x="69" y="530"/>
      <point x="24" y="527"/>
      <point x="24" y="486" type="curve" smooth="yes"/>
      <point x="24" y="454"/>
      <point x="58" y="446"/>
      <point x="87" y="444" type="curve" smooth="yes"/>
      <point x="133" y="441"/>
      <point x="166" y="435"/>
      <point x="221" y="430" type="curve" smooth="yes"/>
      <point x="233" y="429"/>
      <point x="245" y="429"/>
      <point x="257" y="429" type="curve" smooth="yes"/>
      <point x="322" y="429"/>
      <point x="391" y="443"/>
      <point x="391" y="483" type="curve" smooth="yes"/>
      <point x="391" y="519"/>
      <point x="345" y="526"/>
    </contour>
  </outline>
</glyph>
<glyph name="question" format="1">
  <advance width="268"/>
  <unicode hex="003F"/>
  <outline>
    <contour>
      <point x="254" y="600" type="curve" smooth="yes"/>
      <point x="254" y="641"/>
      <point x="224" y="676"/>
      <point x="179" y="676" type="curve" smooth="yes"/>
      <point x="153" y="676"/>
      <point x="19" y="649"/>
      <point x="19" y="579" type="curve" smooth="yes"/>
      <point x="19" y="564"/>
      <point x="28" y="551"/>
      <point x="42" y="551" type="curve" smooth="yes"/>
      <point x="60" y="551"/>
      <point x="85" y="572"/>
      <point x="105" y="580" type="curve" smooth="yes"/>
      <point x="124" y="587"/>
      <point x="141" y="589"/>
      <point x="162" y="590" type="curve"/>
      <point x="143" y="507"/>
      <point x="78" y="433"/>
      <point x="77" y="339" type="curve" smooth="yes"/>
      <point x="77" y="295"/>
      <point x="90" y="216"/>
      <point x="132" y="216" type="curve" smooth="yes"/>
      <point x="145" y="216"/>
      <point x="154" y="227"/>
      <point x="154" y="240" type="curve" smooth="yes"/>
      <point x="154" y="256"/>
      <point x="152" y="267"/>
      <point x="152" y="280" type="curve" smooth="yes"/>
      <point x="152" y="318"/>
      <point x="163" y="354"/>
      <point x="174" y="391" type="curve" smooth="yes"/>
      <point x="198" y="466"/>
      <point x="254" y="537"/>
    </contour>
    <contour>
      <point x="107" y="118" type="curve" smooth="yes"/>
      <point x="82" y="118"/>
      <point x="60" y="98"/>
      <point x="60" y="71" type="curve" smooth="yes"/>
      <point x="60" y="43"/>
      <point x="85" y="24"/>
      <point x="108" y="24" type="curve" smooth="yes"/>
      <point x="134" y="24"/>
      <point x="156" y="44"/>
      <point x="156" y="70" type="curve" smooth="yes"/>
      <point x="156" y="96"/>
      <point x="130" y="118"/>
    </contour>
  </outline>
</glyph>
<glyph name="at" format="1">
  <advance width="719"/>
  <unicode hex="0040"/>
  <outline>
    <contour>
      <point x="471" y="182" type="curve" smooth="yes"/>
      <point x="471" y="213"/>
      <point x="471" y="282"/>
      <point x="498" y="350" type="curve" smooth="yes"/>
      <point x="508" y="373"/>
      <point x="524" y="396"/>
      <point x="524" y="421" type="curve" smooth="yes"/>
      <point x="524" y="476"/>
      <point x="447" y="504"/>
      <point x="403" y="504" type="curve" smooth="yes"/>
      <point x="306" y="504"/>
      <point x="173" y="407"/>
      <point x="173" y="265" type="curve" smooth="yes"/>
      <point x="173" y="223"/>
      <point x="207" y="187"/>
      <point x="256" y="187" type="curve" smooth="yes"/>
      <point x="321" y="187"/>
      <point x="378" y="225"/>
      <point x="431" y="263" type="curve"/>
      <point x="422" y="242"/>
      <point x="412" y="208"/>
      <point x="412" y="175" type="curve" smooth="yes"/>
      <point x="412" y="131"/>
      <point x="429" y="90"/>
      <point x="486" y="90" type="curve" smooth="yes"/>
      <point x="579" y="90"/>
      <point x="648" y="170"/>
      <point x="671" y="245" type="curve" smooth="yes"/>
      <point x="684" y="288"/>
      <point x="691" y="316"/>
      <point x="691" y="352" type="curve" smooth="yes"/>
      <point x="691" y="535"/>
      <point x="535" y="670"/>
      <point x="404" y="670" type="curve" smooth="yes"/>
      <point x="207" y="670"/>
      <point x="27" y="520"/>
      <point x="27" y="331" type="curve" smooth="yes"/>
      <point x="27" y="169"/>
      <point x="139" y="57"/>
      <point x="237" y="57" type="curve" smooth="yes"/>
      <point x="257" y="57"/>
      <point x="325" y="66"/>
      <point x="325" y="91" type="curve" smooth="yes"/>
      <point x="325" y="109"/>
      <point x="313" y="128"/>
      <point x="294" y="128" type="curve" smooth="yes"/>
      <point x="275" y="128"/>
      <point x="262" y="127"/>
      <point x="241" y="127" type="curve" smooth="yes"/>
      <point x="181" y="127"/>
      <point x="112" y="232"/>
      <point x="112" y="325" type="curve" smooth="yes"/>
      <point x="112" y="456"/>
      <point x="275" y="583"/>
      <point x="412" y="583" type="curve" smooth="yes"/>
      <point x="540" y="583"/>
      <point x="605" y="439"/>
      <point x="605" y="339" type="curve" smooth="yes"/>
      <point x="605" y="281"/>
      <point x="570" y="156"/>
      <point x="505" y="156" type="curve" smooth="yes"/>
      <point x="485" y="156"/>
      <point x="471" y="163"/>
    </contour>
    <contour>
      <point x="396" y="437" type="curve" smooth="yes"/>
      <point x="420" y="437"/>
      <point x="433" y="423"/>
      <point x="439" y="415" type="curve"/>
      <point x="402" y="367"/>
      <point x="310" y="255"/>
      <point x="271" y="255" type="curve" smooth="yes"/>
      <point x="256" y="255"/>
      <point x="250" y="271"/>
      <point x="250" y="283" type="curve" smooth="yes"/>
      <point x="250" y="313"/>
      <point x="290" y="371"/>
      <point x="311" y="392" type="curve" smooth="yes"/>
      <point x="333" y="414"/>
      <point x="364" y="437"/>
    </contour>
  </outline>
</glyph>
<glyph name="A" format="1">
  <advance width="401"/>
  <unicode hex="0041"/>
  <outline>
    <contour>
      <point x="223" y="579" type="curve" smooth="yes"/>
      <point x="144" y="579"/>
      <point x="107" y="444"/>
      <point x="86" y="385" type="curve" smooth="yes"/>
      <point x="62" y="317"/>
      <point x="37" y="249"/>
      <point x="17" y="179" type="curve" smooth="yes"/>
      <point x="13" y="167"/>
      <point x="10" y="151"/>
      <point x="10" y="136" type="curve" smooth="yes"/>
      <point x="10" y="112"/>
      <point x="24" y="101"/>
      <point x="39" y="101" type="curve" smooth="yes"/>
      <point x="82" y="101"/>
      <point x="105" y="212"/>
      <point x="129" y="261" type="curve"/>
      <point x="143" y="261" type="line" smooth="yes"/>
      <point x="181" y="261"/>
      <point x="218" y="267"/>
      <point x="256" y="270" type="curve"/>
      <point x="278" y="202"/>
      <point x="316" y="66"/>
      <point x="360" y="66" type="curve" smooth="yes"/>
      <point x="387" y="66"/>
      <point x="391" y="90"/>
      <point x="391" y="112" type="curve" smooth="yes"/>
      <point x="391" y="132"/>
      <point x="389" y="152"/>
      <point x="385" y="173" type="curve" smooth="yes"/>
      <point x="361" y="314"/>
      <point x="340" y="579"/>
    </contour>
    <contour>
      <point x="209" y="469" type="curve"/>
      <point x="221" y="420"/>
      <point x="233" y="371"/>
      <point x="242" y="321" type="curve"/>
      <point x="210" y="316"/>
      <point x="179" y="316"/>
      <point x="147" y="316" type="curve"/>
      <point x="162" y="368"/>
      <point x="181" y="422"/>
    </contour>
  </outline>
</glyph>
<glyph name="B" format="1">
  <advance width="382"/>
  <unicode hex="0042"/>
  <outline>
    <contour>
      <point x="239" y="645" type="curve" smooth="yes"/>
      <point x="197" y="645"/>
      <point x="158" y="626"/>
      <point x="114" y="610" type="curve"/>
      <point x="101" y="622"/>
      <point x="90" y="637"/>
      <point x="72" y="637" type="curve" smooth="yes"/>
      <point x="34" y="637"/>
      <point x="34" y="563"/>
      <point x="34" y="492" type="curve" smooth="yes"/>
      <point x="34" y="474"/>
      <point x="34" y="456"/>
      <point x="33" y="440" type="curve" smooth="yes"/>
      <point x="34" y="340"/>
      <point x="41" y="234"/>
      <point x="64" y="141" type="curve" smooth="yes"/>
      <point x="69" y="120"/>
      <point x="81" y="107"/>
      <point x="92" y="90" type="curve"/>
      <point x="74" y="96"/>
      <point x="54" y="119"/>
      <point x="41" y="119" type="curve" smooth="yes"/>
      <point x="36" y="119"/>
      <point x="30" y="114"/>
      <point x="30" y="107" type="curve" smooth="yes"/>
      <point x="30" y="72"/>
      <point x="50" y="42"/>
      <point x="90" y="42" type="curve" smooth="yes"/>
      <point x="133" y="42"/>
      <point x="176" y="62"/>
      <point x="213" y="81" type="curve" smooth="yes"/>
      <point x="291" y="121"/>
      <point x="362" y="193"/>
      <point x="362" y="283" type="curve" smooth="yes"/>
      <point x="362" y="361"/>
      <point x="320" y="387"/>
      <point x="220" y="387" type="curve"/>
      <point x="257" y="443"/>
      <point x="312" y="507"/>
      <point x="312" y="577" type="curve" smooth="yes"/>
      <point x="312" y="621"/>
      <point x="279" y="645"/>
    </contour>
    <contour>
      <point x="239" y="583" type="curve" smooth="yes"/>
      <point x="250" y="583"/>
      <point x="258" y="579"/>
      <point x="258" y="565" type="curve" smooth="yes"/>
      <point x="258" y="518"/>
      <point x="181" y="407"/>
      <point x="138" y="373" type="curve"/>
      <point x="132" y="414"/>
      <point x="135" y="455"/>
      <point x="130" y="495" type="curve" smooth="yes"/>
      <point x="128" y="514"/>
      <point x="126" y="533"/>
      <point x="126" y="553" type="curve"/>
      <point x="160" y="566"/>
      <point x="196" y="583"/>
    </contour>
    <contour>
      <point x="242" y="319" type="curve"/>
      <point x="273" y="317"/>
      <point x="285" y="312"/>
      <point x="285" y="287" type="curve" smooth="yes"/>
      <point x="285" y="218"/>
      <point x="202" y="147"/>
      <point x="136" y="117" type="curve"/>
      <point x="135" y="152"/>
      <point x="133" y="187"/>
      <point x="133" y="222" type="curve" smooth="yes"/>
      <point x="133" y="250"/>
      <point x="134" y="277"/>
      <point x="138" y="304" type="curve"/>
      <point x="171" y="310"/>
      <point x="208" y="319"/>
    </contour>
  </outline>
</glyph>
<glyph name="C" format="1">
  <advance width="379"/>
  <unicode hex="0043"/>
  <outline>
    <contour>
      <point x="165" y="583" type="curve" smooth="yes"/>
      <point x="61" y="583"/>
      <point x="20" y="373"/>
      <point x="20" y="260" type="curve" smooth="yes"/>
      <point x="20" y="171"/>
      <point x="46" y="0"/>
      <point x="173" y="0" type="curve" smooth="yes"/>
      <point x="272" y="0"/>
      <point x="369" y="98"/>
      <point x="369" y="191" type="curve" smooth="yes"/>
      <point x="369" y="211"/>
      <point x="368" y="234"/>
      <point x="345" y="234" type="curve" smooth="yes"/>
      <point x="317" y="234"/>
      <point x="308" y="175"/>
      <point x="287" y="149" type="curve" smooth="yes"/>
      <point x="264" y="120"/>
      <point x="227" y="96"/>
      <point x="190" y="96" type="curve" smooth="yes"/>
      <point x="130" y="96"/>
      <point x="125" y="216"/>
      <point x="125" y="261" type="curve" smooth="yes"/>
      <point x="125" y="333"/>
      <point x="137" y="441"/>
      <point x="172" y="481" type="curve"/>
      <point x="192" y="496"/>
      <point x="222" y="494"/>
      <point x="222" y="531" type="curve" smooth="yes"/>
      <point x="222" y="559"/>
      <point x="199" y="583"/>
    </contour>
  </outline>
</glyph>
<glyph name="D" format="1">
  <advance width="384"/>
  <unicode hex="0044"/>
  <outline>
    <contour>
      <point x="71" y="605" type="curve"/>
      <point x="44" y="605"/>
      <point x="20" y="580"/>
      <point x="20" y="553" type="curve" smooth="yes"/>
      <point x="20" y="536"/>
      <point x="21" y="518"/>
      <point x="21" y="501" type="curve" smooth="yes"/>
      <point x="21" y="473"/>
      <point x="20" y="445"/>
      <point x="20" y="417" type="curve" smooth="yes"/>
      <point x="20" y="370"/>
      <point x="21" y="324"/>
      <point x="30" y="277" type="curve" smooth="yes"/>
      <point x="44" y="198"/>
      <point x="58" y="40"/>
      <point x="109" y="40" type="curve" smooth="yes"/>
      <point x="125" y="40"/>
      <point x="140" y="57"/>
      <point x="153" y="62" type="curve" smooth="yes"/>
      <point x="176" y="71"/>
      <point x="199" y="75"/>
      <point x="220" y="87" type="curve" smooth="yes"/>
      <point x="298" y="133"/>
      <point x="364" y="201"/>
      <point x="364" y="306" type="curve" smooth="yes"/>
      <point x="364" y="463"/>
      <point x="231" y="598"/>
    </contour>
    <contour>
      <point x="133" y="505" type="curve"/>
      <point x="196" y="461"/>
      <point x="254" y="380"/>
      <point x="254" y="302" type="curve" smooth="yes"/>
      <point x="254" y="226"/>
      <point x="205" y="168"/>
      <point x="146" y="130" type="curve"/>
      <point x="146" y="190"/>
      <point x="153" y="249"/>
      <point x="153" y="310" type="curve" smooth="yes"/>
      <point x="153" y="376"/>
      <point x="142" y="439"/>
    </contour>
  </outline>
</glyph>
<glyph name="E" format="1">
  <advance width="407"/>
  <unicode hex="0045"/>
  <outline>
    <contour>
      <point x="345" y="553" type="curve" smooth="yes"/>
      <point x="345" y="566"/>
      <point x="343" y="576"/>
      <point x="324" y="576" type="curve" smooth="yes"/>
      <point x="307" y="576"/>
      <point x="282" y="568"/>
      <point x="264" y="566" type="curve" smooth="yes"/>
      <point x="184" y="557"/>
      <point x="30" y="556"/>
      <point x="30" y="484" type="curve" smooth="yes"/>
      <point x="30" y="453"/>
      <point x="38" y="423"/>
      <point x="38" y="388" type="curve" smooth="yes"/>
      <point x="38" y="322" type="line" smooth="yes"/>
      <point x="38" y="216"/>
      <point x="42" y="15"/>
      <point x="208" y="15" type="curve" smooth="yes"/>
      <point x="259" y="15"/>
      <point x="387" y="70"/>
      <point x="387" y="132" type="curve" smooth="yes"/>
      <point x="387" y="158"/>
      <point x="364" y="167"/>
      <point x="345" y="167" type="curve" smooth="yes"/>
      <point x="321" y="167"/>
      <point x="297" y="161"/>
      <point x="273" y="161" type="curve" smooth="yes"/>
      <point x="246" y="161"/>
      <point x="202" y="161"/>
      <point x="194" y="170" type="curve" smooth="yes"/>
      <point x="186" y="179"/>
      <point x="187" y="198"/>
      <point x="187" y="218" type="curve" smooth="yes"/>
      <point x="187" y="253" type="line"/>
      <point x="189" y="268"/>
      <point x="280" y="305"/>
      <point x="316" y="327" type="curve" smooth="yes"/>
      <point x="331" y="336"/>
      <point x="348" y="349"/>
      <point x="348" y="363" type="curve" smooth="yes"/>
      <point x="348" y="370"/>
      <point x="344" y="378"/>
      <point x="335" y="378" type="curve" smooth="yes"/>
      <point x="286" y="378"/>
      <point x="236" y="353"/>
      <point x="182" y="340" type="curve"/>
      <point x="181" y="380"/>
      <point x="176" y="419"/>
      <point x="174" y="458" type="curve"/>
      <point x="224" y="480"/>
      <point x="345" y="498"/>
    </contour>
  </outline>
</glyph>
<glyph name="F" format="1">
  <advance width="370"/>
  <unicode hex="0046"/>
  <outline>
    <contour>
      <point x="138" y="476" type="curve"/>
      <point x="135" y="490"/>
      <point x="135" y="506"/>
      <point x="135" y="521" type="curve"/>
      <point x="186" y="521"/>
      <point x="236" y="529"/>
      <point x="287" y="529" type="curve" smooth="yes"/>
      <point x="301" y="529"/>
      <point x="316" y="528"/>
      <point x="330" y="528" type="curve" smooth="yes"/>
      <point x="353" y="528"/>
      <point x="360" y="535"/>
      <point x="360" y="550" type="curve" smooth="yes"/>
      <point x="360" y="582"/>
      <point x="321" y="582"/>
      <point x="293" y="582" type="curve" smooth="yes"/>
      <point x="284" y="582"/>
      <point x="276" y="581"/>
      <point x="267" y="581" type="curve" smooth="yes"/>
      <point x="227" y="581"/>
      <point x="178" y="582"/>
      <point x="135" y="586" type="curve"/>
      <point x="117" y="593"/>
      <point x="113" y="618"/>
      <point x="86" y="618" type="curve" smooth="yes"/>
      <point x="62" y="618"/>
      <point x="30" y="594"/>
      <point x="30" y="557" type="curve" smooth="yes"/>
      <point x="30" y="538"/>
      <point x="41" y="520"/>
      <point x="41" y="500" type="curve" smooth="yes"/>
      <point x="41" y="446"/>
      <point x="39" y="392"/>
      <point x="39" y="337" type="curve" smooth="yes"/>
      <point x="39" y="295"/>
      <point x="41" y="252"/>
      <point x="46" y="211" type="curve" smooth="yes"/>
      <point x="53" y="149"/>
      <point x="45" y="26"/>
      <point x="97" y="26" type="curve" smooth="yes"/>
      <point x="131" y="26"/>
      <point x="136" y="69"/>
      <point x="136" y="113" type="curve" smooth="yes"/>
      <point x="136" y="130"/>
      <point x="135" y="148"/>
      <point x="135" y="163" type="curve" smooth="yes"/>
      <point x="135" y="186"/>
      <point x="140" y="208"/>
      <point x="141" y="233" type="curve"/>
      <point x="196" y="260"/>
      <point x="317" y="253"/>
      <point x="317" y="322" type="curve" smooth="yes"/>
      <point x="317" y="333"/>
      <point x="311" y="346"/>
      <point x="296" y="346" type="curve" smooth="yes"/>
      <point x="281" y="346"/>
      <point x="265" y="340"/>
      <point x="250" y="336" type="curve" smooth="yes"/>
      <point x="224" y="329"/>
      <point x="198" y="326"/>
      <point x="171" y="326" type="curve" smooth="yes"/>
      <point x="162" y="326"/>
      <point x="152" y="326"/>
      <point x="143" y="327" type="curve"/>
      <point x="143" y="377"/>
      <point x="138" y="426"/>
    </contour>
  </outline>
</glyph>
<glyph name="G" format="1">
  <advance width="402"/>
  <unicode hex="0047"/>
  <outline>
    <contour>
      <point x="167" y="582" type="curve" smooth="yes"/>
      <point x="63" y="579"/>
      <point x="20" y="424"/>
      <point x="20" y="329" type="curve" smooth="yes"/>
      <point x="20" y="225"/>
      <point x="71" y="66"/>
      <point x="188" y="66" type="curve" smooth="yes"/>
      <point x="214" y="66"/>
      <point x="239" y="75"/>
      <point x="260" y="91" type="curve" smooth="yes"/>
      <point x="313" y="132"/>
      <point x="382" y="228"/>
      <point x="382" y="270" type="curve" smooth="yes"/>
      <point x="382" y="312"/>
      <point x="340" y="326"/>
      <point x="309" y="326" type="curve" smooth="yes"/>
      <point x="265" y="326"/>
      <point x="193" y="302"/>
      <point x="183" y="267" type="curve"/>
      <point x="183" y="245"/>
      <point x="197" y="234"/>
      <point x="218" y="234" type="curve" smooth="yes"/>
      <point x="255" y="234"/>
      <point x="292" y="250"/>
      <point x="328" y="255" type="curve"/>
      <point x="309" y="208"/>
      <point x="255" y="143"/>
      <point x="207" y="143" type="curve" smooth="yes"/>
      <point x="136" y="143"/>
      <point x="123" y="272"/>
      <point x="123" y="325" type="curve" smooth="yes"/>
      <point x="123" y="372"/>
      <point x="133" y="432"/>
      <point x="157" y="469" type="curve" smooth="yes"/>
      <point x="161" y="475"/>
      <point x="166" y="484"/>
      <point x="172" y="484" type="curve"/>
      <point x="181" y="484"/>
      <point x="198" y="420"/>
      <point x="228" y="420" type="curve" smooth="yes"/>
      <point x="256" y="420"/>
      <point x="270" y="448"/>
      <point x="270" y="475" type="curve" smooth="yes"/>
      <point x="270" y="530"/>
      <point x="222" y="582"/>
    </contour>
  </outline>
</glyph>
<glyph name="H" format="1">
  <advance width="345"/>
  <unicode hex="0048"/>
  <outline>
    <contour>
      <point x="85" y="588" type="curve" smooth="yes"/>
      <point x="56" y="588"/>
      <point x="50" y="557"/>
      <point x="46" y="534" type="curve" smooth="yes"/>
      <point x="36" y="474"/>
      <point x="30" y="411"/>
      <point x="30" y="349" type="curve" smooth="yes"/>
      <point x="30" y="292"/>
      <point x="33" y="251"/>
      <point x="38" y="210" type="curve" smooth="yes"/>
      <point x="43" y="170"/>
      <point x="57" y="135"/>
      <point x="66" y="96" type="curve" smooth="yes"/>
      <point x="73" y="74"/>
      <point x="79" y="31"/>
      <point x="111" y="31" type="curve" smooth="yes"/>
      <point x="137" y="31"/>
      <point x="140" y="60"/>
      <point x="140" y="81" type="curve" smooth="yes"/>
      <point x="140" y="135"/>
      <point x="150" y="182"/>
      <point x="153" y="230" type="curve"/>
      <point x="174" y="242"/>
      <point x="195" y="250"/>
      <point x="218" y="255" type="curve"/>
      <point x="230" y="190"/>
      <point x="243" y="125"/>
      <point x="254" y="60" type="curve" smooth="yes"/>
      <point x="258" y="40"/>
      <point x="260" y="6"/>
      <point x="289" y="6" type="curve" smooth="yes"/>
      <point x="307" y="6"/>
      <point x="315" y="20"/>
      <point x="317" y="41" type="curve" smooth="yes"/>
      <point x="320" y="72"/>
      <point x="318" y="104"/>
      <point x="320" y="135" type="curve" smooth="yes"/>
      <point x="323" y="178"/>
      <point x="325" y="221"/>
      <point x="325" y="265" type="curve" smooth="yes"/>
      <point x="325" y="342"/>
      <point x="319" y="420"/>
      <point x="303" y="494" type="curve" smooth="yes"/>
      <point x="296" y="517"/>
      <point x="287" y="563"/>
      <point x="253" y="563" type="curve" smooth="yes"/>
      <point x="215" y="563"/>
      <point x="211" y="515"/>
      <point x="211" y="471" type="curve" smooth="yes"/>
      <point x="211" y="428"/>
      <point x="211" y="385"/>
      <point x="213" y="339" type="curve" smooth="yes"/>
      <point x="213" y="328" type="line" smooth="yes"/>
      <point x="213" y="321"/>
      <point x="213" y="314"/>
      <point x="210" y="307" type="curve"/>
      <point x="197" y="297"/>
      <point x="170" y="291"/>
      <point x="154" y="289" type="curve"/>
      <point x="148" y="373"/>
      <point x="147" y="460"/>
      <point x="128" y="542" type="curve" smooth="yes"/>
      <point x="123" y="565"/>
      <point x="111" y="588"/>
    </contour>
  </outline>
</glyph>
<glyph name="I" format="1">
  <advance width="190"/>
  <unicode hex="0049"/>
  <outline>
    <contour>
      <point x="86" y="595" type="curve"/>
      <point x="31" y="595"/>
      <point x="30" y="513"/>
      <point x="30" y="457" type="curve" smooth="yes"/>
      <point x="30" y="379"/>
      <point x="34" y="380"/>
      <point x="44" y="303" type="curve" smooth="yes"/>
      <point x="55" y="214"/>
      <point x="60" y="45"/>
      <point x="123" y="45" type="curve" smooth="yes"/>
      <point x="150" y="45"/>
      <point x="160" y="67"/>
      <point x="160" y="97" type="curve" smooth="yes"/>
      <point x="160" y="139"/>
      <point x="156" y="180"/>
      <point x="156" y="222" type="curve" smooth="yes"/>
      <point x="156" y="277"/>
      <point x="157" y="295"/>
      <point x="157" y="328" type="curve" smooth="yes"/>
      <point x="157" y="344"/>
      <point x="157" y="364"/>
      <point x="156" y="394" type="curve" smooth="yes"/>
      <point x="152" y="465"/>
      <point x="156" y="592"/>
    </contour>
  </outline>
</glyph>
<glyph name="J" format="1">
  <advance width="333"/>
  <unicode hex="004A"/>
  <outline>
    <contour>
      <point x="251" y="524" type="curve" smooth="yes"/>
      <point x="243" y="554"/>
      <point x="244" y="641"/>
      <point x="199" y="641" type="curve" smooth="yes"/>
      <point x="171" y="641"/>
      <point x="164" y="611"/>
      <point x="164" y="585" type="curve" smooth="yes"/>
      <point x="164" y="577"/>
      <point x="165" y="570"/>
      <point x="166" y="564" type="curve" smooth="yes"/>
      <point x="181" y="441"/>
      <point x="213" y="321"/>
      <point x="213" y="198" type="curve" smooth="yes"/>
      <point x="213" y="159"/>
      <point x="210" y="117"/>
      <point x="183" y="117" type="curve" smooth="yes"/>
      <point x="144" y="117"/>
      <point x="60" y="162"/>
      <point x="60" y="205" type="curve" smooth="yes"/>
      <point x="60" y="218"/>
      <point x="81" y="228"/>
      <point x="81" y="242" type="curve" smooth="yes"/>
      <point x="81" y="253"/>
      <point x="67" y="256"/>
      <point x="56" y="256" type="curve" smooth="yes"/>
      <point x="30" y="256"/>
      <point x="10" y="223"/>
      <point x="10" y="199" type="curve" smooth="yes"/>
      <point x="10" y="134"/>
      <point x="111" y="23"/>
      <point x="198" y="23" type="curve" smooth="yes"/>
      <point x="287" y="23"/>
      <point x="313" y="116"/>
      <point x="313" y="189" type="curve" smooth="yes"/>
      <point x="313" y="297"/>
      <point x="281" y="415"/>
    </contour>
  </outline>
</glyph>
<glyph name="K" format="1">
  <advance width="442"/>
  <unicode hex="004B"/>
  <outline>
    <contour>
      <point x="106" y="645" type="curve"/>
      <point x="99" y="654"/>
      <point x="88" y="659"/>
      <point x="77" y="659" type="curve" smooth="yes"/>
      <point x="46" y="659"/>
      <point x="40" y="612"/>
      <point x="40" y="557" type="curve" smooth="yes"/>
      <point x="40" y="522"/>
      <point x="40" y="484"/>
      <point x="42" y="453" type="curve" smooth="yes"/>
      <point x="44" y="415"/>
      <point x="35" y="72"/>
      <point x="88" y="72" type="curve" smooth="yes"/>
      <point x="112" y="72"/>
      <point x="114" y="99"/>
      <point x="114" y="121" type="curve" smooth="yes"/>
      <point x="114" y="130" type="line" smooth="yes"/>
      <point x="114" y="199"/>
      <point x="120" y="267"/>
      <point x="122" y="335" type="curve"/>
      <point x="141" y="310"/>
      <point x="154" y="282"/>
      <point x="171" y="255" type="curve" smooth="yes"/>
      <point x="209" y="196"/>
      <point x="255" y="137"/>
      <point x="315" y="90" type="curve" smooth="yes"/>
      <point x="336" y="73"/>
      <point x="365" y="49"/>
      <point x="389" y="49" type="curve" smooth="yes"/>
      <point x="410" y="49"/>
      <point x="432" y="65"/>
      <point x="432" y="91" type="curve" smooth="yes"/>
      <point x="432" y="106"/>
      <point x="424" y="121"/>
      <point x="416" y="134" type="curve" smooth="yes"/>
      <point x="372" y="203"/>
      <point x="320" y="266"/>
      <point x="267" y="328" type="curve" smooth="yes"/>
      <point x="242" y="358"/>
      <point x="216" y="386"/>
      <point x="195" y="418" type="curve"/>
      <point x="224" y="446"/>
      <point x="256" y="469"/>
      <point x="286" y="497" type="curve" smooth="yes"/>
      <point x="318" y="527"/>
      <point x="374" y="573"/>
      <point x="374" y="610" type="curve" smooth="yes"/>
      <point x="374" y="628"/>
      <point x="365" y="639"/>
      <point x="347" y="639" type="curve" smooth="yes"/>
      <point x="337" y="639"/>
      <point x="327" y="636"/>
      <point x="321" y="629" type="curve" smooth="yes"/>
      <point x="256" y="573"/>
      <point x="196" y="512"/>
      <point x="122" y="466" type="curve"/>
      <point x="120" y="519"/>
      <point x="122" y="568"/>
      <point x="114" y="621" type="curve" smooth="yes"/>
      <point x="113" y="629"/>
      <point x="111" y="638"/>
    </contour>
  </outline>
</glyph>
<glyph name="L" format="1">
  <advance width="418"/>
  <unicode hex="004C"/>
  <outline>
    <contour>
      <point x="97" y="535" type="curve" smooth="yes"/>
      <point x="30" y="535"/>
      <point x="40" y="430"/>
      <point x="36" y="383" type="curve" smooth="yes"/>
      <point x="31" y="330"/>
      <point x="30" y="275"/>
      <point x="30" y="222" type="curve" smooth="yes"/>
      <point x="30" y="183"/>
      <point x="34" y="145"/>
      <point x="58" y="113" type="curve" smooth="yes"/>
      <point x="89" y="72"/>
      <point x="143" y="68"/>
      <point x="194" y="68" type="curve" smooth="yes"/>
      <point x="247" y="68"/>
      <point x="297" y="75"/>
      <point x="353" y="79" type="curve" smooth="yes"/>
      <point x="376" y="79"/>
      <point x="408" y="90"/>
      <point x="408" y="120" type="curve" smooth="yes"/>
      <point x="408" y="171"/>
      <point x="310" y="188"/>
      <point x="262" y="188" type="curve" smooth="yes"/>
      <point x="236" y="188"/>
      <point x="210" y="185"/>
      <point x="183" y="185" type="curve" smooth="yes"/>
      <point x="172" y="185"/>
      <point x="161" y="185"/>
      <point x="150" y="187" type="curve"/>
      <point x="150" y="208" type="line" smooth="yes"/>
      <point x="150" y="271"/>
      <point x="157" y="333"/>
      <point x="157" y="396" type="curve" smooth="yes"/>
      <point x="157" y="448"/>
      <point x="157" y="535"/>
    </contour>
  </outline>
</glyph>
<glyph name="M" format="1">
  <advance width="606"/>
  <unicode hex="004D"/>
  <outline>
    <contour>
      <point x="465" y="592" type="curve" smooth="yes"/>
      <point x="378" y="592"/>
      <point x="323" y="360"/>
      <point x="282" y="246" type="curve"/>
      <point x="267" y="315"/>
      <point x="256" y="384"/>
      <point x="241" y="453" type="curve" smooth="yes"/>
      <point x="231" y="498"/>
      <point x="217" y="559"/>
      <point x="167" y="559" type="curve" smooth="yes"/>
      <point x="130" y="559"/>
      <point x="116" y="522"/>
      <point x="106" y="496" type="curve" smooth="yes"/>
      <point x="76" y="402"/>
      <point x="57" y="302"/>
      <point x="30" y="207" type="curve" smooth="yes"/>
      <point x="20" y="172"/>
      <point x="10" y="132"/>
      <point x="10" y="95" type="curve" smooth="yes"/>
      <point x="10" y="68"/>
      <point x="21" y="44"/>
      <point x="48" y="44" type="curve" smooth="yes"/>
      <point x="95" y="44"/>
      <point x="127" y="199"/>
      <point x="145" y="289" type="curve" smooth="yes"/>
      <point x="147" y="297"/>
      <point x="151" y="304"/>
      <point x="154" y="311" type="curve"/>
      <point x="173" y="221"/>
      <point x="190" y="56"/>
      <point x="278" y="56" type="curve" smooth="yes"/>
      <point x="374" y="56"/>
      <point x="388" y="245"/>
      <point x="431" y="360" type="curve"/>
      <point x="435" y="303"/>
      <point x="435" y="244"/>
      <point x="444" y="188" type="curve" smooth="yes"/>
      <point x="454" y="126"/>
      <point x="477" y="21"/>
      <point x="535" y="21" type="curve" smooth="yes"/>
      <point x="577" y="21"/>
      <point x="586" y="102"/>
      <point x="586" y="160" type="curve" smooth="yes"/>
      <point x="586" y="202"/>
      <point x="572" y="253"/>
      <point x="567" y="296" type="curve" smooth="yes"/>
      <point x="561" y="345"/>
      <point x="554" y="394"/>
      <point x="549" y="444" type="curve" smooth="yes"/>
      <point x="543" y="503"/>
      <point x="529" y="592"/>
    </contour>
  </outline>
</glyph>
<glyph name="N" format="1">
  <advance width="409"/>
  <unicode hex="004E"/>
  <outline>
    <contour>
      <point x="389" y="535" type="curve" smooth="yes"/>
      <point x="389" y="568"/>
      <point x="388" y="618"/>
      <point x="342" y="618" type="curve" smooth="yes"/>
      <point x="286" y="618"/>
      <point x="286" y="509"/>
      <point x="278" y="454" type="curve" smooth="yes"/>
      <point x="267" y="379"/>
      <point x="258" y="304"/>
      <point x="254" y="228" type="curve"/>
      <point x="238" y="258"/>
      <point x="228" y="289"/>
      <point x="217" y="320" type="curve" smooth="yes"/>
      <point x="186" y="404"/>
      <point x="152" y="568"/>
      <point x="98" y="568" type="curve" smooth="yes"/>
      <point x="59" y="568"/>
      <point x="58" y="518"/>
      <point x="53" y="485" type="curve" smooth="yes"/>
      <point x="50" y="361"/>
      <point x="10" y="240"/>
      <point x="10" y="116" type="curve" smooth="yes"/>
      <point x="10" y="96"/>
      <point x="15" y="76"/>
      <point x="37" y="76" type="curve" smooth="yes"/>
      <point x="92" y="76"/>
      <point x="98" y="280"/>
      <point x="106" y="373" type="curve"/>
      <point x="139" y="259"/>
      <point x="210" y="26"/>
      <point x="286" y="26" type="curve" smooth="yes"/>
      <point x="356" y="26"/>
      <point x="348" y="147"/>
      <point x="355" y="217" type="curve" smooth="yes"/>
      <point x="365" y="325"/>
      <point x="389" y="432"/>
    </contour>
  </outline>
</glyph>
<glyph name="O" format="1">
  <advance width="328"/>
  <unicode hex="004F"/>
  <outline>
    <contour>
      <point x="159" y="507" type="curve" smooth="yes"/>
      <point x="141" y="515"/>
      <point x="118" y="522"/>
      <point x="97" y="522" type="curve" smooth="yes"/>
      <point x="60" y="522"/>
      <point x="65" y="493"/>
      <point x="58" y="472" type="curve" smooth="yes"/>
      <point x="37" y="414"/>
      <point x="20" y="361"/>
      <point x="20" y="291" type="curve" smooth="yes"/>
      <point x="20" y="208"/>
      <point x="43" y="93"/>
      <point x="144" y="93" type="curve" smooth="yes"/>
      <point x="234" y="93"/>
      <point x="308" y="216"/>
      <point x="308" y="307" type="curve" smooth="yes"/>
      <point x="308" y="402"/>
      <point x="238" y="470"/>
    </contour>
    <contour>
      <point x="146" y="433" type="curve"/>
      <point x="185" y="411"/>
      <point x="219" y="365"/>
      <point x="219" y="319" type="curve" smooth="yes"/>
      <point x="219" y="275"/>
      <point x="188" y="211"/>
      <point x="147" y="199" type="curve"/>
      <point x="138" y="221"/>
      <point x="134" y="241"/>
      <point x="134" y="265" type="curve" smooth="yes"/>
      <point x="134" y="320"/>
      <point x="134" y="379"/>
    </contour>
  </outline>
</glyph>
<glyph name="P" format="1">
  <advance width="394"/>
  <unicode hex="0050"/>
  <outline>
    <contour>
      <point x="374" y="449" type="curve" smooth="yes"/>
      <point x="374" y="559"/>
      <point x="251" y="635"/>
      <point x="147" y="635" type="curve" smooth="yes"/>
      <point x="108" y="635"/>
      <point x="53" y="601"/>
      <point x="40" y="559" type="curve" smooth="yes"/>
      <point x="31" y="529"/>
      <point x="30" y="488"/>
      <point x="30" y="450" type="curve" smooth="yes"/>
      <point x="30" y="413" type="line" smooth="yes"/>
      <point x="31" y="279"/>
      <point x="45" y="147"/>
      <point x="84" y="17" type="curve" smooth="yes"/>
      <point x="89" y="-2"/>
      <point x="95" y="-24"/>
      <point x="121" y="-24" type="curve" smooth="yes"/>
      <point x="144" y="-24"/>
      <point x="146" y="-3"/>
      <point x="146" y="16" type="curve" smooth="yes"/>
      <point x="146" y="47"/>
      <point x="142" y="76"/>
      <point x="142" y="105" type="curve" smooth="yes"/>
      <point x="142" y="155"/>
      <point x="146" y="205"/>
      <point x="146" y="254" type="curve"/>
      <point x="256" y="272"/>
      <point x="374" y="329"/>
    </contour>
    <contour>
      <point x="115" y="556" type="curve"/>
      <point x="155" y="556"/>
      <point x="252" y="501"/>
      <point x="252" y="448" type="curve" smooth="yes"/>
      <point x="252" y="396"/>
      <point x="197" y="336"/>
      <point x="142" y="322" type="curve"/>
      <point x="139" y="373"/>
      <point x="136" y="426"/>
      <point x="128" y="476" type="curve" smooth="yes"/>
      <point x="123" y="503"/>
      <point x="116" y="530"/>
    </contour>
  </outline>
</glyph>
<glyph name="Q" format="1">
  <advance width="526"/>
  <unicode hex="0051"/>
  <outline>
    <contour>
      <point x="131" y="623" type="curve" smooth="yes"/>
      <point x="60" y="623"/>
      <point x="20" y="421"/>
      <point x="20" y="321" type="curve" smooth="yes"/>
      <point x="20" y="186"/>
      <point x="65" y="3"/>
      <point x="218" y="3" type="curve" smooth="yes"/>
      <point x="263" y="3"/>
      <point x="303" y="23"/>
      <point x="341" y="44" type="curve"/>
      <point x="364" y="16"/>
      <point x="385" y="-33"/>
      <point x="424" y="-33" type="curve" smooth="yes"/>
      <point x="444" y="-33"/>
      <point x="464" y="-21"/>
      <point x="464" y="-1" type="curve" smooth="yes"/>
      <point x="464" y="29"/>
      <point x="424" y="71"/>
      <point x="414" y="113" type="curve"/>
      <point x="423" y="134"/>
      <point x="439" y="151"/>
      <point x="451" y="172" type="curve" smooth="yes"/>
      <point x="482" y="227"/>
      <point x="506" y="289"/>
      <point x="506" y="354" type="curve" smooth="yes"/>
      <point x="506" y="420"/>
      <point x="478" y="483"/>
      <point x="422" y="518" type="curve" smooth="yes"/>
      <point x="374" y="548"/>
      <point x="310" y="552"/>
      <point x="257" y="552" type="curve" smooth="yes"/>
      <point x="221" y="552"/>
      <point x="186" y="545"/>
      <point x="149" y="541" type="curve"/>
      <point x="154" y="560"/>
      <point x="163" y="579"/>
      <point x="165" y="598" type="curve"/>
      <point x="163" y="617"/>
      <point x="148" y="623"/>
    </contour>
    <contour>
      <point x="202" y="475" type="curve" smooth="yes"/>
      <point x="269" y="475"/>
      <point x="387" y="467"/>
      <point x="387" y="369" type="curve" smooth="yes"/>
      <point x="387" y="327"/>
      <point x="370" y="285"/>
      <point x="348" y="251" type="curve"/>
      <point x="322" y="290"/>
      <point x="287" y="364"/>
      <point x="236" y="364" type="curve" smooth="yes"/>
      <point x="213" y="364"/>
      <point x="194" y="345"/>
      <point x="194" y="322" type="curve" smooth="yes"/>
      <point x="194" y="279"/>
      <point x="247" y="209"/>
      <point x="272" y="161" type="curve"/>
      <point x="254" y="145"/>
      <point x="233" y="131"/>
      <point x="209" y="131" type="curve" smooth="yes"/>
      <point x="137" y="131"/>
      <point x="128" y="297"/>
      <point x="128" y="370" type="curve" smooth="yes"/>
      <point x="128" y="404"/>
      <point x="130" y="437"/>
      <point x="136" y="469" type="curve"/>
      <point x="158" y="473"/>
      <point x="180" y="475"/>
    </contour>
  </outline>
</glyph>
<glyph name="R" format="1">
  <advance width="426"/>
  <unicode hex="0052"/>
  <outline>
    <contour>
      <point x="314" y="544" type="curve"/>
      <point x="307" y="547"/>
      <point x="300" y="548"/>
      <point x="293" y="548" type="curve" smooth="yes"/>
      <point x="220" y="548"/>
      <point x="150" y="416"/>
      <point x="118" y="346" type="curve"/>
      <point x="105" y="390"/>
      <point x="100" y="506"/>
      <point x="57" y="506" type="curve" smooth="yes"/>
      <point x="33" y="506"/>
      <point x="30" y="467"/>
      <point x="30" y="431" type="curve" smooth="yes"/>
      <point x="30" y="319"/>
      <point x="33" y="206"/>
      <point x="46" y="87" type="curve" smooth="yes"/>
      <point x="48" y="63"/>
      <point x="55" y="24"/>
      <point x="91" y="24" type="curve" smooth="yes"/>
      <point x="128" y="24"/>
      <point x="133" y="63"/>
      <point x="133" y="98" type="curve" smooth="yes"/>
      <point x="133" y="126"/>
      <point x="130" y="154"/>
      <point x="130" y="182" type="curve" smooth="yes"/>
      <point x="130" y="192"/>
      <point x="130" y="201"/>
      <point x="131" y="211" type="curve"/>
      <point x="175" y="191"/>
      <point x="216" y="142"/>
      <point x="251" y="104" type="curve" smooth="yes"/>
      <point x="277" y="75"/>
      <point x="307" y="50"/>
      <point x="336" y="26" type="curve" smooth="yes"/>
      <point x="350" y="15"/>
      <point x="364" y="-1"/>
      <point x="383" y="-1" type="curve" smooth="yes"/>
      <point x="401" y="-1"/>
      <point x="416" y="8"/>
      <point x="416" y="31" type="curve" smooth="yes"/>
      <point x="416" y="56"/>
      <point x="368" y="121"/>
      <point x="339" y="155" type="curve" smooth="yes"/>
      <point x="297" y="203"/>
      <point x="243" y="238"/>
      <point x="187" y="268" type="curve"/>
      <point x="237" y="322"/>
      <point x="339" y="415"/>
      <point x="339" y="498" type="curve" smooth="yes"/>
      <point x="339" y="517"/>
      <point x="332" y="535"/>
    </contour>
    <contour>
      <point x="274" y="478" type="curve"/>
      <point x="246" y="415"/>
      <point x="202" y="357"/>
      <point x="151" y="311" type="curve"/>
      <point x="176" y="376"/>
      <point x="218" y="436"/>
    </contour>
  </outline>
</glyph>
<glyph name="S" format="1">
  <advance width="334"/>
  <unicode hex="0053"/>
  <outline>
    <contour>
      <point x="202" y="521" type="curve" smooth="yes"/>
      <point x="184" y="527"/>
      <point x="164" y="530"/>
      <point x="144" y="530" type="curve" smooth="yes"/>
      <point x="90" y="530"/>
      <point x="28" y="502"/>
      <point x="28" y="443" type="curve" smooth="yes"/>
      <point x="28" y="421"/>
      <point x="38" y="400"/>
      <point x="51" y="382" type="curve" smooth="yes"/>
      <point x="107" y="304"/>
      <point x="214" y="215"/>
      <point x="214" y="140" type="curve" smooth="yes"/>
      <point x="214" y="121"/>
      <point x="202" y="112"/>
      <point x="186" y="112" type="curve" smooth="yes"/>
      <point x="159" y="112"/>
      <point x="127" y="116"/>
      <point x="100" y="125" type="curve" smooth="yes"/>
      <point x="80" y="132"/>
      <point x="54" y="153"/>
      <point x="36" y="153" type="curve" smooth="yes"/>
      <point x="24" y="153"/>
      <point x="20" y="138"/>
      <point x="20" y="129" type="curve" smooth="yes"/>
      <point x="20" y="75"/>
      <point x="138" y="20"/>
      <point x="204" y="20" type="curve" smooth="yes"/>
      <point x="273" y="20"/>
      <point x="314" y="72"/>
      <point x="314" y="132" type="curve" smooth="yes"/>
      <point x="314" y="260"/>
      <point x="185" y="339"/>
      <point x="119" y="438" type="curve"/>
      <point x="130" y="440"/>
      <point x="141" y="441"/>
      <point x="152" y="441" type="curve" smooth="yes"/>
      <point x="188" y="441"/>
      <point x="214" y="415"/>
      <point x="245" y="415" type="curve" smooth="yes"/>
      <point x="263" y="415"/>
      <point x="268" y="432"/>
      <point x="268" y="446" type="curve" smooth="yes"/>
      <point x="268" y="485"/>
      <point x="235" y="510"/>
    </contour>
  </outline>
</glyph>
<glyph name="T" format="1">
  <advance width="576"/>
  <unicode hex="0054"/>
  <outline>
    <contour>
      <point x="566" y="564" type="curve"/>
      <point x="566" y="596"/>
      <point x="533" y="602"/>
      <point x="503" y="602" type="curve" smooth="yes"/>
      <point x="475" y="602"/>
      <point x="446" y="598"/>
      <point x="420" y="594" type="curve" smooth="yes"/>
      <point x="302" y="575"/>
      <point x="187" y="560"/>
      <point x="71" y="527" type="curve" smooth="yes"/>
      <point x="46" y="520"/>
      <point x="10" y="503"/>
      <point x="10" y="472" type="curve" smooth="yes"/>
      <point x="10" y="430"/>
      <point x="60" y="426"/>
      <point x="92" y="426" type="curve" smooth="yes"/>
      <point x="134" y="426"/>
      <point x="173" y="436"/>
      <point x="216" y="443" type="curve"/>
      <point x="218" y="396"/>
      <point x="218" y="349"/>
      <point x="227" y="303" type="curve" smooth="yes"/>
      <point x="244" y="213"/>
      <point x="256" y="36"/>
      <point x="324" y="36" type="curve" smooth="yes"/>
      <point x="340" y="36"/>
      <point x="356" y="45"/>
      <point x="356" y="65" type="curve" smooth="yes"/>
      <point x="356" y="83"/>
      <point x="352" y="102"/>
      <point x="350" y="119" type="curve" smooth="yes"/>
      <point x="338" y="214"/>
      <point x="350" y="306"/>
      <point x="334" y="401" type="curve" smooth="yes"/>
      <point x="330" y="425"/>
      <point x="323" y="449"/>
      <point x="317" y="474" type="curve"/>
      <point x="390" y="502"/>
      <point x="468" y="517"/>
      <point x="542" y="542" type="curve" smooth="yes"/>
      <point x="553" y="546"/>
      <point x="562" y="552"/>
    </contour>
  </outline>
</glyph>
<glyph name="U" format="1">
  <advance width="350"/>
  <unicode hex="0055"/>
  <outline>
    <contour>
      <point x="304" y="591" type="curve" smooth="yes"/>
      <point x="301" y="613"/>
      <point x="291" y="655"/>
      <point x="260" y="655" type="curve" smooth="yes"/>
      <point x="234" y="655"/>
      <point x="224" y="630"/>
      <point x="224" y="601" type="curve" smooth="yes"/>
      <point x="224" y="562"/>
      <point x="230" y="526"/>
      <point x="230" y="488" type="curve" smooth="yes"/>
      <point x="230" y="391"/>
      <point x="221" y="287"/>
      <point x="193" y="190" type="curve"/>
      <point x="153" y="283"/>
      <point x="136" y="394"/>
      <point x="116" y="493" type="curve" smooth="yes"/>
      <point x="110" y="520"/>
      <point x="98" y="562"/>
      <point x="61" y="562" type="curve" smooth="yes"/>
      <point x="30" y="562"/>
      <point x="20" y="534"/>
      <point x="20" y="502" type="curve" smooth="yes"/>
      <point x="20" y="416"/>
      <point x="39" y="326"/>
      <point x="59" y="243" type="curve" smooth="yes"/>
      <point x="78" y="165"/>
      <point x="115" y="46"/>
      <point x="198" y="46" type="curve" smooth="yes"/>
      <point x="305" y="46"/>
      <point x="323" y="243"/>
      <point x="330" y="363" type="curve"/>
      <point x="329" y="442"/>
      <point x="317" y="514"/>
    </contour>
  </outline>
</glyph>
<glyph name="V" format="1">
  <advance width="342"/>
  <unicode hex="0056"/>
  <outline>
    <contour>
      <point x="279" y="621" type="curve" smooth="yes"/>
      <point x="255" y="621"/>
      <point x="240" y="601"/>
      <point x="234" y="577" type="curve" smooth="yes"/>
      <point x="208" y="479"/>
      <point x="198" y="381"/>
      <point x="182" y="283" type="curve"/>
      <point x="148" y="375"/>
      <point x="116" y="552"/>
      <point x="53" y="552" type="curve" smooth="yes"/>
      <point x="22" y="552"/>
      <point x="21" y="525"/>
      <point x="20" y="505" type="curve" smooth="yes"/>
      <point x="21" y="470"/>
      <point x="28" y="435"/>
      <point x="35" y="400" type="curve" smooth="yes"/>
      <point x="52" y="306"/>
      <point x="76" y="212"/>
      <point x="110" y="123" type="curve" smooth="yes"/>
      <point x="124" y="85"/>
      <point x="143" y="38"/>
      <point x="193" y="38" type="curve" smooth="yes"/>
      <point x="266" y="38"/>
      <point x="282" y="150"/>
      <point x="292" y="211" type="curve" smooth="yes"/>
      <point x="306" y="299"/>
      <point x="320" y="386"/>
      <point x="320" y="475" type="curve" smooth="yes"/>
      <point x="320" y="503"/>
      <point x="322" y="531"/>
      <point x="322" y="559" type="curve" smooth="yes"/>
      <point x="322" y="591"/>
      <point x="315" y="621"/>
    </contour>
  </outline>
</glyph>
<glyph name="W" format="1">
  <advance width="578"/>
  <unicode hex="0057"/>
  <outline>
    <contour>
      <point x="538" y="577" type="curve" smooth="yes"/>
      <point x="533" y="589"/>
      <point x="521" y="594"/>
      <point x="509" y="594" type="curve" smooth="yes"/>
      <point x="477" y="594"/>
      <point x="471" y="558"/>
      <point x="467" y="535" type="curve" smooth="yes"/>
      <point x="454" y="465"/>
      <point x="438" y="395"/>
      <point x="429" y="325" type="curve" smooth="yes"/>
      <point x="425" y="294"/>
      <point x="425" y="265"/>
      <point x="414" y="235" type="curve"/>
      <point x="377" y="326"/>
      <point x="342" y="516"/>
      <point x="271" y="516" type="curve" smooth="yes"/>
      <point x="237" y="516"/>
      <point x="224" y="483"/>
      <point x="215" y="456" type="curve" smooth="yes"/>
      <point x="193" y="391"/>
      <point x="175" y="327"/>
      <point x="158" y="262" type="curve" smooth="yes"/>
      <point x="150" y="234"/>
      <point x="146" y="207"/>
      <point x="134" y="181" type="curve"/>
      <point x="119" y="270"/>
      <point x="115" y="360"/>
      <point x="100" y="451" type="curve" smooth="yes"/>
      <point x="96" y="473"/>
      <point x="85" y="510"/>
      <point x="57" y="510" type="curve" smooth="yes"/>
      <point x="26" y="510"/>
      <point x="20" y="481"/>
      <point x="20" y="452" type="curve" smooth="yes"/>
      <point x="20" y="442"/>
      <point x="20" y="431"/>
      <point x="21" y="421" type="curve" smooth="yes"/>
      <point x="29" y="317"/>
      <point x="44" y="212"/>
      <point x="63" y="109" type="curve" smooth="yes"/>
      <point x="69" y="77"/>
      <point x="91" y="21"/>
      <point x="130" y="21" type="curve" smooth="yes"/>
      <point x="171" y="21"/>
      <point x="187" y="72"/>
      <point x="197" y="109" type="curve" smooth="yes"/>
      <point x="220" y="200"/>
      <point x="238" y="294"/>
      <point x="264" y="385" type="curve"/>
      <point x="274" y="358"/>
      <point x="280" y="330"/>
      <point x="287" y="303" type="curve" smooth="yes"/>
      <point x="306" y="227"/>
      <point x="329" y="152"/>
      <point x="358" y="79" type="curve" smooth="yes"/>
      <point x="371" y="45"/>
      <point x="392" y="3"/>
      <point x="436" y="3" type="curve" smooth="yes"/>
      <point x="497" y="3"/>
      <point x="513" y="76"/>
      <point x="522" y="124" type="curve" smooth="yes"/>
      <point x="541" y="224"/>
      <point x="546" y="330"/>
      <point x="546" y="429" type="curve" smooth="yes"/>
      <point x="546" y="452"/>
      <point x="548" y="479"/>
      <point x="548" y="504" type="curve" smooth="yes"/>
      <point x="548" y="531"/>
      <point x="546" y="557"/>
    </contour>
  </outline>
</glyph>
<glyph name="X" format="1">
  <advance width="334"/>
  <unicode hex="0058"/>
  <outline>
    <contour>
      <point x="240" y="672" type="curve" smooth="yes"/>
      <point x="183" y="672"/>
      <point x="166" y="553"/>
      <point x="155" y="513" type="curve"/>
      <point x="123" y="550"/>
      <point x="87" y="620"/>
      <point x="52" y="620" type="curve" smooth="yes"/>
      <point x="34" y="620"/>
      <point x="20" y="609"/>
      <point x="20" y="589" type="curve" smooth="yes"/>
      <point x="20" y="546"/>
      <point x="66" y="471"/>
      <point x="100" y="421" type="curve"/>
      <point x="108" y="408"/>
      <point x="122" y="391"/>
      <point x="124" y="376" type="curve" smooth="yes"/>
      <point x="124" y="350"/>
      <point x="116" y="325"/>
      <point x="112" y="300" type="curve" smooth="yes"/>
      <point x="102" y="238"/>
      <point x="83" y="171"/>
      <point x="83" y="107" type="curve" smooth="yes"/>
      <point x="83" y="89"/>
      <point x="87" y="60"/>
      <point x="114" y="60" type="curve" smooth="yes"/>
      <point x="158" y="60"/>
      <point x="178" y="213"/>
      <point x="199" y="285" type="curve"/>
      <point x="226" y="255"/>
      <point x="256" y="190"/>
      <point x="289" y="190" type="curve" smooth="yes"/>
      <point x="307" y="190"/>
      <point x="314" y="203"/>
      <point x="314" y="217" type="curve" smooth="yes"/>
      <point x="314" y="234"/>
      <point x="299" y="259"/>
      <point x="291" y="276" type="curve" smooth="yes"/>
      <point x="277" y="305"/>
      <point x="262" y="335"/>
      <point x="246" y="363" type="curve" smooth="yes"/>
      <point x="240" y="374"/>
      <point x="231" y="387"/>
      <point x="230" y="400" type="curve" smooth="yes"/>
      <point x="230" y="412"/>
      <point x="234" y="425"/>
      <point x="237" y="437" type="curve" smooth="yes"/>
      <point x="249" y="482"/>
      <point x="258" y="528"/>
      <point x="269" y="573" type="curve" smooth="yes"/>
      <point x="274" y="592"/>
      <point x="279" y="613"/>
      <point x="279" y="633" type="curve" smooth="yes"/>
      <point x="279" y="654"/>
      <point x="261" y="672"/>
    </contour>
  </outline>
</glyph>
<glyph name="Y" format="1">
  <advance width="390"/>
  <unicode hex="0059"/>
  <outline>
    <contour>
      <point x="255" y="645"/>
      <point x="250" y="582"/>
      <point x="250" y="535" type="curve" smooth="yes"/>
      <point x="250" y="461" type="line"/>
      <point x="225" y="484"/>
      <point x="205" y="514"/>
      <point x="177" y="534" type="curve" smooth="yes"/>
      <point x="144" y="557"/>
      <point x="100" y="592"/>
      <point x="59" y="592" type="curve" smooth="yes"/>
      <point x="36" y="592"/>
      <point x="10" y="579"/>
      <point x="10" y="552" type="curve" smooth="yes"/>
      <point x="10" y="533"/>
      <point x="29" y="520"/>
      <point x="43" y="508" type="curve" smooth="yes"/>
      <point x="82" y="473"/>
      <point x="113" y="433"/>
      <point x="156" y="405" type="curve" smooth="yes"/>
      <point x="186" y="385"/>
      <point x="217" y="366"/>
      <point x="246" y="345" type="curve" smooth="yes"/>
      <point x="258" y="336"/>
      <point x="259" y="326"/>
      <point x="259" y="314" type="curve" smooth="yes"/>
      <point x="261" y="247"/>
      <point x="271" y="181"/>
      <point x="276" y="115" type="curve" smooth="yes"/>
      <point x="280" y="90"/>
      <point x="281" y="50"/>
      <point x="316" y="50" type="curve" smooth="yes"/>
      <point x="350" y="50"/>
      <point x="352" y="84"/>
      <point x="353" y="109" type="curve" smooth="yes"/>
      <point x="355" y="189"/>
      <point x="360" y="270"/>
      <point x="360" y="351" type="curve" smooth="yes"/>
      <point x="360" y="376"/>
      <point x="357" y="401"/>
      <point x="356" y="427" type="curve" smooth="yes"/>
      <point x="353" y="504"/>
      <point x="358" y="645"/>
      <point x="296" y="645" type="curve" smooth="yes"/>
    </contour>
  </outline>
</glyph>
<glyph name="Z" format="1">
  <advance width="401"/>
  <unicode hex="005A"/>
  <outline>
    <contour>
      <point x="212" y="536" type="curve"/>
      <point x="180" y="534"/>
      <point x="148" y="521"/>
      <point x="118" y="508" type="curve" smooth="yes"/>
      <point x="88" y="495"/>
      <point x="10" y="471"/>
      <point x="10" y="428" type="curve" smooth="yes"/>
      <point x="10" y="411"/>
      <point x="24" y="397"/>
      <point x="42" y="397" type="curve" smooth="yes"/>
      <point x="48" y="397"/>
      <point x="54" y="398"/>
      <point x="59" y="399" type="curve" smooth="yes"/>
      <point x="106" y="412"/>
      <point x="150" y="435"/>
      <point x="199" y="444" type="curve"/>
      <point x="199" y="419"/>
      <point x="196" y="395"/>
      <point x="189" y="371" type="curve" smooth="yes"/>
      <point x="170" y="309"/>
      <point x="144" y="244"/>
      <point x="130" y="178" type="curve" smooth="yes"/>
      <point x="127" y="166"/>
      <point x="125" y="154"/>
      <point x="125" y="142" type="curve" smooth="yes"/>
      <point x="125" y="86"/>
      <point x="177" y="62"/>
      <point x="230" y="62" type="curve" smooth="yes"/>
      <point x="271" y="62"/>
      <point x="312" y="70"/>
      <point x="349" y="85" type="curve" smooth="yes"/>
      <point x="368" y="93"/>
      <point x="391" y="107"/>
      <point x="391" y="135" type="curve" smooth="yes"/>
      <point x="391" y="161"/>
      <point x="371" y="175"/>
      <point x="343" y="175" type="curve" smooth="yes"/>
      <point x="311" y="175"/>
      <point x="280" y="171"/>
      <point x="224" y="169" type="curve"/>
      <point x="230" y="221"/>
      <point x="251" y="270"/>
      <point x="265" y="321" type="curve" smooth="yes"/>
      <point x="275" y="358"/>
      <point x="291" y="404"/>
      <point x="291" y="445" type="curve" smooth="yes"/>
      <point x="291" y="491"/>
      <point x="264" y="532"/>
    </contour>
  </outline>
</glyph>
<glyph name="bracketleft" format="1">
  <advance width="373"/>
  <unicode hex="005B"/>
  <outline>
    <contour>
      <point x="118" y="656" type="line" smooth="yes"/>
      <point x="15" y="656"/>
      <point x="15" y="584"/>
      <point x="15" y="523" type="curve" smooth="yes"/>
      <point x="15" y="412" type="line" smooth="yes"/>
      <point x="15" y="289"/>
      <point x="16" y="49"/>
      <point x="23" y="-74" type="curve" smooth="yes"/>
      <point x="26" y="-120"/>
      <point x="63" y="-138"/>
      <point x="105" y="-138" type="curve" smooth="yes"/>
      <point x="155" y="-138"/>
      <point x="336" y="-129"/>
      <point x="340" y="-69" type="curve"/>
      <point x="340" y="-38"/>
      <point x="273" y="-15"/>
      <point x="231" y="-15" type="curve" smooth="yes"/>
      <point x="200" y="-15"/>
      <point x="168" y="-20"/>
      <point x="125" y="-20" type="curve"/>
      <point x="124" y="60"/>
      <point x="126" y="258"/>
      <point x="120" y="338" type="curve"/>
      <point x="119" y="407"/>
      <point x="108" y="505"/>
      <point x="105" y="574" type="curve"/>
      <point x="114" y="575"/>
      <point x="124" y="575"/>
      <point x="134" y="575" type="curve" smooth="yes"/>
      <point x="154" y="575"/>
      <point x="174" y="574"/>
      <point x="195" y="574" type="curve" smooth="yes"/>
      <point x="224" y="574"/>
      <point x="285" y="574"/>
      <point x="285" y="616" type="curve" smooth="yes"/>
      <point x="285" y="655"/>
      <point x="238" y="656"/>
      <point x="207" y="656" type="curve" smooth="yes"/>
    </contour>
  </outline>
</glyph>
<glyph name="backslash" format="1">
  <advance width="397"/>
  <unicode hex="005C"/>
  <outline>
    <contour>
      <point x="99" y="686" type="curve" smooth="yes"/>
      <point x="90" y="710"/>
      <point x="77" y="744"/>
      <point x="51" y="744" type="curve" smooth="yes"/>
      <point x="25" y="744"/>
      <point x="16" y="723"/>
      <point x="16" y="697" type="curve" smooth="yes"/>
      <point x="16" y="658"/>
      <point x="34" y="603"/>
      <point x="50" y="564" type="curve" smooth="yes"/>
      <point x="103" y="432"/>
      <point x="264" y="60"/>
      <point x="302" y="-31" type="curve" smooth="yes"/>
      <point x="311" y="-53"/>
      <point x="329" y="-77"/>
      <point x="350" y="-77" type="curve" smooth="yes"/>
      <point x="375" y="-77"/>
      <point x="381" y="-59"/>
      <point x="381" y="-39" type="curve" smooth="yes"/>
      <point x="381" y="-13"/>
      <point x="364" y="18"/>
      <point x="348" y="72" type="curve"/>
      <point x="149" y="557" type="line" smooth="yes"/>
      <point x="123" y="621"/>
      <point x="112" y="653"/>
    </contour>
  </outline>
</glyph>
<glyph name="bracketright" format="1">
  <advance width="379"/>
  <unicode hex="005D"/>
  <outline>
    <contour>
      <point x="232" y="662" type="curve"/>
      <point x="170" y="652"/>
      <point x="33" y="657"/>
      <point x="33" y="599" type="curve" smooth="yes"/>
      <point x="33" y="578"/>
      <point x="50" y="562"/>
      <point x="71" y="562" type="curve" smooth="yes"/>
      <point x="74" y="562"/>
      <point x="76" y="562"/>
      <point x="79" y="563" type="curve"/>
      <point x="134" y="573"/>
      <point x="187" y="575"/>
      <point x="243" y="575" type="curve"/>
      <point x="250" y="461"/>
      <point x="244" y="261"/>
      <point x="257" y="145" type="curve" smooth="yes"/>
      <point x="262" y="95"/>
      <point x="275" y="46"/>
      <point x="278" y="-4" type="curve"/>
      <point x="238" y="-9"/>
      <point x="198" y="-8"/>
      <point x="157" y="-17" type="curve" smooth="yes"/>
      <point x="114" y="-27"/>
      <point x="38" y="-55"/>
      <point x="38" y="-103" type="curve" smooth="yes"/>
      <point x="38" y="-132"/>
      <point x="59" y="-138"/>
      <point x="94" y="-138" type="curve" smooth="yes"/>
      <point x="141" y="-138"/>
      <point x="192" y="-126"/>
      <point x="237" y="-121" type="curve" smooth="yes"/>
      <point x="285" y="-116"/>
      <point x="365" y="-108"/>
      <point x="365" y="-43" type="curve" smooth="yes"/>
      <point x="365" y="-39"/>
      <point x="365" y="-34"/>
      <point x="364" y="-29" type="curve"/>
      <point x="353" y="56"/>
      <point x="352" y="142"/>
      <point x="344" y="228" type="curve" smooth="yes"/>
      <point x="336" y="324"/>
      <point x="339" y="505"/>
      <point x="326" y="604" type="curve"/>
      <point x="320" y="632"/>
      <point x="313" y="665"/>
      <point x="268" y="665" type="curve" smooth="yes"/>
      <point x="257" y="665"/>
      <point x="249" y="664"/>
    </contour>
  </outline>
</glyph>
<glyph name="underscore" format="1">
  <advance width="572"/>
  <unicode hex="005F"/>
  <outline>
    <contour>
      <point x="491" y="54" type="curve" smooth="yes"/>
      <point x="455" y="54"/>
      <point x="419" y="52"/>
      <point x="351" y="49" type="curve" smooth="yes"/>
      <point x="149" y="39" type="line"/>
      <point x="142" y="39"/>
      <point x="135" y="38"/>
      <point x="129" y="38" type="curve"/>
      <point x="49" y="34"/>
      <point x="10" y="32"/>
      <point x="10" y="-6" type="curve" smooth="yes"/>
      <point x="10" y="-38"/>
      <point x="58" y="-34"/>
      <point x="87" y="-36" type="curve"/>
      <point x="201" y="-36"/>
      <point x="264" y="-27"/>
      <point x="461" y="-27" type="curve" smooth="yes"/>
      <point x="515" y="-27"/>
      <point x="567" y="-22"/>
      <point x="567" y="11" type="curve" smooth="yes"/>
      <point x="567" y="47"/>
      <point x="521" y="54"/>
    </contour>
  </outline>
</glyph>
<glyph name="a" format="1">
  <advance width="377"/>
  <unicode hex="0061"/>
  <outline>
    <contour>
      <point x="285" y="488" type="curve" smooth="yes"/>
      <point x="275" y="523"/>
      <point x="254" y="595"/>
      <point x="204" y="595" type="curve" smooth="yes"/>
      <point x="157" y="595"/>
      <point x="136" y="508"/>
      <point x="123" y="473" type="curve" smooth="yes"/>
      <point x="90" y="385"/>
      <point x="57" y="296"/>
      <point x="28" y="207" type="curve" smooth="yes"/>
      <point x="20" y="181"/>
      <point x="10" y="155"/>
      <point x="10" y="124" type="curve" smooth="yes"/>
      <point x="10" y="105"/>
      <point x="25" y="89"/>
      <point x="46" y="89" type="curve"/>
      <point x="63" y="90"/>
      <point x="74" y="102"/>
      <point x="82" y="117" type="curve" smooth="yes"/>
      <point x="101" y="152"/>
      <point x="111" y="192"/>
      <point x="125" y="230" type="curve"/>
      <point x="129" y="239"/>
      <point x="132" y="249"/>
      <point x="143" y="253" type="curve"/>
      <point x="174" y="267"/>
      <point x="211" y="270"/>
      <point x="244" y="275" type="curve"/>
      <point x="255" y="243"/>
      <point x="265" y="212"/>
      <point x="279" y="181" type="curve" smooth="yes"/>
      <point x="288" y="161"/>
      <point x="298" y="144"/>
      <point x="300" y="121" type="curve"/>
      <point x="302" y="107"/>
      <point x="299" y="93"/>
      <point x="313" y="84" type="curve"/>
      <point x="320" y="79"/>
      <point x="328" y="76"/>
      <point x="336" y="76" type="curve" smooth="yes"/>
      <point x="363" y="76"/>
      <point x="367" y="104"/>
      <point x="367" y="128" type="curve" smooth="yes"/>
      <point x="367" y="169"/>
      <point x="355" y="211"/>
      <point x="346" y="250" type="curve" smooth="yes"/>
      <point x="328" y="330"/>
      <point x="308" y="410"/>
    </contour>
    <contour>
      <point x="196" y="471" type="curve"/>
      <point x="209" y="422"/>
      <point x="220" y="372"/>
      <point x="232" y="322" type="curve"/>
      <point x="204" y="316"/>
      <point x="177" y="312"/>
      <point x="149" y="309" type="curve"/>
      <point x="164" y="363"/>
      <point x="178" y="418"/>
    </contour>
  </outline>
</glyph>
<glyph name="b" format="1">
  <advance width="384"/>
  <unicode hex="0062"/>
  <outline>
    <contour>
      <point x="95" y="606" type="curve"/>
      <point x="88" y="628"/>
      <point x="83" y="670"/>
      <point x="50" y="670" type="curve" smooth="yes"/>
      <point x="23" y="670"/>
      <point x="20" y="643"/>
      <point x="20" y="617" type="curve" smooth="yes"/>
      <point x="20" y="607"/>
      <point x="21" y="597"/>
      <point x="21" y="588" type="curve"/>
      <point x="26" y="513"/>
      <point x="23" y="440"/>
      <point x="26" y="366" type="curve" smooth="yes"/>
      <point x="28" y="316"/>
      <point x="32" y="266"/>
      <point x="39" y="216" type="curve" smooth="yes"/>
      <point x="43" y="183"/>
      <point x="42" y="149"/>
      <point x="48" y="116" type="curve" smooth="yes"/>
      <point x="51" y="98"/>
      <point x="60" y="82"/>
      <point x="78" y="74" type="curve" smooth="yes"/>
      <point x="85" y="71"/>
      <point x="92" y="70"/>
      <point x="100" y="70" type="curve" smooth="yes"/>
      <point x="120" y="70"/>
      <point x="140" y="78"/>
      <point x="157" y="86" type="curve" smooth="yes"/>
      <point x="216" y="114"/>
      <point x="274" y="153"/>
      <point x="312" y="206" type="curve" smooth="yes"/>
      <point x="339" y="243"/>
      <point x="364" y="289"/>
      <point x="364" y="340" type="curve" smooth="yes"/>
      <point x="364" y="373"/>
      <point x="351" y="404"/>
      <point x="321" y="420" type="curve"/>
      <point x="308" y="428"/>
      <point x="293" y="431"/>
      <point x="277" y="431" type="curve" smooth="yes"/>
      <point x="259" y="431"/>
      <point x="240" y="427"/>
      <point x="224" y="424" type="curve"/>
      <point x="250" y="466"/>
      <point x="276" y="510"/>
      <point x="293" y="555" type="curve" smooth="yes"/>
      <point x="299" y="572"/>
      <point x="305" y="591"/>
      <point x="305" y="609" type="curve" smooth="yes"/>
      <point x="305" y="638"/>
      <point x="284" y="664"/>
      <point x="251" y="664" type="curve" smooth="yes"/>
      <point x="198" y="664"/>
      <point x="146" y="632"/>
    </contour>
    <contour>
      <point x="234" y="608" type="curve" smooth="yes"/>
      <point x="239" y="608"/>
      <point x="246" y="607"/>
      <point x="246" y="598" type="curve" smooth="yes"/>
      <point x="246" y="583"/>
      <point x="230" y="551"/>
      <point x="222" y="531" type="curve" smooth="yes"/>
      <point x="197" y="469"/>
      <point x="161" y="410"/>
      <point x="115" y="360" type="curve"/>
      <point x="112" y="402"/>
      <point x="111" y="444"/>
      <point x="106" y="485" type="curve" smooth="yes"/>
      <point x="103" y="507"/>
      <point x="102" y="528"/>
      <point x="102" y="552" type="curve"/>
      <point x="111" y="562"/>
      <point x="124" y="569"/>
      <point x="136" y="574" type="curve" smooth="yes"/>
      <point x="165" y="586"/>
      <point x="212" y="608"/>
    </contour>
    <contour>
      <point x="227" y="363" type="curve" smooth="yes"/>
      <point x="242" y="366"/>
      <point x="259" y="369"/>
      <point x="272" y="369" type="curve" smooth="yes"/>
      <point x="283" y="369"/>
      <point x="293" y="365"/>
      <point x="293" y="351" type="curve" smooth="yes"/>
      <point x="293" y="336"/>
      <point x="284" y="316"/>
      <point x="276" y="302" type="curve"/>
      <point x="245" y="239"/>
      <point x="189" y="186"/>
      <point x="132" y="146" type="curve"/>
      <point x="123" y="167"/>
      <point x="115" y="187"/>
      <point x="115" y="211" type="curve" smooth="yes"/>
      <point x="115" y="250"/>
      <point x="116" y="287"/>
      <point x="116" y="326" type="curve"/>
      <point x="159" y="335"/>
      <point x="186" y="354"/>
    </contour>
  </outline>
</glyph>
<glyph name="c" format="1">
  <advance width="334"/>
  <unicode hex="0063"/>
  <outline>
    <contour>
      <point x="189" y="471" type="curve" smooth="yes"/>
      <point x="189" y="506"/>
      <point x="165" y="550"/>
      <point x="123" y="550" type="curve" smooth="yes"/>
      <point x="39" y="550"/>
      <point x="20" y="393"/>
      <point x="20" y="296" type="curve" smooth="yes"/>
      <point x="20" y="229"/>
      <point x="41" y="31"/>
      <point x="162" y="31" type="curve" smooth="yes"/>
      <point x="250" y="31"/>
      <point x="314" y="134"/>
      <point x="314" y="221" type="curve" smooth="yes"/>
      <point x="314" y="236"/>
      <point x="308" y="246"/>
      <point x="298" y="246" type="curve" smooth="yes"/>
      <point x="256" y="246"/>
      <point x="253" y="108"/>
      <point x="168" y="108" type="curve" smooth="yes"/>
      <point x="110" y="108"/>
      <point x="97" y="245"/>
      <point x="97" y="304" type="curve" smooth="yes"/>
      <point x="97" y="354"/>
      <point x="104" y="404"/>
      <point x="117" y="452" type="curve"/>
      <point x="128" y="442"/>
      <point x="140" y="425"/>
      <point x="156" y="425" type="curve" smooth="yes"/>
      <point x="182" y="425"/>
      <point x="189" y="446"/>
    </contour>
  </outline>
</glyph>
<glyph name="d" format="1">
  <advance width="441"/>
  <unicode hex="0064"/>
  <outline>
    <contour>
      <point x="410" y="311" type="curve" smooth="yes"/>
      <point x="410" y="463"/>
      <point x="245" y="555"/>
      <point x="105" y="555" type="curve" smooth="yes"/>
      <point x="87" y="555"/>
      <point x="18" y="555"/>
      <point x="18" y="528" type="curve" smooth="yes"/>
      <point x="18" y="509"/>
      <point x="42" y="503"/>
      <point x="55" y="492" type="curve"/>
      <point x="62" y="466"/>
      <point x="62" y="438"/>
      <point x="62" y="410" type="curve" smooth="yes"/>
      <point x="62" y="318"/>
      <point x="64" y="224"/>
      <point x="74" y="132" type="curve" smooth="yes"/>
      <point x="80" y="80"/>
      <point x="128" y="67"/>
      <point x="170" y="67" type="curve" smooth="yes"/>
      <point x="296" y="67"/>
      <point x="410" y="178"/>
    </contour>
    <contour>
      <point x="120" y="491" type="curve"/>
      <point x="202" y="481"/>
      <point x="324" y="418"/>
      <point x="324" y="317" type="curve" smooth="yes"/>
      <point x="324" y="248"/>
      <point x="272" y="178"/>
      <point x="208" y="143" type="curve" smooth="yes"/>
      <point x="189" y="132"/>
      <point x="166" y="130"/>
      <point x="145" y="125" type="curve"/>
      <point x="145" y="160"/>
      <point x="128" y="191"/>
      <point x="128" y="220" type="curve" smooth="yes"/>
      <point x="128" y="248"/>
      <point x="132" y="277"/>
      <point x="132" y="307" type="curve" smooth="yes"/>
      <point x="132" y="370"/>
      <point x="120" y="434"/>
    </contour>
  </outline>
</glyph>
<glyph name="e" format="1">
  <advance width="343"/>
  <unicode hex="0065"/>
  <outline>
    <contour>
      <point x="304" y="489" type="curve"/>
      <point x="304" y="523"/>
      <point x="262" y="532"/>
      <point x="233" y="532" type="curve" smooth="yes"/>
      <point x="220" y="532" type="line"/>
      <point x="172" y="529" type="line" smooth="yes"/>
      <point x="118" y="525"/>
      <point x="20" y="530"/>
      <point x="20" y="480" type="curve" smooth="yes"/>
      <point x="20" y="458"/>
      <point x="50" y="449"/>
      <point x="50" y="419" type="curve" smooth="yes"/>
      <point x="50" y="354"/>
      <point x="41" y="277"/>
      <point x="41" y="213" type="curve" smooth="yes"/>
      <point x="41" y="119"/>
      <point x="77" y="36"/>
      <point x="170" y="36" type="curve" smooth="yes"/>
      <point x="224" y="36"/>
      <point x="323" y="79"/>
      <point x="323" y="118" type="curve" smooth="yes"/>
      <point x="323" y="136"/>
      <point x="315" y="140"/>
      <point x="305" y="140" type="curve" smooth="yes"/>
      <point x="264" y="140"/>
      <point x="229" y="120"/>
      <point x="189" y="120" type="curve" smooth="yes"/>
      <point x="125" y="120"/>
      <point x="132" y="176"/>
      <point x="128" y="225" type="curve"/>
      <point x="160" y="228"/>
      <point x="191" y="238"/>
      <point x="223" y="244" type="curve" smooth="yes"/>
      <point x="258" y="251"/>
      <point x="323" y="247"/>
      <point x="323" y="288" type="curve" smooth="yes"/>
      <point x="323" y="311"/>
      <point x="305" y="318"/>
      <point x="278" y="318" type="curve" smooth="yes"/>
      <point x="230" y="318"/>
      <point x="177" y="311"/>
      <point x="128" y="304" type="curve"/>
      <point x="128" y="350" type="line" smooth="yes"/>
      <point x="128" y="388"/>
      <point x="127" y="425"/>
      <point x="123" y="463" type="curve"/>
      <point x="160" y="467"/>
      <point x="197" y="470"/>
      <point x="234" y="470" type="curve" smooth="yes"/>
      <point x="244" y="470"/>
      <point x="255" y="469"/>
      <point x="265" y="469" type="curve" smooth="yes"/>
      <point x="283" y="469"/>
      <point x="303" y="473"/>
    </contour>
  </outline>
</glyph>
<glyph name="f" format="1">
  <advance width="383"/>
  <unicode hex="0066"/>
  <outline>
    <contour>
      <point x="195" y="565" type="curve" smooth="yes"/>
      <point x="153" y="564"/>
      <point x="117" y="550"/>
      <point x="74" y="544" type="curve"/>
      <point x="49" y="538"/>
      <point x="30" y="539"/>
      <point x="30" y="494" type="curve" smooth="yes"/>
      <point x="30" y="473"/>
      <point x="35" y="449"/>
      <point x="35" y="430" type="curve" smooth="yes"/>
      <point x="35" y="348"/>
      <point x="35" y="266"/>
      <point x="41" y="184" type="curve" smooth="yes"/>
      <point x="44" y="136"/>
      <point x="34" y="37"/>
      <point x="72" y="37" type="curve" smooth="yes"/>
      <point x="104" y="37"/>
      <point x="101" y="87"/>
      <point x="102" y="123" type="curve" smooth="yes"/>
      <point x="103" y="161"/>
      <point x="106" y="198"/>
      <point x="108" y="236" type="curve"/>
      <point x="176" y="243"/>
      <point x="308" y="237"/>
      <point x="308" y="296" type="curve" smooth="yes"/>
      <point x="308" y="318"/>
      <point x="291" y="321"/>
      <point x="277" y="321" type="curve" smooth="yes"/>
      <point x="222" y="321"/>
      <point x="167" y="312"/>
      <point x="112" y="311" type="curve"/>
      <point x="110" y="356"/>
      <point x="105" y="402"/>
      <point x="103" y="447" type="curve"/>
      <point x="135" y="456"/>
      <point x="169" y="454"/>
      <point x="201" y="462" type="curve" smooth="yes"/>
      <point x="236" y="471"/>
      <point x="270" y="482"/>
      <point x="306" y="488" type="curve" smooth="yes"/>
      <point x="325" y="491"/>
      <point x="373" y="491"/>
      <point x="373" y="521" type="curve" smooth="yes"/>
      <point x="373" y="526"/>
      <point x="372" y="531"/>
      <point x="370" y="537" type="curve"/>
      <point x="359" y="565"/>
      <point x="268" y="565"/>
    </contour>
  </outline>
</glyph>
<glyph name="g" format="1">
  <advance width="449"/>
  <unicode hex="0067"/>
  <outline>
    <contour>
      <point x="177" y="488" type="curve" smooth="yes"/>
      <point x="73" y="488"/>
      <point x="22" y="324"/>
      <point x="22" y="234" type="curve" smooth="yes"/>
      <point x="22" y="150"/>
      <point x="62" y="45"/>
      <point x="172" y="45" type="curve" smooth="yes"/>
      <point x="261" y="45"/>
      <point x="420" y="157"/>
      <point x="420" y="254" type="curve" smooth="yes"/>
      <point x="420" y="317"/>
      <point x="355" y="335"/>
      <point x="308" y="335" type="curve" smooth="yes"/>
      <point x="264" y="335"/>
      <point x="185" y="322"/>
      <point x="185" y="287" type="curve" smooth="yes"/>
      <point x="185" y="237"/>
      <point x="280" y="245"/>
      <point x="335" y="242" type="curve"/>
      <point x="308" y="186"/>
      <point x="247" y="134"/>
      <point x="184" y="134" type="curve" smooth="yes"/>
      <point x="123" y="134"/>
      <point x="114" y="197"/>
      <point x="114" y="240" type="curve" smooth="yes"/>
      <point x="114" y="287"/>
      <point x="135" y="412"/>
      <point x="183" y="412" type="curve" smooth="yes"/>
      <point x="200" y="412"/>
      <point x="214" y="382"/>
      <point x="227" y="382" type="curve" smooth="yes"/>
      <point x="242" y="382"/>
      <point x="254" y="399"/>
      <point x="254" y="413" type="curve" smooth="yes"/>
      <point x="254" y="456"/>
      <point x="221" y="488"/>
    </contour>
  </outline>
</glyph>
<glyph name="h" format="1">
  <advance width="386"/>
  <unicode hex="0068"/>
  <outline>
    <contour>
      <point x="298" y="558" type="curve" smooth="yes"/>
      <point x="293" y="562"/>
      <point x="286" y="564"/>
      <point x="279" y="564" type="curve" smooth="yes"/>
      <point x="245" y="564"/>
      <point x="242" y="514"/>
      <point x="242" y="478" type="curve" smooth="yes"/>
      <point x="242" y="431"/>
      <point x="243" y="403"/>
      <point x="244" y="376" type="curve"/>
      <point x="209" y="376"/>
      <point x="175" y="374"/>
      <point x="141" y="373" type="curve"/>
      <point x="135" y="432"/>
      <point x="126" y="536"/>
      <point x="72" y="536" type="curve" smooth="yes"/>
      <point x="35" y="536"/>
      <point x="30" y="496"/>
      <point x="30" y="457" type="curve" smooth="yes"/>
      <point x="30" y="442"/>
      <point x="31" y="426"/>
      <point x="31" y="413" type="curve" smooth="yes"/>
      <point x="31" y="360"/>
      <point x="34" y="305"/>
      <point x="47" y="252" type="curve" smooth="yes"/>
      <point x="62" y="189"/>
      <point x="73" y="74"/>
      <point x="120" y="74" type="curve" smooth="yes"/>
      <point x="143" y="74"/>
      <point x="147" y="90"/>
      <point x="147" y="110" type="curve" smooth="yes"/>
      <point x="147" y="155"/>
      <point x="142" y="200"/>
      <point x="142" y="245" type="curve" smooth="yes"/>
      <point x="142" y="262"/>
      <point x="143" y="280"/>
      <point x="145" y="298" type="curve"/>
      <point x="248" y="323" type="line"/>
      <point x="254" y="271"/>
      <point x="260" y="220"/>
      <point x="273" y="168" type="curve" smooth="yes"/>
      <point x="281" y="133"/>
      <point x="288" y="62"/>
      <point x="326" y="62" type="curve" smooth="yes"/>
      <point x="358" y="62"/>
      <point x="361" y="104"/>
      <point x="361" y="139" type="curve" smooth="yes"/>
      <point x="361" y="163" type="line" smooth="yes"/>
      <point x="361" y="199"/>
      <point x="366" y="233"/>
      <point x="366" y="268" type="curve" smooth="yes"/>
      <point x="366" y="349"/>
      <point x="349" y="519"/>
    </contour>
  </outline>
</glyph>
<glyph name="i" format="1">
  <advance width="166"/>
  <unicode hex="0069"/>
  <outline>
    <contour>
      <point x="73" y="567" type="curve" smooth="yes"/>
      <point x="36" y="567"/>
      <point x="30" y="522"/>
      <point x="30" y="487" type="curve" smooth="yes"/>
      <point x="31" y="329"/>
      <point x="38" y="185"/>
      <point x="60" y="43" type="curve" smooth="yes"/>
      <point x="65" y="8"/>
      <point x="63" y="-58"/>
      <point x="104" y="-58" type="curve" smooth="yes"/>
      <point x="132" y="-58"/>
      <point x="136" y="-37"/>
      <point x="136" y="-6" type="curve" smooth="yes"/>
      <point x="136" y="41"/>
      <point x="130" y="82"/>
      <point x="130" y="127" type="curve" smooth="yes"/>
      <point x="130" y="189" type="line" smooth="yes"/>
      <point x="130" y="292"/>
      <point x="122" y="397"/>
      <point x="116" y="500" type="curve"/>
      <point x="112" y="532"/>
      <point x="107" y="567"/>
    </contour>
  </outline>
</glyph>
<glyph name="j" format="1">
  <advance width="356"/>
  <unicode hex="006A"/>
  <outline>
    <contour>
      <point x="248" y="578" type="curve"/>
      <point x="243" y="580"/>
      <point x="238" y="582"/>
      <point x="233" y="582" type="curve" smooth="yes"/>
      <point x="199" y="582"/>
      <point x="190" y="544"/>
      <point x="190" y="513" type="curve" smooth="yes"/>
      <point x="190" y="416"/>
      <point x="222" y="321"/>
      <point x="222" y="217" type="curve" smooth="yes"/>
      <point x="222" y="183"/>
      <point x="221" y="146"/>
      <point x="192" y="146" type="curve" smooth="yes"/>
      <point x="160" y="146"/>
      <point x="117" y="176"/>
      <point x="93" y="207" type="curve" smooth="yes"/>
      <point x="79" y="225"/>
      <point x="75" y="268"/>
      <point x="46" y="268" type="curve" smooth="yes"/>
      <point x="22" y="268"/>
      <point x="10" y="245"/>
      <point x="10" y="222" type="curve" smooth="yes"/>
      <point x="10" y="126"/>
      <point x="101" y="30"/>
      <point x="202" y="30" type="curve" smooth="yes"/>
      <point x="290" y="30"/>
      <point x="336" y="110"/>
      <point x="336" y="194" type="curve" smooth="yes"/>
      <point x="336" y="302"/>
      <point x="307" y="413"/>
      <point x="271" y="541" type="curve" smooth="yes"/>
      <point x="267" y="554"/>
      <point x="265" y="568"/>
    </contour>
  </outline>
</glyph>
<glyph name="k" format="1">
  <advance width="420"/>
  <unicode hex="006B"/>
  <outline>
    <contour>
      <point x="360" y="551" type="curve" smooth="yes"/>
      <point x="360" y="569"/>
      <point x="349" y="585"/>
      <point x="328" y="585" type="curve" smooth="yes"/>
      <point x="298" y="585"/>
      <point x="269" y="538"/>
      <point x="244" y="515" type="curve" smooth="yes"/>
      <point x="203" y="477"/>
      <point x="159" y="442"/>
      <point x="117" y="406" type="curve"/>
      <point x="109" y="459"/>
      <point x="101" y="565"/>
      <point x="59" y="565" type="curve"/>
      <point x="31" y="558"/>
      <point x="30" y="532"/>
      <point x="30" y="503" type="curve" smooth="yes"/>
      <point x="30" y="478"/>
      <point x="38" y="78"/>
      <point x="104" y="78" type="curve" smooth="yes"/>
      <point x="126" y="78"/>
      <point x="128" y="104"/>
      <point x="128" y="119" type="curve" smooth="yes"/>
      <point x="128" y="152"/>
      <point x="121" y="182"/>
      <point x="121" y="221" type="curve" smooth="yes"/>
      <point x="121" y="255"/>
      <point x="122" y="288"/>
      <point x="122" y="322" type="curve"/>
      <point x="159" y="273"/>
      <point x="198" y="225"/>
      <point x="238" y="177" type="curve" smooth="yes"/>
      <point x="269" y="139"/>
      <point x="325" y="84"/>
      <point x="369" y="84" type="curve" smooth="yes"/>
      <point x="388" y="84"/>
      <point x="410" y="96"/>
      <point x="410" y="120" type="curve" smooth="yes"/>
      <point x="410" y="136"/>
      <point x="400" y="151"/>
      <point x="393" y="165" type="curve" smooth="yes"/>
      <point x="347" y="250"/>
      <point x="267" y="310"/>
      <point x="194" y="371" type="curve"/>
      <point x="251" y="421"/>
      <point x="360" y="493"/>
    </contour>
  </outline>
</glyph>
<glyph name="l" format="1">
  <advance width="409"/>
  <unicode hex="006C"/>
  <outline>
    <contour>
      <point x="132" y="470" type="curve" smooth="yes"/>
      <point x="125" y="495"/>
      <point x="111" y="542"/>
      <point x="76" y="542" type="curve" smooth="yes"/>
      <point x="49" y="542"/>
      <point x="47" y="517"/>
      <point x="47" y="493" type="curve" smooth="yes"/>
      <point x="47" y="478"/>
      <point x="48" y="464"/>
      <point x="48" y="450" type="curve" smooth="yes"/>
      <point x="48" y="384"/>
      <point x="40" y="319"/>
      <point x="40" y="244" type="curve" smooth="yes"/>
      <point x="40" y="159"/>
      <point x="42" y="55"/>
      <point x="149" y="55" type="curve" smooth="yes"/>
      <point x="158" y="55"/>
      <point x="399" y="56"/>
      <point x="399" y="134" type="curve" smooth="yes"/>
      <point x="399" y="172"/>
      <point x="348" y="178"/>
      <point x="307" y="178" type="curve" smooth="yes"/>
      <point x="259" y="178"/>
      <point x="211" y="173"/>
      <point x="154" y="167" type="curve"/>
      <point x="144" y="270"/>
      <point x="159" y="366"/>
    </contour>
  </outline>
</glyph>
<glyph name="m" format="1">
  <advance width="601"/>
  <unicode hex="006D"/>
  <outline>
    <contour>
      <point x="278" y="349" type="curve"/>
      <point x="272" y="400"/>
      <point x="274" y="575"/>
      <point x="185" y="575" type="curve" smooth="yes"/>
      <point x="145" y="575"/>
      <point x="126" y="536"/>
      <point x="114" y="505" type="curve" smooth="yes"/>
      <point x="66" y="384"/>
      <point x="40" y="254"/>
      <point x="16" y="125" type="curve" smooth="yes"/>
      <point x="13" y="110"/>
      <point x="10" y="92"/>
      <point x="10" y="75" type="curve" smooth="yes"/>
      <point x="10" y="48"/>
      <point x="21" y="33"/>
      <point x="43" y="33" type="curve" smooth="yes"/>
      <point x="81" y="33"/>
      <point x="92" y="85"/>
      <point x="99" y="118" type="curve" smooth="yes"/>
      <point x="118" y="203"/>
      <point x="136" y="288"/>
      <point x="160" y="372" type="curve"/>
      <point x="161" y="299"/>
      <point x="168" y="227"/>
      <point x="182" y="155" type="curve" smooth="yes"/>
      <point x="190" y="115"/>
      <point x="205" y="56"/>
      <point x="257" y="56" type="curve" smooth="yes"/>
      <point x="316" y="57"/>
      <point x="333" y="136"/>
      <point x="344" y="186" type="curve" smooth="yes"/>
      <point x="360" y="260"/>
      <point x="380" y="341"/>
      <point x="419" y="408" type="curve"/>
      <point x="436" y="333"/>
      <point x="438" y="254"/>
      <point x="457" y="178" type="curve" smooth="yes"/>
      <point x="471" y="119"/>
      <point x="501" y="8"/>
      <point x="546" y="8" type="curve" smooth="yes"/>
      <point x="576" y="8"/>
      <point x="581" y="37"/>
      <point x="581" y="60" type="curve" smooth="yes"/>
      <point x="581" y="94"/>
      <point x="569" y="123"/>
      <point x="569" y="159" type="curve" smooth="yes"/>
      <point x="569" y="214" type="line" smooth="yes"/>
      <point x="569" y="290"/>
      <point x="563" y="574"/>
      <point x="441" y="574" type="curve" smooth="yes"/>
      <point x="351" y="574"/>
      <point x="311" y="430"/>
    </contour>
  </outline>
</glyph>
<glyph name="n" format="1">
  <advance width="495"/>
  <unicode hex="006E"/>
  <outline>
    <contour>
      <point x="449" y="614" type="curve" smooth="yes"/>
      <point x="448" y="634"/>
      <point x="437" y="659"/>
      <point x="412" y="659" type="curve" smooth="yes"/>
      <point x="368" y="659"/>
      <point x="368" y="583"/>
      <point x="362" y="543" type="curve" smooth="yes"/>
      <point x="350" y="459"/>
      <point x="342" y="375"/>
      <point x="334" y="290" type="curve"/>
      <point x="302" y="358"/>
      <point x="274" y="427"/>
      <point x="242" y="494" type="curve" smooth="yes"/>
      <point x="224" y="532"/>
      <point x="198" y="589"/>
      <point x="155" y="589" type="curve" smooth="yes"/>
      <point x="116" y="589"/>
      <point x="102" y="544"/>
      <point x="93" y="513" type="curve" smooth="yes"/>
      <point x="67" y="420"/>
      <point x="49" y="322"/>
      <point x="28" y="228" type="curve" smooth="yes"/>
      <point x="19" y="190"/>
      <point x="10" y="148"/>
      <point x="10" y="109" type="curve" smooth="yes"/>
      <point x="10" y="92"/>
      <point x="15" y="64"/>
      <point x="40" y="64" type="curve" smooth="yes"/>
      <point x="69" y="64"/>
      <point x="76" y="91"/>
      <point x="85" y="112" type="curve"/>
      <point x="120" y="227"/>
      <point x="133" y="344"/>
      <point x="156" y="459" type="curve"/>
      <point x="198" y="349"/>
      <point x="233" y="240"/>
      <point x="292" y="136" type="curve" smooth="yes"/>
      <point x="307" y="109"/>
      <point x="329" y="79"/>
      <point x="365" y="79" type="curve" smooth="yes"/>
      <point x="424" y="79"/>
      <point x="439" y="146"/>
      <point x="446" y="195" type="curve"/>
      <point x="452" y="263"/>
      <point x="455" y="331"/>
      <point x="455" y="399" type="curve" smooth="yes"/>
      <point x="455" y="470"/>
      <point x="453" y="542"/>
    </contour>
  </outline>
</glyph>
<glyph name="o" format="1">
  <advance width="335"/>
  <unicode hex="006F"/>
  <outline>
    <contour>
      <point x="83" y="530" type="curve" smooth="yes"/>
      <point x="41" y="530"/>
      <point x="48" y="493"/>
      <point x="44" y="467" type="curve" smooth="yes"/>
      <point x="34" y="407"/>
      <point x="20" y="349"/>
      <point x="20" y="282" type="curve" smooth="yes"/>
      <point x="20" y="193"/>
      <point x="46" y="25"/>
      <point x="169" y="25" type="curve" smooth="yes"/>
      <point x="271" y="25"/>
      <point x="315" y="152"/>
      <point x="315" y="238" type="curve" smooth="yes"/>
      <point x="315" y="349"/>
      <point x="261" y="428"/>
      <point x="166" y="494" type="curve" smooth="yes"/>
      <point x="143" y="510"/>
      <point x="112" y="530"/>
    </contour>
    <contour>
      <point x="132" y="429" type="curve"/>
      <point x="192" y="390"/>
      <point x="223" y="323"/>
      <point x="224" y="254" type="curve" smooth="yes"/>
      <point x="224" y="251"/>
      <point x="220" y="125"/>
      <point x="171" y="125" type="curve" smooth="yes"/>
      <point x="130" y="125"/>
      <point x="122" y="255"/>
      <point x="122" y="301" type="curve" smooth="yes"/>
      <point x="122" y="344"/>
      <point x="125" y="387"/>
    </contour>
  </outline>
</glyph>
<glyph name="p" format="1">
  <advance width="391"/>
  <unicode hex="0070"/>
  <outline>
    <contour>
      <point x="92" y="509" type="curve" smooth="yes"/>
      <point x="65" y="509"/>
      <point x="24" y="458"/>
      <point x="20" y="430" type="curve"/>
      <point x="20" y="394"/>
      <point x="58" y="393"/>
      <point x="61" y="372" type="curve" smooth="yes"/>
      <point x="65" y="338"/>
      <point x="67" y="304"/>
      <point x="73" y="270" type="curve" smooth="yes"/>
      <point x="89" y="171"/>
      <point x="106" y="72"/>
      <point x="131" y="-25" type="curve" smooth="yes"/>
      <point x="135" y="-43"/>
      <point x="146" y="-69"/>
      <point x="170" y="-69" type="curve" smooth="yes"/>
      <point x="205" y="-69"/>
      <point x="207" y="-30"/>
      <point x="207" y="-1" type="curve" smooth="yes"/>
      <point x="207" y="49" type="line" smooth="yes"/>
      <point x="207" y="110"/>
      <point x="201" y="172"/>
      <point x="195" y="234" type="curve"/>
      <point x="275" y="270"/>
      <point x="371" y="324"/>
      <point x="371" y="413" type="curve" smooth="yes"/>
      <point x="371" y="486"/>
      <point x="300" y="510"/>
      <point x="235" y="510" type="curve" smooth="yes"/>
      <point x="205" y="510"/>
      <point x="174" y="506"/>
      <point x="144" y="506" type="curve" smooth="yes"/>
      <point x="127" y="506"/>
      <point x="109" y="509"/>
    </contour>
    <contour>
      <point x="240" y="431" type="curve" smooth="yes"/>
      <point x="261" y="431"/>
      <point x="292" y="429"/>
      <point x="292" y="413" type="curve" smooth="yes"/>
      <point x="292" y="385"/>
      <point x="223" y="334"/>
      <point x="183" y="306" type="curve"/>
      <point x="156" y="425" type="line"/>
      <point x="179" y="428"/>
      <point x="201" y="431"/>
    </contour>
  </outline>
</glyph>
<glyph name="q" format="1">
  <advance width="476"/>
  <unicode hex="0071"/>
  <outline>
    <contour>
      <point x="196" y="633" type="curve"/>
      <point x="179" y="647"/>
      <point x="161" y="666"/>
      <point x="135" y="666" type="curve" smooth="yes"/>
      <point x="39" y="666"/>
      <point x="20" y="497"/>
      <point x="20" y="397" type="curve" smooth="yes"/>
      <point x="20" y="327"/>
      <point x="31" y="256"/>
      <point x="53" y="190" type="curve" smooth="yes"/>
      <point x="81" y="108"/>
      <point x="140" y="8"/>
      <point x="237" y="8" type="curve" smooth="yes"/>
      <point x="289" y="8"/>
      <point x="325" y="37"/>
      <point x="360" y="68" type="curve"/>
      <point x="382" y="44"/>
      <point x="410" y="9"/>
      <point x="439" y="9" type="curve" smooth="yes"/>
      <point x="459" y="9"/>
      <point x="466" y="21"/>
      <point x="466" y="35" type="curve" smooth="yes"/>
      <point x="466" y="70"/>
      <point x="421" y="108"/>
      <point x="407" y="141" type="curve"/>
      <point x="407" y="157"/>
      <point x="415" y="174"/>
      <point x="419" y="189" type="curve" smooth="yes"/>
      <point x="427" y="217"/>
      <point x="431" y="246"/>
      <point x="431" y="275" type="curve" smooth="yes"/>
      <point x="431" y="391"/>
      <point x="375" y="517"/>
      <point x="277" y="582" type="curve" smooth="yes"/>
      <point x="249" y="600"/>
      <point x="219" y="612"/>
    </contour>
    <contour>
      <point x="140" y="551" type="curve"/>
      <point x="148" y="542"/>
      <point x="165" y="519"/>
      <point x="175" y="519" type="curve" smooth="yes"/>
      <point x="188" y="519"/>
      <point x="202" y="531"/>
      <point x="214" y="531" type="curve" smooth="yes"/>
      <point x="218" y="531"/>
      <point x="222" y="529"/>
      <point x="226" y="526" type="curve"/>
      <point x="294" y="470"/>
      <point x="335" y="383"/>
      <point x="335" y="296" type="curve" smooth="yes"/>
      <point x="335" y="282"/>
      <point x="334" y="269"/>
      <point x="332" y="256" type="curve"/>
      <point x="293" y="300"/>
      <point x="251" y="384"/>
      <point x="205" y="384" type="curve" smooth="yes"/>
      <point x="190" y="384"/>
      <point x="178" y="376"/>
      <point x="178" y="361" type="curve" smooth="yes"/>
      <point x="178" y="336"/>
      <point x="192" y="312"/>
      <point x="202" y="292" type="curve" smooth="yes"/>
      <point x="228" y="241"/>
      <point x="259" y="193"/>
      <point x="292" y="146" type="curve"/>
      <point x="276" y="131"/>
      <point x="258" y="108"/>
      <point x="236" y="108" type="curve" smooth="yes"/>
      <point x="146" y="108"/>
      <point x="118" y="303"/>
      <point x="118" y="397" type="curve" smooth="yes"/>
      <point x="118" y="449"/>
      <point x="124" y="502"/>
    </contour>
  </outline>
</glyph>
<glyph name="r" format="1">
  <advance width="405"/>
  <unicode hex="0072"/>
  <outline>
    <contour>
      <point x="319" y="574" type="curve" smooth="yes"/>
      <point x="319" y="607"/>
      <point x="293" y="634"/>
      <point x="257" y="634" type="curve" smooth="yes"/>
      <point x="196" y="634"/>
      <point x="128" y="589"/>
      <point x="86" y="543" type="curve"/>
      <point x="77" y="556"/>
      <point x="66" y="576"/>
      <point x="51" y="582" type="curve"/>
      <point x="25" y="582"/>
      <point x="20" y="561"/>
      <point x="20" y="520" type="curve" smooth="yes"/>
      <point x="20" y="423"/>
      <point x="31" y="313"/>
      <point x="45" y="215" type="curve" smooth="yes"/>
      <point x="54" y="155"/>
      <point x="52" y="43"/>
      <point x="97" y="43" type="curve" smooth="yes"/>
      <point x="122" y="43"/>
      <point x="125" y="72"/>
      <point x="125" y="96" type="curve" smooth="yes"/>
      <point x="125" y="119"/>
      <point x="122" y="143"/>
      <point x="121" y="165" type="curve" smooth="yes"/>
      <point x="118" y="217"/>
      <point x="120" y="269"/>
      <point x="118" y="320" type="curve"/>
      <point x="151" y="267"/>
      <point x="192" y="220"/>
      <point x="230" y="171" type="curve" smooth="yes"/>
      <point x="263" y="128"/>
      <point x="318" y="62"/>
      <point x="358" y="62" type="curve" smooth="yes"/>
      <point x="384" y="62"/>
      <point x="395" y="85"/>
      <point x="395" y="106" type="curve" smooth="yes"/>
      <point x="395" y="137"/>
      <point x="374" y="152"/>
      <point x="358" y="172" type="curve" smooth="yes"/>
      <point x="341" y="193"/>
      <point x="327" y="217"/>
      <point x="309" y="237" type="curve" smooth="yes"/>
      <point x="268" y="281"/>
      <point x="215" y="319"/>
      <point x="168" y="357" type="curve"/>
      <point x="232" y="416"/>
      <point x="319" y="495"/>
    </contour>
    <contour>
      <point x="244" y="579" type="curve" smooth="yes"/>
      <point x="251" y="579"/>
      <point x="261" y="575"/>
      <point x="261" y="565" type="curve" smooth="yes"/>
      <point x="261" y="529"/>
      <point x="167" y="425"/>
      <point x="113" y="371" type="curve"/>
      <point x="109" y="404"/>
      <point x="103" y="438"/>
      <point x="103" y="471" type="curve" smooth="yes"/>
      <point x="103" y="515"/>
      <point x="202" y="579"/>
    </contour>
  </outline>
</glyph>
<glyph name="s" format="1">
  <advance width="397"/>
  <unicode hex="0073"/>
  <outline>
    <contour>
      <point x="268" y="542" type="curve" smooth="yes"/>
      <point x="240" y="561"/>
      <point x="204" y="571"/>
      <point x="169" y="571" type="curve" smooth="yes"/>
      <point x="120" y="571"/>
      <point x="50" y="551"/>
      <point x="50" y="488" type="curve" smooth="yes"/>
      <point x="50" y="404"/>
      <point x="245" y="334"/>
      <point x="245" y="207" type="curve" smooth="yes"/>
      <point x="245" y="170"/>
      <point x="216" y="146"/>
      <point x="181" y="146" type="curve" smooth="yes"/>
      <point x="158" y="146"/>
      <point x="134" y="151"/>
      <point x="112" y="159" type="curve"/>
      <point x="90" y="166"/>
      <point x="70" y="189"/>
      <point x="48" y="189" type="curve" smooth="yes"/>
      <point x="30" y="189"/>
      <point x="20" y="178"/>
      <point x="20" y="155" type="curve" smooth="yes"/>
      <point x="20" y="81"/>
      <point x="134" y="27"/>
      <point x="211" y="27" type="curve" smooth="yes"/>
      <point x="301" y="27"/>
      <point x="377" y="99"/>
      <point x="377" y="195" type="curve" smooth="yes"/>
      <point x="377" y="317"/>
      <point x="272" y="401"/>
      <point x="187" y="471" type="curve"/>
      <point x="216" y="469"/>
      <point x="254" y="457"/>
      <point x="277" y="457" type="curve" smooth="yes"/>
      <point x="293" y="457"/>
      <point x="305" y="467"/>
      <point x="305" y="484" type="curve" smooth="yes"/>
      <point x="305" y="510"/>
      <point x="287" y="529"/>
    </contour>
  </outline>
</glyph>
<glyph name="t" format="1">
  <advance width="466"/>
  <unicode hex="0074"/>
  <outline>
    <contour>
      <point x="50" y="526" type="curve"/>
      <point x="35" y="525"/>
      <point x="10" y="519"/>
      <point x="10" y="499" type="curve" smooth="yes"/>
      <point x="10" y="443"/>
      <point x="129" y="457"/>
      <point x="192" y="453" type="curve"/>
      <point x="195" y="367"/>
      <point x="200" y="283"/>
      <point x="212" y="196" type="curve" smooth="yes"/>
      <point x="220" y="139"/>
      <point x="220" y="28"/>
      <point x="264" y="28" type="curve" smooth="yes"/>
      <point x="291" y="28"/>
      <point x="295" y="71"/>
      <point x="295" y="123" type="curve" smooth="yes"/>
      <point x="295" y="143"/>
      <point x="294" y="163"/>
      <point x="294" y="184" type="curve" smooth="yes"/>
      <point x="294" y="202"/>
      <point x="294" y="220"/>
      <point x="296" y="236" type="curve"/>
      <point x="297" y="249"/>
      <point x="298" y="262"/>
      <point x="298" y="275" type="curve" smooth="yes"/>
      <point x="298" y="337"/>
      <point x="285" y="396"/>
      <point x="270" y="457" type="curve"/>
      <point x="311" y="461"/>
      <point x="351" y="463"/>
      <point x="391" y="468" type="curve" smooth="yes"/>
      <point x="414" y="471"/>
      <point x="456" y="471"/>
      <point x="456" y="501" type="curve" smooth="yes"/>
      <point x="456" y="530"/>
      <point x="398" y="526"/>
      <point x="372" y="528" type="curve" smooth="yes"/>
      <point x="314" y="531"/>
      <point x="254" y="533"/>
      <point x="195" y="533" type="curve" smooth="yes"/>
      <point x="146" y="533"/>
      <point x="98" y="531"/>
    </contour>
  </outline>
</glyph>
<glyph name="u" format="1">
  <advance width="325"/>
  <unicode hex="0075"/>
  <outline>
    <contour>
      <point x="267" y="541" type="curve" smooth="yes"/>
      <point x="250" y="541"/>
      <point x="245" y="523"/>
      <point x="243" y="510" type="curve" smooth="yes"/>
      <point x="220" y="373"/>
      <point x="216" y="92"/>
      <point x="175" y="92" type="curve" smooth="yes"/>
      <point x="141" y="92"/>
      <point x="110" y="321"/>
      <point x="91" y="432" type="curve" smooth="yes"/>
      <point x="85" y="465"/>
      <point x="83" y="534"/>
      <point x="50" y="534" type="curve" smooth="yes"/>
      <point x="23" y="534"/>
      <point x="20" y="504"/>
      <point x="20" y="476" type="curve" smooth="yes"/>
      <point x="20" y="413"/>
      <point x="33" y="347"/>
      <point x="45" y="285" type="curve" smooth="yes"/>
      <point x="63" y="187"/>
      <point x="93" y="16"/>
      <point x="175" y="16" type="curve" smooth="yes"/>
      <point x="282" y="16"/>
      <point x="305" y="255"/>
      <point x="305" y="373" type="curve" smooth="yes"/>
      <point x="305" y="425"/>
      <point x="301" y="541"/>
    </contour>
  </outline>
</glyph>
<glyph name="v" format="1">
  <advance width="386"/>
  <unicode hex="0076"/>
  <outline>
    <contour>
      <point x="339" y="604" type="curve" smooth="yes"/>
      <point x="314" y="604"/>
      <point x="303" y="562"/>
      <point x="297" y="539" type="curve" smooth="yes"/>
      <point x="282" y="488"/>
      <point x="261" y="439"/>
      <point x="245" y="388" type="curve" smooth="yes"/>
      <point x="227" y="328"/>
      <point x="215" y="267"/>
      <point x="197" y="206" type="curve"/>
      <point x="178" y="251"/>
      <point x="162" y="296"/>
      <point x="145" y="342" type="curve" smooth="yes"/>
      <point x="123" y="403"/>
      <point x="98" y="513"/>
      <point x="43" y="513" type="curve" smooth="yes"/>
      <point x="21" y="513"/>
      <point x="10" y="494"/>
      <point x="10" y="474" type="curve" smooth="yes"/>
      <point x="10" y="414"/>
      <point x="35" y="342"/>
      <point x="50" y="282" type="curve" smooth="yes"/>
      <point x="74" y="184"/>
      <point x="119" y="7"/>
      <point x="203" y="7" type="curve" smooth="yes"/>
      <point x="259" y="7"/>
      <point x="280" y="64"/>
      <point x="291" y="112" type="curve" smooth="yes"/>
      <point x="317" y="232"/>
      <point x="340" y="351"/>
      <point x="360" y="473" type="curve" smooth="yes"/>
      <point x="365" y="505"/>
      <point x="376" y="537"/>
      <point x="376" y="569" type="curve" smooth="yes"/>
      <point x="376" y="600"/>
      <point x="360" y="604"/>
    </contour>
  </outline>
</glyph>
<glyph name="w" format="1">
  <advance width="504"/>
  <unicode hex="0077"/>
  <outline>
    <contour>
      <point x="481" y="439" type="curve" smooth="yes"/>
      <point x="481" y="458"/>
      <point x="481" y="509"/>
      <point x="450" y="509" type="curve" smooth="yes"/>
      <point x="412" y="508"/>
      <point x="409" y="435"/>
      <point x="401" y="397" type="curve" smooth="yes"/>
      <point x="384" y="315"/>
      <point x="376" y="233"/>
      <point x="361" y="151" type="curve"/>
      <point x="332" y="239"/>
      <point x="306" y="407"/>
      <point x="239" y="407" type="curve" smooth="yes"/>
      <point x="206" y="407"/>
      <point x="192" y="369"/>
      <point x="183" y="343" type="curve" smooth="yes"/>
      <point x="158" y="274"/>
      <point x="141" y="202"/>
      <point x="121" y="132" type="curve"/>
      <point x="110" y="227"/>
      <point x="108" y="326"/>
      <point x="93" y="421" type="curve"/>
      <point x="90" y="436"/>
      <point x="87" y="455"/>
      <point x="61" y="455" type="curve" smooth="yes"/>
      <point x="28" y="455"/>
      <point x="31" y="413"/>
      <point x="30" y="391" type="curve"/>
      <point x="32" y="347"/>
      <point x="33" y="302"/>
      <point x="33" y="258" type="curve" smooth="yes"/>
      <point x="33" y="166"/>
      <point x="37" y="-13"/>
      <point x="113" y="-13" type="curve" smooth="yes"/>
      <point x="148" y="-13"/>
      <point x="165" y="23"/>
      <point x="174" y="53" type="curve" smooth="yes"/>
      <point x="197" y="129"/>
      <point x="209" y="207"/>
      <point x="233" y="283" type="curve"/>
      <point x="250" y="218"/>
      <point x="265" y="153"/>
      <point x="285" y="89" type="curve" smooth="yes"/>
      <point x="299" y="43"/>
      <point x="320" y="-24"/>
      <point x="375" y="-24" type="curve" smooth="yes"/>
      <point x="465" y="-24"/>
      <point x="484" y="205"/>
      <point x="484" y="335" type="curve" smooth="yes"/>
      <point x="484" y="370"/>
      <point x="481" y="404"/>
    </contour>
  </outline>
</glyph>
<glyph name="x" format="1">
  <advance width="344"/>
  <unicode hex="0078"/>
  <outline>
    <contour>
      <point x="281" y="505" type="curve" smooth="yes"/>
      <point x="281" y="526"/>
      <point x="269" y="540"/>
      <point x="253" y="540" type="curve" smooth="yes"/>
      <point x="244" y="540"/>
      <point x="235" y="536"/>
      <point x="229" y="529" type="curve" smooth="yes"/>
      <point x="218" y="516"/>
      <point x="211" y="498"/>
      <point x="204" y="482" type="curve"/>
      <point x="162" y="365" type="line"/>
      <point x="138" y="393"/>
      <point x="117" y="422"/>
      <point x="94" y="450" type="curve" smooth="yes"/>
      <point x="82" y="464"/>
      <point x="67" y="480"/>
      <point x="45" y="480" type="curve" smooth="yes"/>
      <point x="34" y="480"/>
      <point x="20" y="473"/>
      <point x="20" y="457" type="curve" smooth="yes"/>
      <point x="20" y="444"/>
      <point x="26" y="430"/>
      <point x="32" y="418" type="curve" smooth="yes"/>
      <point x="52" y="378"/>
      <point x="76" y="338"/>
      <point x="103" y="302" type="curve"/>
      <point x="112" y="291"/>
      <point x="122" y="279"/>
      <point x="127" y="265" type="curve"/>
      <point x="127" y="251"/>
      <point x="123" y="238"/>
      <point x="120" y="225" type="curve"/>
      <point x="106" y="174"/>
      <point x="96" y="124"/>
      <point x="86" y="73" type="curve" smooth="yes"/>
      <point x="83" y="55"/>
      <point x="80" y="36"/>
      <point x="80" y="17" type="curve" smooth="yes"/>
      <point x="80" y="0"/>
      <point x="82" y="-21"/>
      <point x="106" y="-21" type="curve" smooth="yes"/>
      <point x="126" y="-21"/>
      <point x="137" y="8"/>
      <point x="143" y="27" type="curve" smooth="yes"/>
      <point x="160" y="83"/>
      <point x="177" y="139"/>
      <point x="196" y="195" type="curve"/>
      <point x="221" y="173"/>
      <point x="243" y="148"/>
      <point x="268" y="126" type="curve" smooth="yes"/>
      <point x="277" y="118"/>
      <point x="290" y="109"/>
      <point x="302" y="109" type="curve" smooth="yes"/>
      <point x="314" y="109"/>
      <point x="324" y="118"/>
      <point x="324" y="131" type="curve" smooth="yes"/>
      <point x="324" y="138"/>
      <point x="322" y="146"/>
      <point x="318" y="151" type="curve"/>
      <point x="289" y="193"/>
      <point x="253" y="233"/>
      <point x="228" y="278" type="curve"/>
      <point x="226" y="281"/>
      <point x="225" y="284"/>
      <point x="225" y="288" type="curve" smooth="yes"/>
      <point x="225" y="296"/>
      <point x="229" y="304"/>
      <point x="230" y="311" type="curve"/>
      <point x="247" y="363"/>
      <point x="263" y="416"/>
      <point x="276" y="469" type="curve" smooth="yes"/>
      <point x="279" y="480"/>
      <point x="281" y="493"/>
    </contour>
  </outline>
</glyph>
<glyph name="y" format="1">
  <advance width="379"/>
  <unicode hex="0079"/>
  <outline>
    <contour>
      <point x="344" y="475" type="curve" smooth="yes"/>
      <point x="341" y="494"/>
      <point x="333" y="532"/>
      <point x="305" y="532" type="curve" smooth="yes"/>
      <point x="289" y="532"/>
      <point x="279" y="519"/>
      <point x="273" y="503" type="curve"/>
      <point x="256" y="448"/>
      <point x="260" y="384"/>
      <point x="252" y="327" type="curve"/>
      <point x="89" y="465" type="line"/>
      <point x="75" y="476"/>
      <point x="57" y="490"/>
      <point x="36" y="490" type="curve" smooth="yes"/>
      <point x="24" y="490"/>
      <point x="14" y="479"/>
      <point x="10" y="467" type="curve"/>
      <point x="10" y="452"/>
      <point x="22" y="437"/>
      <point x="32" y="426" type="curve" smooth="yes"/>
      <point x="62" y="391"/>
      <point x="89" y="356"/>
      <point x="123" y="325" type="curve" smooth="yes"/>
      <point x="162" y="291"/>
      <point x="207" y="263"/>
      <point x="250" y="234" type="curve"/>
      <point x="250" y="189" type="line" smooth="yes"/>
      <point x="250" y="148"/>
      <point x="251" y="107"/>
      <point x="252" y="66" type="curve"/>
      <point x="255" y="40"/>
      <point x="256" y="12"/>
      <point x="264" y="-14" type="curve"/>
      <point x="270" y="-30"/>
      <point x="284" y="-45"/>
      <point x="304" y="-45" type="curve" smooth="yes"/>
      <point x="323" y="-45"/>
      <point x="338" y="-28"/>
      <point x="341" y="-10" type="curve"/>
      <point x="342" y="-2"/>
      <point x="342" y="5"/>
      <point x="342" y="39" type="curve" smooth="yes"/>
      <point x="342" y="48"/>
      <point x="342" y="56"/>
      <point x="343" y="65" type="curve" smooth="yes"/>
      <point x="351" y="129"/>
      <point x="359" y="192"/>
      <point x="359" y="279" type="curve" smooth="yes"/>
      <point x="359" y="342"/>
      <point x="355" y="406"/>
    </contour>
  </outline>
</glyph>
<glyph name="z" format="1">
  <advance width="428"/>
  <unicode hex="007A"/>
  <outline>
    <contour>
      <point x="219" y="503" type="curve"/>
      <point x="182" y="503"/>
      <point x="10" y="460"/>
      <point x="10" y="406" type="curve" smooth="yes"/>
      <point x="10" y="391"/>
      <point x="15" y="377"/>
      <point x="31" y="377" type="curve" smooth="yes"/>
      <point x="55" y="377"/>
      <point x="79" y="389"/>
      <point x="100" y="397" type="curve" smooth="yes"/>
      <point x="135" y="410"/>
      <point x="170" y="422"/>
      <point x="209" y="428" type="curve"/>
      <point x="197" y="334"/>
      <point x="139" y="240"/>
      <point x="139" y="145" type="curve" smooth="yes"/>
      <point x="139" y="101"/>
      <point x="167" y="66"/>
      <point x="219" y="66" type="curve" smooth="yes"/>
      <point x="270" y="66"/>
      <point x="328" y="87"/>
      <point x="378" y="107" type="curve" smooth="yes"/>
      <point x="412" y="120"/>
      <point x="463" y="142"/>
      <point x="463" y="181" type="curve" smooth="yes"/>
      <point x="463" y="190"/>
      <point x="458" y="201"/>
      <point x="444" y="201" type="curve" smooth="yes"/>
      <point x="430" y="201"/>
      <point x="409" y="191"/>
      <point x="391" y="184" type="curve" smooth="yes"/>
      <point x="338" y="165"/>
      <point x="279" y="159"/>
      <point x="224" y="151" type="curve"/>
      <point x="242" y="234"/>
      <point x="278" y="310"/>
      <point x="290" y="394" type="curve" smooth="yes"/>
      <point x="291" y="401"/>
      <point x="291" y="408"/>
      <point x="291" y="415" type="curve" smooth="yes"/>
      <point x="291" y="461"/>
      <point x="266" y="501"/>
    </contour>
  </outline>
</glyph>
<glyph name="copyright" format="1">
  <advance width="707"/>
  <unicode hex="00A9"/>
  <outline>
    <contour>
      <point x="658" y="245" type="curve" smooth="yes"/>
      <point x="671" y="288"/>
      <point x="678" y="316"/>
      <point x="678" y="352" type="curve" smooth="yes"/>
      <point x="678" y="535"/>
      <point x="526" y="652"/>
      <point x="395" y="652" type="curve" smooth="yes"/>
      <point x="198" y="652"/>
      <point x="24" y="494"/>
      <point x="24" y="305" type="curve" smooth="yes"/>
      <point x="24" y="149"/>
      <point x="137" y="49"/>
      <point x="320" y="49" type="curve" smooth="yes"/>
      <point x="503" y="49"/>
      <point x="625" y="137"/>
    </contour>
    <contour>
      <point x="326" y="102" type="curve" smooth="yes"/>
      <point x="169" y="102"/>
      <point x="83" y="178"/>
      <point x="83" y="322" type="curve" smooth="yes"/>
      <point x="83" y="415"/>
      <point x="181" y="596"/>
      <point x="397" y="596" type="curve" smooth="yes"/>
      <point x="574" y="596"/>
      <point x="623" y="433"/>
      <point x="623" y="333" type="curve" smooth="yes"/>
      <point x="623" y="235"/>
      <point x="520" y="102"/>
    </contour>
    <contour>
      <point x="342" y="562" type="curve" smooth="yes"/>
      <point x="235" y="562"/>
      <point x="193" y="407"/>
      <point x="193" y="324" type="curve" smooth="yes"/>
      <point x="193" y="259"/>
      <point x="220" y="133"/>
      <point x="350" y="133" type="curve" smooth="yes"/>
      <point x="451" y="133"/>
      <point x="551" y="205"/>
      <point x="551" y="274" type="curve" smooth="yes"/>
      <point x="551" y="288"/>
      <point x="550" y="305"/>
      <point x="526" y="305" type="curve" smooth="yes"/>
      <point x="498" y="305"/>
      <point x="488" y="262"/>
      <point x="467" y="243" type="curve" smooth="yes"/>
      <point x="443" y="221"/>
      <point x="405" y="204"/>
      <point x="367" y="204" type="curve" smooth="yes"/>
      <point x="306" y="204"/>
      <point x="301" y="292"/>
      <point x="301" y="325" type="curve" smooth="yes"/>
      <point x="301" y="378"/>
      <point x="313" y="458"/>
      <point x="349" y="487" type="curve"/>
      <point x="369" y="498"/>
      <point x="400" y="497"/>
      <point x="400" y="524" type="curve" smooth="yes"/>
      <point x="400" y="544"/>
      <point x="377" y="562"/>
    </contour>
  </outline>
</glyph>
<glyph name="registered" format="1">
  <advance width="703"/>
  <unicode hex="00AE"/>
  <outline>
    <contour>
      <point x="671" y="245" type="curve" smooth="yes"/>
      <point x="684" y="288"/>
      <point x="691" y="316"/>
      <point x="691" y="352" type="curve" smooth="yes"/>
      <point x="691" y="535"/>
      <point x="539" y="652"/>
      <point x="408" y="652" type="curve" smooth="yes"/>
      <point x="211" y="652"/>
      <point x="37" y="494"/>
      <point x="37" y="305" type="curve" smooth="yes"/>
      <point x="37" y="149"/>
      <point x="150" y="49"/>
      <point x="333" y="49" type="curve" smooth="yes"/>
      <point x="516" y="49"/>
      <point x="638" y="137"/>
    </contour>
    <contour>
      <point x="339" y="102" type="curve" smooth="yes"/>
      <point x="182" y="102"/>
      <point x="96" y="178"/>
      <point x="96" y="322" type="curve" smooth="yes"/>
      <point x="96" y="415"/>
      <point x="194" y="596"/>
      <point x="410" y="596" type="curve" smooth="yes"/>
      <point x="587" y="596"/>
      <point x="636" y="433"/>
      <point x="636" y="333" type="curve" smooth="yes"/>
      <point x="636" y="235"/>
      <point x="533" y="102"/>
    </contour>
    <contour>
      <point x="458" y="554" type="curve"/>
      <point x="451" y="557"/>
      <point x="444" y="558"/>
      <point x="437" y="558" type="curve" smooth="yes"/>
      <point x="364" y="558"/>
      <point x="322" y="462"/>
      <point x="290" y="392" type="curve"/>
      <point x="277" y="436"/>
      <point x="283" y="515"/>
      <point x="240" y="515" type="curve" smooth="yes"/>
      <point x="216" y="515"/>
      <point x="213" y="476"/>
      <point x="213" y="440" type="curve" smooth="yes"/>
      <point x="213" y="328"/>
      <point x="224" y="330"/>
      <point x="227" y="211" type="curve" smooth="yes"/>
      <point x="228" y="187"/>
      <point x="222" y="144"/>
      <point x="259" y="144" type="curve" smooth="yes"/>
      <point x="302" y="144"/>
      <point x="296" y="187"/>
      <point x="303" y="257" type="curve"/>
      <point x="348" y="224"/>
      <point x="350" y="229"/>
      <point x="385" y="191" type="curve" smooth="yes"/>
      <point x="411" y="162"/>
      <point x="412" y="139"/>
      <point x="456" y="139" type="curve" smooth="yes"/>
      <point x="474" y="139"/>
      <point x="489" y="148"/>
      <point x="489" y="171" type="curve" smooth="yes"/>
      <point x="489" y="208"/>
      <point x="443" y="269"/>
      <point x="359" y="314" type="curve"/>
      <point x="440" y="359"/>
      <point x="483" y="425"/>
      <point x="483" y="508" type="curve" smooth="yes"/>
      <point x="483" y="527"/>
      <point x="476" y="545"/>
    </contour>
    <contour>
      <point x="423" y="470" type="curve" smooth="yes"/>
      <point x="423" y="439"/>
      <point x="391" y="385"/>
      <point x="323" y="357" type="curve"/>
      <point x="346" y="417"/>
      <point x="389" y="489"/>
      <point x="413" y="489" type="curve" smooth="yes"/>
      <point x="423" y="489"/>
      <point x="423" y="476"/>
    </contour>
  </outline>
</glyph>
<glyph name="endash" format="1">
  <advance width="449"/>
  <unicode hex="2013"/>
  <outline>
    <contour>
      <point x="349" y="345" type="curve" smooth="yes"/>
      <point x="272" y="345"/>
      <point x="153" y="334"/>
      <point x="74" y="320" type="curve" smooth="yes"/>
      <point x="54" y="316"/>
      <point x="25" y="309"/>
      <point x="25" y="281" type="curve" smooth="yes"/>
      <point x="25" y="254"/>
      <point x="49" y="238"/>
      <point x="75" y="238" type="curve" smooth="yes"/>
      <point x="142" y="238"/>
      <point x="210" y="242"/>
      <point x="284" y="251" type="curve" smooth="yes"/>
      <point x="318" y="255"/>
      <point x="360" y="252"/>
      <point x="392" y="265" type="curve"/>
      <point x="408" y="273"/>
      <point x="425" y="284"/>
      <point x="425" y="306" type="curve" smooth="yes"/>
      <point x="425" y="331"/>
      <point x="392" y="345"/>
    </contour>
  </outline>
</glyph>
<glyph name="emdash" format="1">
  <advance width="632"/>
  <unicode hex="2014"/>
  <outline>
    <contour>
      <point x="520" y="330" type="curve" smooth="yes"/>
      <point x="484" y="330"/>
      <point x="448" y="325"/>
      <point x="380" y="325" type="curve" smooth="yes"/>
      <point x="163" y="325" type="line" smooth="yes"/>
      <point x="69" y="325"/>
      <point x="24" y="322"/>
      <point x="24" y="281" type="curve" smooth="yes"/>
      <point x="24" y="249"/>
      <point x="58" y="241"/>
      <point x="87" y="239" type="curve"/>
      <point x="186" y="239"/>
      <point x="284" y="234"/>
      <point x="426" y="234" type="curve" smooth="yes"/>
      <point x="492" y="234"/>
      <point x="596" y="239"/>
      <point x="596" y="287" type="curve" smooth="yes"/>
      <point x="596" y="323"/>
      <point x="550" y="330"/>
    </contour>
  </outline>
</glyph>
<glyph name="quoteleft" format="1">
  <advance width="155"/>
  <unicode hex="2018"/>
  <outline>
    <contour>
      <point x="56" y="623" type="curve" smooth="yes"/>
      <point x="33" y="623"/>
      <point x="19" y="603"/>
      <point x="19" y="580" type="curve" smooth="yes"/>
      <point x="19" y="527"/>
      <point x="87" y="403"/>
      <point x="121" y="403" type="curve" smooth="yes"/>
      <point x="136" y="403"/>
      <point x="141" y="420"/>
      <point x="141" y="431" type="curve" smooth="yes"/>
      <point x="141" y="471"/>
      <point x="113" y="623"/>
    </contour>
  </outline>
</glyph>
<glyph name="quoteright" format="1">
  <advance width="163"/>
  <unicode hex="2019"/>
  <outline>
    <contour>
      <point x="90" y="630" type="curve" smooth="yes"/>
      <point x="33" y="630"/>
      <point x="30" y="489"/>
      <point x="30" y="447" type="curve" smooth="yes"/>
      <point x="30" y="417"/>
      <point x="38" y="388"/>
      <point x="66" y="388" type="curve" smooth="yes"/>
      <point x="96" y="388"/>
      <point x="103" y="441"/>
      <point x="110" y="466" type="curve" smooth="yes"/>
      <point x="120" y="500"/>
      <point x="133" y="538"/>
      <point x="133" y="575" type="curve" smooth="yes"/>
      <point x="133" y="604"/>
      <point x="120" y="630"/>
    </contour>
  </outline>
</glyph>
<glyph name="quotedblleft" format="1">
  <advance width="267"/>
  <unicode hex="201C"/>
  <outline>
    <contour>
      <point x="152" y="630" type="curve" smooth="yes"/>
      <point x="129" y="630"/>
      <point x="115" y="610"/>
      <point x="115" y="587" type="curve" smooth="yes"/>
      <point x="115" y="534"/>
      <point x="183" y="410"/>
      <point x="217" y="410" type="curve" smooth="yes"/>
      <point x="232" y="410"/>
      <point x="237" y="427"/>
      <point x="237" y="438" type="curve" smooth="yes"/>
      <point x="237" y="478"/>
      <point x="209" y="630"/>
    </contour>
    <contour>
      <point x="150" y="402" type="curve" smooth="yes"/>
      <point x="150" y="440"/>
      <point x="124" y="576"/>
      <point x="66" y="576" type="curve" smooth="yes"/>
      <point x="43" y="576"/>
      <point x="30" y="556"/>
      <point x="30" y="536" type="curve" smooth="yes"/>
      <point x="30" y="503"/>
      <point x="60" y="463"/>
      <point x="77" y="434" type="curve" smooth="yes"/>
      <point x="87" y="416"/>
      <point x="106" y="373"/>
      <point x="125" y="373" type="curve" smooth="yes"/>
      <point x="140" y="373"/>
      <point x="150" y="388"/>
    </contour>
  </outline>
</glyph>
<glyph name="quotedblright" format="1">
  <advance width="273"/>
  <unicode hex="201D"/>
  <outline>
    <contour>
      <point x="90" y="630" type="curve" smooth="yes"/>
      <point x="33" y="630"/>
      <point x="30" y="489"/>
      <point x="30" y="447" type="curve" smooth="yes"/>
      <point x="30" y="417"/>
      <point x="38" y="388"/>
      <point x="66" y="388" type="curve" smooth="yes"/>
      <point x="96" y="388"/>
      <point x="103" y="441"/>
      <point x="110" y="466" type="curve" smooth="yes"/>
      <point x="120" y="500"/>
      <point x="133" y="538"/>
      <point x="133" y="575" type="curve" smooth="yes"/>
      <point x="133" y="604"/>
      <point x="120" y="630"/>
    </contour>
    <contour>
      <point x="209" y="594" type="curve" smooth="yes"/>
      <point x="165" y="594"/>
      <point x="151" y="463"/>
      <point x="151" y="406" type="curve" smooth="yes"/>
      <point x="151" y="378"/>
      <point x="165" y="366"/>
      <point x="178" y="366" type="curve" smooth="yes"/>
      <point x="205" y="366"/>
      <point x="218" y="447"/>
      <point x="226" y="470" type="curve" smooth="yes"/>
      <point x="234" y="492"/>
      <point x="243" y="522"/>
      <point x="243" y="546" type="curve" smooth="yes"/>
      <point x="243" y="570"/>
      <point x="233" y="594"/>
    </contour>
  </outline>
</glyph>
<glyph name="bullet" format="1">
  <advance width="220"/>
  <unicode hex="2022"/>
  <outline>
    <contour>
      <point x="101" y="389" type="curve" smooth="yes"/>
      <point x="58" y="389"/>
      <point x="16" y="356"/>
      <point x="16" y="307" type="curve" smooth="yes"/>
      <point x="16" y="257"/>
      <point x="56" y="226"/>
      <point x="97" y="226" type="curve" smooth="yes"/>
      <point x="148" y="226"/>
      <point x="182" y="268"/>
      <point x="182" y="313" type="curve" smooth="yes"/>
      <point x="182" y="361"/>
      <point x="141" y="389"/>
    </contour>
  </outline>
</glyph>
<glyph name="A.ss01" format="1">
  <advance width="371"/>
  <outline>
    <contour>
      <point x="279" y="513" type="curve" smooth="yes"/>
      <point x="270" y="544"/>
      <point x="250" y="598"/>
      <point x="211" y="598" type="curve" smooth="yes"/>
      <point x="170" y="598"/>
      <point x="146" y="538"/>
      <point x="130" y="499" type="curve" smooth="yes"/>
      <point x="87" y="397"/>
      <point x="55" y="287"/>
      <point x="28" y="180" type="curve" smooth="yes"/>
      <point x="21" y="153"/>
      <point x="10" y="123"/>
      <point x="10" y="93" type="curve" smooth="yes"/>
      <point x="10" y="76"/>
      <point x="23" y="56"/>
      <point x="44" y="56" type="curve" smooth="yes"/>
      <point x="74" y="56"/>
      <point x="88" y="103"/>
      <point x="96" y="129" type="curve"/>
      <point x="96" y="131"/>
      <point x="103" y="159"/>
      <point x="130" y="241" type="curve"/>
      <point x="143" y="241"/>
      <point x="155" y="242"/>
      <point x="168" y="242" type="curve" smooth="yes"/>
      <point x="196" y="242"/>
      <point x="225" y="240"/>
      <point x="253" y="237" type="curve"/>
      <point x="268" y="193"/>
      <point x="287" y="152"/>
      <point x="298" y="106" type="curve"/>
      <point x="302" y="93"/>
      <point x="302" y="38"/>
      <point x="329" y="38" type="curve" smooth="yes"/>
      <point x="352" y="38"/>
      <point x="361" y="63"/>
      <point x="361" y="85" type="curve" smooth="yes"/>
      <point x="361" y="95"/>
      <point x="360" y="104"/>
      <point x="359" y="113" type="curve" smooth="yes"/>
      <point x="350" y="175"/>
      <point x="342" y="237"/>
      <point x="329" y="298" type="curve" smooth="yes"/>
      <point x="314" y="370"/>
      <point x="301" y="443"/>
    </contour>
    <contour>
      <point x="199" y="479" type="curve"/>
      <point x="212" y="417"/>
      <point x="223" y="355"/>
      <point x="236" y="293" type="curve"/>
      <point x="207" y="294"/>
      <point x="177" y="297"/>
      <point x="147" y="301" type="curve"/>
      <point x="161" y="362"/>
      <point x="176" y="421"/>
    </contour>
  </outline>
</glyph>
<glyph name="B.ss01" format="1">
  <advance width="360"/>
  <outline>
    <contour>
      <point x="260" y="620" type="curve"/>
      <point x="209" y="619"/>
      <point x="166" y="598"/>
      <point x="119" y="580" type="curve" smooth="yes"/>
      <point x="114" y="578"/>
      <point x="108" y="577"/>
      <point x="103" y="577" type="curve" smooth="yes"/>
      <point x="94" y="577"/>
      <point x="86" y="579"/>
      <point x="77" y="579" type="curve" smooth="yes"/>
      <point x="40" y="579"/>
      <point x="30" y="529"/>
      <point x="30" y="498" type="curve" smooth="yes"/>
      <point x="30" y="475"/>
      <point x="39" y="453"/>
      <point x="39" y="424" type="curve" smooth="yes"/>
      <point x="39" y="404"/>
      <point x="37" y="384"/>
      <point x="37" y="362" type="curve" smooth="yes"/>
      <point x="39" y="285"/>
      <point x="45" y="221"/>
      <point x="50" y="148" type="curve"/>
      <point x="50" y="130"/>
      <point x="46" y="113"/>
      <point x="46" y="95" type="curve" smooth="yes"/>
      <point x="46" y="61"/>
      <point x="76" y="45"/>
      <point x="110" y="45" type="curve" smooth="yes"/>
      <point x="210" y="45"/>
      <point x="340" y="123"/>
      <point x="340" y="238" type="curve" smooth="yes"/>
      <point x="340" y="306"/>
      <point x="286" y="340"/>
      <point x="213" y="348" type="curve"/>
      <point x="264" y="396"/>
      <point x="335" y="467"/>
      <point x="335" y="546" type="curve" smooth="yes"/>
      <point x="335" y="588"/>
      <point x="305" y="617"/>
    </contour>
    <contour>
      <point x="258" y="556" type="curve" smooth="yes"/>
      <point x="267" y="556"/>
      <point x="275" y="553"/>
      <point x="275" y="541" type="curve" smooth="yes"/>
      <point x="275" y="480"/>
      <point x="174" y="382"/>
      <point x="125" y="338" type="curve"/>
      <point x="123" y="396"/>
      <point x="119" y="454"/>
      <point x="113" y="512" type="curve"/>
      <point x="156" y="530"/>
      <point x="227" y="556"/>
    </contour>
    <contour>
      <point x="124" y="285" type="curve"/>
      <point x="132" y="286"/>
      <point x="139" y="286"/>
      <point x="147" y="286" type="curve" smooth="yes"/>
      <point x="174" y="286"/>
      <point x="259" y="286"/>
      <point x="259" y="239" type="curve" smooth="yes"/>
      <point x="259" y="190"/>
      <point x="197" y="150"/>
      <point x="152" y="127" type="curve" smooth="yes"/>
      <point x="132" y="117"/>
      <point x="111" y="114"/>
      <point x="90" y="106" type="curve"/>
      <point x="99" y="119"/>
      <point x="109" y="131"/>
      <point x="112" y="146" type="curve" smooth="yes"/>
      <point x="122" y="191"/>
      <point x="114" y="240"/>
    </contour>
  </outline>
</glyph>
<glyph name="C.ss01" format="1">
  <advance width="305"/>
  <outline>
    <contour>
      <point x="154" y="564" type="curve" smooth="yes"/>
      <point x="51" y="564"/>
      <point x="20" y="355"/>
      <point x="20" y="274" type="curve" smooth="yes"/>
      <point x="20" y="193"/>
      <point x="51" y="88"/>
      <point x="138" y="86" type="curve"/>
      <point x="215" y="89"/>
      <point x="287" y="186"/>
      <point x="287" y="268" type="curve" smooth="yes"/>
      <point x="287" y="276"/>
      <point x="290" y="288"/>
      <point x="290" y="296" type="curve" smooth="yes"/>
      <point x="290" y="299"/>
      <point x="289" y="305"/>
      <point x="282" y="305" type="curve" smooth="yes"/>
      <point x="271" y="305"/>
      <point x="259" y="295"/>
      <point x="252" y="275" type="curve"/>
      <point x="232" y="234"/>
      <point x="190" y="167"/>
      <point x="142" y="167" type="curve" smooth="yes"/>
      <point x="100" y="167"/>
      <point x="93" y="248"/>
      <point x="93" y="283" type="curve" smooth="yes"/>
      <point x="93" y="353"/>
      <point x="111" y="419"/>
      <point x="146" y="479" type="curve"/>
      <point x="160" y="469"/>
      <point x="174" y="452"/>
      <point x="193" y="452" type="curve" smooth="yes"/>
      <point x="212" y="452"/>
      <point x="225" y="470"/>
      <point x="225" y="491" type="curve" smooth="yes"/>
      <point x="225" y="528"/>
      <point x="192" y="564"/>
    </contour>
  </outline>
</glyph>
<glyph name="D.ss01" format="1">
  <advance width="393"/>
  <outline>
    <contour>
      <point x="62" y="578" type="curve"/>
      <point x="33" y="576"/>
      <point x="30" y="533"/>
      <point x="30" y="497" type="curve" smooth="yes"/>
      <point x="30" y="356"/>
      <point x="41" y="246"/>
      <point x="59" y="134" type="curve"/>
      <point x="65" y="107"/>
      <point x="66" y="72"/>
      <point x="106" y="72" type="curve" smooth="yes"/>
      <point x="127" y="72"/>
      <point x="149" y="76"/>
      <point x="170" y="76" type="curve" smooth="yes"/>
      <point x="290" y="76"/>
      <point x="373" y="172"/>
      <point x="373" y="295" type="curve" smooth="yes"/>
      <point x="373" y="410"/>
      <point x="292" y="495"/>
      <point x="190" y="534" type="curve" smooth="yes"/>
      <point x="165" y="543"/>
      <point x="137" y="547"/>
      <point x="112" y="557" type="curve" smooth="yes"/>
      <point x="96" y="563"/>
      <point x="79" y="576"/>
    </contour>
    <contour>
      <point x="112" y="486" type="line"/>
      <point x="196" y="456"/>
      <point x="283" y="387"/>
      <point x="283" y="292" type="curve" smooth="yes"/>
      <point x="283" y="205"/>
      <point x="225" y="138"/>
      <point x="123" y="138" type="curve"/>
      <point x="119" y="202"/>
      <point x="119" y="264"/>
      <point x="118" y="327" type="curve" smooth="yes"/>
      <point x="117" y="372"/>
      <point x="112" y="420"/>
      <point x="112" y="466" type="curve" smooth="yes"/>
    </contour>
  </outline>
</glyph>
<glyph name="E.ss01" format="1">
  <advance width="363"/>
  <outline>
    <contour>
      <point x="86" y="549" type="curve" smooth="yes"/>
      <point x="80" y="550"/>
      <point x="75" y="551"/>
      <point x="70" y="551" type="curve" smooth="yes"/>
      <point x="34" y="551"/>
      <point x="39" y="484"/>
      <point x="37" y="454" type="curve" smooth="yes"/>
      <point x="33" y="404"/>
      <point x="30" y="352"/>
      <point x="30" y="301" type="curve" smooth="yes"/>
      <point x="30" y="216"/>
      <point x="40" y="62"/>
      <point x="172" y="62" type="curve" smooth="yes"/>
      <point x="226" y="62"/>
      <point x="334" y="116"/>
      <point x="334" y="169" type="curve" smooth="yes"/>
      <point x="334" y="186"/>
      <point x="325" y="206"/>
      <point x="305" y="206" type="curve" smooth="yes"/>
      <point x="279" y="206"/>
      <point x="245" y="179"/>
      <point x="201" y="179" type="curve" smooth="yes"/>
      <point x="131" y="179"/>
      <point x="137" y="259"/>
      <point x="132" y="306" type="curve"/>
      <point x="177" y="316"/>
      <point x="222" y="323"/>
      <point x="269" y="326" type="curve" smooth="yes"/>
      <point x="291" y="327"/>
      <point x="331" y="331"/>
      <point x="331" y="364" type="curve" smooth="yes"/>
      <point x="331" y="392"/>
      <point x="301" y="401"/>
      <point x="274" y="401" type="curve" smooth="yes"/>
      <point x="227" y="401"/>
      <point x="177" y="390"/>
      <point x="128" y="387" type="curve"/>
      <point x="124" y="424"/>
      <point x="121" y="461"/>
      <point x="116" y="498" type="curve"/>
      <point x="167" y="503"/>
      <point x="217" y="510"/>
      <point x="269" y="510" type="curve" smooth="yes"/>
      <point x="296" y="510"/>
      <point x="343" y="513"/>
      <point x="343" y="528" type="curve" smooth="yes"/>
      <point x="343" y="544"/>
      <point x="300" y="548"/>
      <point x="273" y="548" type="curve" smooth="yes"/>
      <point x="225" y="548"/>
      <point x="177" y="546"/>
      <point x="133" y="546" type="curve" smooth="yes"/>
      <point x="117" y="546"/>
      <point x="102" y="546"/>
    </contour>
  </outline>
</glyph>
<glyph name="F.ss01" format="1">
  <advance width="406"/>
  <outline>
    <contour>
      <point x="335" y="570" type="curve" smooth="yes"/>
      <point x="250" y="570"/>
      <point x="167" y="562"/>
      <point x="82" y="554" type="curve" smooth="yes"/>
      <point x="64" y="552"/>
      <point x="30" y="547"/>
      <point x="30" y="525" type="curve" smooth="yes"/>
      <point x="30" y="504"/>
      <point x="39" y="483"/>
      <point x="39" y="442" type="curve" smooth="yes"/>
      <point x="39" y="334"/>
      <point x="42" y="224"/>
      <point x="66" y="118" type="curve" smooth="yes"/>
      <point x="71" y="96"/>
      <point x="79" y="64"/>
      <point x="106" y="64" type="curve" smooth="yes"/>
      <point x="127" y="64"/>
      <point x="123" y="94"/>
      <point x="124" y="109" type="curve"/>
      <point x="122" y="172"/>
      <point x="122" y="235"/>
      <point x="120" y="299" type="curve"/>
      <point x="127" y="298"/>
      <point x="135" y="298"/>
      <point x="142" y="298" type="curve" smooth="yes"/>
      <point x="186" y="299"/>
      <point x="230" y="309"/>
      <point x="273" y="317" type="curve" smooth="yes"/>
      <point x="289" y="320"/>
      <point x="330" y="337"/>
      <point x="330" y="359" type="curve" smooth="yes"/>
      <point x="330" y="364"/>
      <point x="327" y="369"/>
      <point x="320" y="369" type="curve" smooth="yes"/>
      <point x="315" y="369"/>
      <point x="310" y="368"/>
      <point x="305" y="367" type="curve"/>
      <point x="253" y="360"/>
      <point x="196" y="360"/>
      <point x="116" y="357" type="curve"/>
      <point x="114" y="400"/>
      <point x="109" y="443"/>
      <point x="104" y="486" type="curve"/>
      <point x="175" y="486"/>
      <point x="241" y="502"/>
      <point x="311" y="507" type="curve"/>
      <point x="332" y="507"/>
      <point x="350" y="483"/>
      <point x="370" y="483" type="curve" smooth="yes"/>
      <point x="389" y="483"/>
      <point x="396" y="505"/>
      <point x="396" y="523" type="curve" smooth="yes"/>
      <point x="396" y="561"/>
      <point x="362" y="570"/>
    </contour>
  </outline>
</glyph>
<glyph name="G.ss01" format="1">
  <advance width="415"/>
  <outline>
    <contour>
      <point x="154" y="541" type="curve" smooth="yes"/>
      <point x="55" y="541"/>
      <point x="20" y="365"/>
      <point x="20" y="276" type="curve" smooth="yes"/>
      <point x="20" y="193"/>
      <point x="51" y="44"/>
      <point x="174" y="44" type="curve" smooth="yes"/>
      <point x="257" y="44"/>
      <point x="315" y="122"/>
      <point x="352" y="190" type="curve" smooth="yes"/>
      <point x="371" y="224"/>
      <point x="395" y="269"/>
      <point x="395" y="308" type="curve" smooth="yes"/>
      <point x="395" y="344"/>
      <point x="370" y="376"/>
      <point x="324" y="376" type="curve" smooth="yes"/>
      <point x="269" y="376"/>
      <point x="155" y="306"/>
      <point x="155" y="252" type="curve" smooth="yes"/>
      <point x="155" y="238"/>
      <point x="167" y="228"/>
      <point x="180" y="228" type="curve" smooth="yes"/>
      <point x="211" y="228"/>
      <point x="275" y="271"/>
      <point x="324" y="289" type="curve"/>
      <point x="308" y="220"/>
      <point x="252" y="121"/>
      <point x="182" y="121" type="curve" smooth="yes"/>
      <point x="117" y="121"/>
      <point x="100" y="225"/>
      <point x="100" y="290" type="curve" smooth="yes"/>
      <point x="100" y="294"/>
      <point x="103" y="478"/>
      <point x="161" y="478" type="curve" smooth="yes"/>
      <point x="187" y="478"/>
      <point x="209" y="403"/>
      <point x="229" y="403" type="curve" smooth="yes"/>
      <point x="244" y="403"/>
      <point x="253" y="413"/>
      <point x="253" y="434" type="curve" smooth="yes"/>
      <point x="253" y="488"/>
      <point x="203" y="541"/>
    </contour>
  </outline>
</glyph>
<glyph name="H.ss01" format="1">
  <advance width="351"/>
  <outline>
    <contour>
      <point x="71" y="645" type="curve" smooth="yes"/>
      <point x="33" y="645"/>
      <point x="30" y="550"/>
      <point x="30" y="497" type="curve" smooth="yes"/>
      <point x="30" y="403" type="line" smooth="yes"/>
      <point x="30" y="305"/>
      <point x="33" y="92"/>
      <point x="86" y="92" type="curve" smooth="yes"/>
      <point x="109" y="92"/>
      <point x="110" y="119"/>
      <point x="110" y="136" type="curve" smooth="yes"/>
      <point x="110" y="154"/>
      <point x="108" y="170"/>
      <point x="108" y="187" type="curve" smooth="yes"/>
      <point x="108" y="221"/>
      <point x="113" y="255"/>
      <point x="116" y="291" type="curve"/>
      <point x="157" y="302"/>
      <point x="196" y="318"/>
      <point x="236" y="331" type="curve"/>
      <point x="236" y="264"/>
      <point x="249" y="199"/>
      <point x="258" y="133" type="curve"/>
      <point x="262" y="117"/>
      <point x="264" y="98"/>
      <point x="282" y="98" type="curve" smooth="yes"/>
      <point x="316" y="98"/>
      <point x="321" y="211"/>
      <point x="321" y="278" type="curve" smooth="yes"/>
      <point x="321" y="376"/>
      <point x="315" y="475"/>
      <point x="302" y="571" type="curve"/>
      <point x="297" y="593"/>
      <point x="296" y="623"/>
      <point x="269" y="628" type="curve"/>
      <point x="240" y="622"/>
      <point x="235" y="551"/>
      <point x="235" y="482" type="curve" smooth="yes"/>
      <point x="235" y="454"/>
      <point x="236" y="426"/>
      <point x="236" y="381" type="curve"/>
      <point x="197" y="376"/>
      <point x="157" y="369"/>
      <point x="117" y="363" type="curve"/>
      <point x="117" y="411" type="line" smooth="yes"/>
      <point x="117" y="501"/>
      <point x="115" y="645"/>
    </contour>
  </outline>
</glyph>
<glyph name="I.ss01" format="1">
  <advance width="154"/>
  <outline>
    <contour>
      <point x="69" y="568" type="curve"/>
      <point x="43" y="565"/>
      <point x="38" y="539"/>
      <point x="36" y="517" type="curve" smooth="yes"/>
      <point x="32" y="478"/>
      <point x="30" y="439"/>
      <point x="30" y="399" type="curve" smooth="yes"/>
      <point x="30" y="309"/>
      <point x="42" y="217"/>
      <point x="51" y="129" type="curve" smooth="yes"/>
      <point x="53" y="108"/>
      <point x="57" y="57"/>
      <point x="90" y="57" type="curve" smooth="yes"/>
      <point x="123" y="57"/>
      <point x="123" y="105"/>
      <point x="123" y="134" type="curve" smooth="yes"/>
      <point x="123" y="168"/>
      <point x="124" y="203"/>
      <point x="124" y="237" type="curve" smooth="yes"/>
      <point x="124" y="271"/>
      <point x="122" y="305"/>
      <point x="120" y="340" type="curve" smooth="yes"/>
      <point x="117" y="400"/>
      <point x="116" y="462"/>
      <point x="106" y="522" type="curve" smooth="yes"/>
      <point x="103" y="542"/>
      <point x="94" y="568"/>
    </contour>
  </outline>
</glyph>
<glyph name="J.ss01" format="1">
  <advance width="335"/>
  <outline>
    <contour>
      <point x="315" y="243" type="curve" smooth="yes"/>
      <point x="315" y="310"/>
      <point x="285" y="556"/>
      <point x="224" y="556" type="curve" smooth="yes"/>
      <point x="197" y="556"/>
      <point x="191" y="531"/>
      <point x="191" y="507" type="curve" smooth="yes"/>
      <point x="191" y="471"/>
      <point x="212" y="346"/>
      <point x="212" y="257" type="curve" smooth="yes"/>
      <point x="212" y="234"/>
      <point x="207" y="156"/>
      <point x="185" y="156" type="curve" smooth="yes"/>
      <point x="130" y="156"/>
      <point x="64" y="276"/>
      <point x="39" y="329" type="curve"/>
      <point x="34" y="336"/>
      <point x="29" y="338"/>
      <point x="25" y="338" type="curve" smooth="yes"/>
      <point x="14" y="338"/>
      <point x="10" y="329"/>
      <point x="10" y="317" type="curve" smooth="yes"/>
      <point x="10" y="294"/>
      <point x="21" y="256"/>
      <point x="31" y="233" type="curve" smooth="yes"/>
      <point x="64" y="159"/>
      <point x="112" y="54"/>
      <point x="198" y="54" type="curve" smooth="yes"/>
      <point x="291" y="54"/>
      <point x="315" y="171"/>
    </contour>
  </outline>
</glyph>
<glyph name="K.ss01" format="1">
  <advance width="410"/>
  <outline>
    <contour>
      <point x="334" y="546" type="curve"/>
      <point x="309" y="544"/>
      <point x="291" y="524"/>
      <point x="275" y="511" type="curve" smooth="yes"/>
      <point x="216" y="460"/>
      <point x="154" y="424"/>
      <point x="100" y="367" type="curve"/>
      <point x="96" y="404"/>
      <point x="92" y="508"/>
      <point x="61" y="508" type="curve" smooth="yes"/>
      <point x="34" y="508"/>
      <point x="30" y="463"/>
      <point x="30" y="420" type="curve" smooth="yes"/>
      <point x="30" y="399"/>
      <point x="31" y="377"/>
      <point x="31" y="363" type="curve" smooth="yes"/>
      <point x="31" y="270"/>
      <point x="36" y="177"/>
      <point x="46" y="84" type="curve" smooth="yes"/>
      <point x="48" y="68"/>
      <point x="52" y="34"/>
      <point x="77" y="34" type="curve" smooth="yes"/>
      <point x="88" y="34"/>
      <point x="99" y="49"/>
      <point x="99" y="62" type="curve"/>
      <point x="104" y="140"/>
      <point x="103" y="220"/>
      <point x="105" y="299" type="curve"/>
      <point x="154" y="219"/>
      <point x="213" y="139"/>
      <point x="298" y="95" type="curve" smooth="yes"/>
      <point x="319" y="84"/>
      <point x="342" y="68"/>
      <point x="367" y="68" type="curve" smooth="yes"/>
      <point x="389" y="68"/>
      <point x="400" y="81"/>
      <point x="400" y="98" type="curve" smooth="yes"/>
      <point x="400" y="107"/>
      <point x="397" y="116"/>
      <point x="391" y="123" type="curve" smooth="yes"/>
      <point x="324" y="206"/>
      <point x="249" y="270"/>
      <point x="173" y="344" type="curve"/>
      <point x="236" y="395"/>
      <point x="362" y="469"/>
      <point x="362" y="517" type="curve" smooth="yes"/>
      <point x="362" y="532"/>
      <point x="349" y="546"/>
    </contour>
  </outline>
</glyph>
<glyph name="L.ss01" format="1">
  <advance width="384"/>
  <outline>
    <contour>
      <point x="111" y="471" type="curve"/>
      <point x="105" y="485"/>
      <point x="92" y="494"/>
      <point x="79" y="494" type="curve" smooth="yes"/>
      <point x="43" y="494"/>
      <point x="41" y="447"/>
      <point x="41" y="421" type="curve" smooth="yes"/>
      <point x="40" y="333"/>
      <point x="40" y="244"/>
      <point x="40" y="156" type="curve" smooth="yes"/>
      <point x="40" y="124"/>
      <point x="41" y="82"/>
      <point x="61" y="56" type="curve" smooth="yes"/>
      <point x="81" y="30"/>
      <point x="115" y="23"/>
      <point x="145" y="19" type="curve" smooth="yes"/>
      <point x="193" y="12"/>
      <point x="239" y="2"/>
      <point x="287" y="2" type="curve" smooth="yes"/>
      <point x="320" y="2"/>
      <point x="374" y="3"/>
      <point x="374" y="42" type="curve" smooth="yes"/>
      <point x="374" y="113"/>
      <point x="201" y="97"/>
      <point x="124" y="105" type="curve"/>
      <point x="123" y="122"/>
      <point x="123" y="138"/>
      <point x="123" y="155" type="curve" smooth="yes"/>
      <point x="123" y="220"/>
      <point x="125" y="286"/>
      <point x="125" y="361" type="curve" smooth="yes"/>
      <point x="125" y="399"/>
      <point x="123" y="440"/>
    </contour>
  </outline>
</glyph>
<glyph name="M.ss01" format="1">
  <advance width="501"/>
  <outline>
    <contour>
      <point x="393" y="551" type="curve" smooth="yes"/>
      <point x="362" y="551"/>
      <point x="342" y="516"/>
      <point x="329" y="485" type="curve" smooth="yes"/>
      <point x="293" y="403"/>
      <point x="265" y="315"/>
      <point x="233" y="230" type="curve"/>
      <point x="221" y="301"/>
      <point x="216" y="373"/>
      <point x="206" y="444" type="curve" smooth="yes"/>
      <point x="200" y="482"/>
      <point x="190" y="543"/>
      <point x="145" y="543" type="curve" smooth="yes"/>
      <point x="112" y="543"/>
      <point x="98" y="505"/>
      <point x="89" y="478" type="curve" smooth="yes"/>
      <point x="64" y="403"/>
      <point x="43" y="327"/>
      <point x="29" y="250" type="curve" smooth="yes"/>
      <point x="21" y="206"/>
      <point x="10" y="160"/>
      <point x="10" y="115" type="curve" smooth="yes"/>
      <point x="10" y="98"/>
      <point x="11" y="70"/>
      <point x="36" y="70" type="curve" smooth="yes"/>
      <point x="62" y="70"/>
      <point x="76" y="107"/>
      <point x="83" y="132" type="curve" smooth="yes"/>
      <point x="104" y="204"/>
      <point x="115" y="278"/>
      <point x="134" y="350" type="curve"/>
      <point x="148" y="265"/>
      <point x="156" y="106"/>
      <point x="226" y="106" type="curve" smooth="yes"/>
      <point x="268" y="106"/>
      <point x="287" y="153"/>
      <point x="299" y="185" type="curve" smooth="yes"/>
      <point x="323" y="252"/>
      <point x="342" y="320"/>
      <point x="366" y="386" type="curve"/>
      <point x="366" y="332"/>
      <point x="369" y="278"/>
      <point x="374" y="224" type="curve" smooth="yes"/>
      <point x="381" y="159"/>
      <point x="410" y="39"/>
      <point x="456" y="39" type="curve" smooth="yes"/>
      <point x="480" y="39"/>
      <point x="491" y="66"/>
      <point x="491" y="86" type="curve" smooth="yes"/>
      <point x="491" y="113"/>
      <point x="480" y="143"/>
      <point x="480" y="172" type="curve" smooth="yes"/>
      <point x="480" y="187"/>
      <point x="481" y="202"/>
      <point x="481" y="216" type="curve" smooth="yes"/>
      <point x="481" y="289"/>
      <point x="474" y="361"/>
      <point x="464" y="433" type="curve" smooth="yes"/>
      <point x="457" y="479"/>
      <point x="444" y="551"/>
    </contour>
  </outline>
</glyph>
<glyph name="N.ss01" format="1">
  <advance width="486"/>
  <outline>
    <contour>
      <point x="446" y="504" type="curve" smooth="yes"/>
      <point x="446" y="548"/>
      <point x="442" y="617"/>
      <point x="409" y="617" type="curve" smooth="yes"/>
      <point x="372" y="617"/>
      <point x="362" y="551"/>
      <point x="353" y="515" type="curve" smooth="yes"/>
      <point x="333" y="436"/>
      <point x="327" y="356"/>
      <point x="313" y="276" type="curve"/>
      <point x="279" y="330"/>
      <point x="250" y="388"/>
      <point x="218" y="443" type="curve" smooth="yes"/>
      <point x="198" y="478"/>
      <point x="170" y="527"/>
      <point x="130" y="527" type="curve" smooth="yes"/>
      <point x="86" y="527"/>
      <point x="77" y="476"/>
      <point x="70" y="439" type="curve" smooth="yes"/>
      <point x="55" y="363"/>
      <point x="38" y="286"/>
      <point x="26" y="209" type="curve" smooth="yes"/>
      <point x="23" y="192"/>
      <point x="20" y="172"/>
      <point x="20" y="153" type="curve" smooth="yes"/>
      <point x="20" y="125"/>
      <point x="32" y="95"/>
      <point x="61" y="95" type="curve" smooth="yes"/>
      <point x="117" y="95"/>
      <point x="118" y="276"/>
      <point x="133" y="378" type="curve"/>
      <point x="164" y="304"/>
      <point x="197" y="232"/>
      <point x="238" y="162" type="curve" smooth="yes"/>
      <point x="263" y="119"/>
      <point x="288" y="63"/>
      <point x="343" y="63" type="curve" smooth="yes"/>
      <point x="439" y="63"/>
      <point x="445" y="211"/>
      <point x="445" y="334" type="curve" smooth="yes"/>
      <point x="445" y="412"/>
      <point x="446" y="442"/>
    </contour>
  </outline>
</glyph>
